<svg version="1.1" viewBox="0.0 0.0 587.0 363.0" fill="none" stroke="none" stroke-linecap="square" stroke-miterlimit="10" width="587" height="363" xmlns:xlink="http://www.w3.org/1999/xlink" xmlns="http://www.w3.org/2000/svg"><path fill="#ffffff" d="M0 0L587.0 0L587.0 363.0L0 363.0L0 0Z" fill-rule="nonzero"/><path fill="#93c47d" d="M293.5 18.15C375.90897 18.15 445.4125 79.53408 455.59763 161.31122L374.5488 171.40561C369.45627 130.51704 334.7045 99.825 293.5 99.825Z" fill-rule="nonzero"/><path fill="#e06666" d="M219.5984 327.17697C152.1951 292.9834 117.050835 217.01503 134.62968 143.5073C152.20854 69.99956 217.91956 18.15 293.5 18.15L293.5 99.825C255.70978 99.825 222.85426 125.74978 214.06485 162.50365C205.27542 199.25752 222.84755 237.2417 256.5492 254.33849Z" fill-rule="nonzero"/><path fill="#f6b26b" d="M455.59763 161.31122C463.06262 221.24843 436.84433 280.41318 387.42813 315.14404C338.01193 349.8749 273.4639 354.5028 219.5984 327.17697L256.5492 254.33849C283.48196 268.0014 315.75595 265.68744 340.46408 248.32202C365.17218 230.95659 378.2813 201.3742 374.5488 171.40561Z" fill-rule="nonzero"/><path stroke="#000000" stroke-width="1.0" stroke-linejoin="round" stroke-linecap="round" d="M374.5488 171.40561C369.45627 130.51704 334.7045 99.825 293.5 99.825L293.5 18.15C375.90897 18.15 445.4125 79.53408 455.59763 161.31122" fill-rule="nonzero"/><path stroke="#000000" stroke-width="1.0" stroke-linejoin="round" stroke-linecap="round" d="M256.5492 254.33849C283.48196 268.0014 315.75595 265.68744 340.46408 248.32202C365.17218 230.95659 378.2813 201.3742 374.5488 171.40561L455.59763 161.31122C463.06262 221.24843 436.84433 280.41318 387.42813 315.14404C338.01193 349.8749 273.4639 354.5028 219.5984 327.17697" fill-rule="nonzero"/><path stroke="#000000" stroke-width="1.0" stroke-linejoin="round" stroke-linecap="round" d="M293.5 99.825C255.70978 99.825 222.85426 125.74978 214.06485 162.50365C205.27542 199.25752 222.84755 237.2417 256.5492 254.33849L219.5984 327.17697C152.1951 292.9834 117.050835 217.01503 134.62968 143.5073C152.20854 69.99956 217.91956 18.15 293.5 18.15" fill-rule="nonzero"/><path fill="#1a1a1a" d="M23.665625 139.90694L21.74375 139.90694L21.74375 132.67256Q20.68125 133.65694 19.259375 134.12569L19.259375 132.37569Q20.009375 132.14131 20.884375 131.45381Q21.775 130.76631 22.103125 129.84444L23.665625 129.84444L23.665625 139.90694ZM26.775 137.32881L28.68125 137.12569Q28.775 137.78194 29.165625 138.15694Q29.571875 138.53194 30.103125 138.53194Q30.696875 138.53194 31.11875 138.04756Q31.540625 137.56319 31.540625 136.57881Q31.540625 135.65694 31.11875 135.20381Q30.7125 134.73506 30.040625 134.73506Q29.2125 134.73506 28.55625 135.46944L27.009375 135.23506L27.99375 130.01631L33.071877 130.01631L33.071877 131.81319L29.446875 131.81319L29.15 133.51631Q29.790625 133.20381 30.4625 133.20381Q31.728125 133.20381 32.61875 134.14131Q33.509377 135.06319 33.509377 136.54756Q33.509377 137.78194 32.790627 138.75069Q31.821875 140.07881 30.0875 140.07881Q28.696875 140.07881 27.821875 139.34444Q26.946875 138.59444 26.775 137.32881ZM41.15 139.90694L38.228127 132.64131L40.24375 132.64131L41.603127 136.34444L42.009377 137.59444Q42.165627 137.11006 42.196877 136.96944Q42.30625 136.65694 42.415627 136.34444L43.790627 132.64131L45.759377 132.64131L42.884377 139.90694L41.15 139.90694ZM56.665627 139.90694L54.74375 139.90694L54.74375 132.67256Q53.68125 133.65694 52.259377 134.12569L52.259377 132.37569Q53.009377 132.14131 53.884377 131.45381Q54.775 130.76631 55.103127 129.84444L56.665627 129.84444L56.665627 139.90694ZM59.775 137.32881L61.68125 137.12569Q61.775 137.78194 62.165627 138.15694Q62.571877 138.53194 63.103127 138.53194Q63.696877 138.53194 64.11875 138.04756Q64.54063 137.56319 64.54063 136.57881Q64.54063 135.65694 64.11875 135.20381Q63.7125 134.73506 63.040627 134.73506Q62.2125 134.73506 61.55625 135.46944L60.009377 135.23506L60.99375 130.01631L66.07188 130.01631L66.07188 131.81319L62.446877 131.81319L62.15 133.51631Q62.790627 133.20381 63.4625 133.20381Q64.72813 133.20381 65.61875 134.14131Q66.50938 135.06319 66.50938 136.54756Q66.50938 137.78194 65.79063 138.75069Q64.82188 140.07881 63.0875 140.07881Q61.696877 140.07881 60.821877 139.34444Q59.946877 138.59444 59.775 137.32881Z" fill-rule="nonzero"/><path fill="#9e9e9e" d="M22.509375 159.90694L22.509375 157.89131L18.415625 157.89131L18.415625 156.20381L22.759375 149.84444L24.36875 149.84444L24.36875 156.20381L25.61875 156.20381L25.61875 157.89131L24.36875 157.89131L24.36875 159.90694L22.509375 159.90694ZM22.509375 156.20381L22.509375 152.78194L20.2125 156.20381L22.509375 156.20381ZM33.228127 158.12569L33.228127 159.90694L26.49375 159.90694Q26.603125 158.89131 27.15 157.98506Q27.696875 157.07881 29.321875 155.57881Q30.61875 154.37569 30.915625 153.93819Q31.30625 153.34444 31.30625 152.76631Q31.30625 152.12569 30.9625 151.78194Q30.61875 151.43819 30.009375 151.43819Q29.4 151.43819 29.040625 151.79756Q28.696875 152.15694 28.634375 153.00069L26.728125 152.81319Q26.9 151.21944 27.790625 150.53194Q28.696875 149.84444 30.05625 149.84444Q31.540625 149.84444 32.384377 150.64131Q33.228127 151.43819 33.228127 152.62569Q33.228127 153.31319 32.978127 153.92256Q32.74375 154.53194 32.228127 155.20381Q31.86875 155.64131 30.9625 156.48506Q30.05625 157.31319 29.80625 157.59444Q29.571875 157.86006 29.415625 158.12569L33.228127 158.12569ZM35.15 159.90694L35.15 157.98506L37.071877 157.98506L37.071877 159.90694L35.15 159.90694ZM38.775 157.32881L40.68125 157.12569Q40.775 157.78194 41.165627 158.15694Q41.571877 158.53194 42.103127 158.53194Q42.696877 158.53194 43.11875 158.04756Q43.540627 157.56319 43.540627 156.57881Q43.540627 155.65694 43.11875 155.20381Q42.7125 154.73506 42.040627 154.73506Q41.2125 154.73506 40.55625 155.46944L39.009377 155.23506L39.99375 150.01631L45.071877 150.01631L45.071877 151.81319L41.446877 151.81319L41.15 153.51631Q41.790627 153.20381 42.4625 153.20381Q43.728127 153.20381 44.61875 154.14131Q45.509377 155.06319 45.509377 156.54756Q45.509377 157.78194 44.790627 158.75069Q43.821877 160.07881 42.0875 160.07881Q40.696877 160.07881 39.821877 159.34444Q38.946877 158.59444 38.775 157.32881ZM46.759377 152.36006Q46.759377 151.01631 47.353127 150.37569Q47.946877 149.71944 48.946877 149.71944Q49.99375 149.71944 50.5875 150.36006Q51.18125 151.00069 51.18125 152.36006Q51.18125 153.70381 50.5875 154.36006Q49.99375 155.00069 48.99375 155.00069Q47.946877 155.00069 47.353127 154.36006Q46.759377 153.71944 46.759377 152.36006ZM48.259377 152.34444Q48.259377 153.32881 48.478127 153.65694Q48.65 153.90694 48.946877 153.90694Q49.259377 153.90694 49.43125 153.65694Q49.65 153.32881 49.65 152.34444Q49.65 151.37569 49.43125 151.04756Q49.259377 150.78194 48.946877 150.78194Q48.65 150.78194 48.478127 151.03194Q48.259377 151.37569 48.259377 152.34444ZM50.415627 160.29756L48.99375 160.29756L54.3375 149.71944L55.7125 149.71944L50.415627 160.29756ZM53.525 157.65694Q53.525 156.31319 54.103127 155.67256Q54.696877 155.01631 55.728127 155.01631Q56.759377 155.01631 57.353127 155.67256Q57.946877 156.31319 57.946877 157.65694Q57.946877 159.01631 57.353127 159.67256Q56.759377 160.31319 55.74375 160.31319Q54.696877 160.31319 54.103127 159.67256Q53.525 159.01631 53.525 157.65694ZM55.009377 157.65694Q55.009377 158.62569 55.24375 158.95381Q55.415627 159.20381 55.7125 159.20381Q56.025 159.20381 56.18125 158.96944Q56.415627 158.62569 56.415627 157.65694Q56.415627 156.67256 56.196877 156.34444Q56.025 156.09444 55.7125 156.09444Q55.4 156.09444 55.24375 156.34444Q55.009377 156.67256 55.009377 157.65694Z" fill-rule="nonzero"/><path stroke="#757575" stroke-width="1.0" stroke-linecap="butt" d="M18.15 145.40694L124.15 145.40694L142.5732 145.40694" fill-rule="nonzero"/><path fill="#9e9e9e" d="M144.5732 145.40694C144.5732 144.30237 143.67776 143.40694 142.5732 143.40694C141.46863 143.40694 140.5732 144.30237 140.5732 145.40694C140.5732 146.5115 141.46863 147.40694 142.5732 147.40694C143.67776 147.40694 144.5732 146.5115 144.5732 145.40694" fill-rule="nonzero"/><path fill="#1a1a1a" d="M536.475 57.10785L538.3812 56.904724Q538.475 57.560974 538.8656 57.935974Q539.27185 58.310974 539.8031 58.310974Q540.39685 58.310974 540.8187 57.8266Q541.2406 57.342224 541.2406 56.35785Q541.2406 55.435974 540.8187 54.98285Q540.4125 54.5141 539.7406 54.5141Q538.9125 54.5141 538.2562 55.248474L536.70935 55.0141L537.6937 49.79535L542.77185 49.79535L542.77185 51.592224L539.14685 51.592224L538.85 53.29535Q539.4906 52.98285 540.1625 52.98285Q541.4281 52.98285 542.3187 53.92035Q543.20935 54.842224 543.20935 56.3266Q543.20935 57.560974 542.4906 58.529724Q541.52185 59.85785 539.7875 59.85785Q538.39685 59.85785 537.52185 59.123474Q536.64685 58.373474 536.475 57.10785ZM550.85 59.685974L547.9281 52.42035L549.9437 52.42035L551.3031 56.123474L551.70935 57.373474Q551.8656 56.8891 551.89685 56.748474Q552.0062 56.435974 552.1156 56.123474L553.4906 52.42035L555.45935 52.42035L552.58435 59.685974L550.85 59.685974ZM561.475 57.10785L563.3812 56.904724Q563.475 57.560974 563.8656 57.935974Q564.27185 58.310974 564.8031 58.310974Q565.39685 58.310974 565.8187 57.8266Q566.2406 57.342224 566.2406 56.35785Q566.2406 55.435974 565.8187 54.98285Q565.4125 54.5141 564.7406 54.5141Q563.9125 54.5141 563.2562 55.248474L561.70935 55.0141L562.6937 49.79535L567.77185 49.79535L567.77185 51.592224L564.14685 51.592224L563.85 53.29535Q564.4906 52.98285 565.1625 52.98285Q566.4281 52.98285 567.3187 53.92035Q568.20935 54.842224 568.20935 56.3266Q568.20935 57.560974 567.4906 58.529724Q566.52185 59.85785 564.7875 59.85785Q563.39685 59.85785 562.52185 59.123474Q561.64685 58.373474 561.475 57.10785Z" fill-rule="nonzero"/><path fill="#9e9e9e" d="M537.9281 77.904724L537.9281 79.685974L531.1937 79.685974Q531.3031 78.67035 531.85 77.7641Q532.39685 76.85785 534.02185 75.35785Q535.3187 74.154724 535.6156 73.717224Q536.0062 73.123474 536.0062 72.54535Q536.0062 71.904724 535.6625 71.560974Q535.3187 71.217224 534.70935 71.217224Q534.1 71.217224 533.7406 71.5766Q533.39685 71.935974 533.33435 72.779724L531.4281 72.592224Q531.6 70.998474 532.4906 70.310974Q533.39685 69.623474 534.7562 69.623474Q536.2406 69.623474 537.08435 70.42035Q537.9281 71.217224 537.9281 72.404724Q537.9281 73.092224 537.6781 73.7016Q537.4437 74.310974 536.9281 74.98285Q536.5687 75.42035 535.6625 76.2641Q534.7562 77.092224 534.5062 77.373474Q534.27185 77.6391 534.1156 77.904724L537.9281 77.904724ZM539.3812 77.029724L541.2406 76.79535Q541.3187 77.5141 541.70935 77.8891Q542.1 78.2641 542.6625 78.2641Q543.2562 78.2641 543.6625 77.810974Q544.0687 77.35785 544.0687 76.592224Q544.0687 75.873474 543.6781 75.4516Q543.2875 75.029724 542.725 75.029724Q542.35 75.029724 541.85 75.17035L542.0531 73.60785Q542.83435 73.623474 543.2406 73.2641Q543.6625 72.904724 543.6625 72.310974Q543.6625 71.810974 543.35 71.5141Q543.0531 71.2016 542.5531 71.2016Q542.0687 71.2016 541.70935 71.54535Q541.3656 71.8891 541.2875 72.54535L539.52185 72.248474Q539.70935 71.3266 540.0687 70.79535Q540.4437 70.248474 541.1156 69.935974Q541.7875 69.623474 542.6156 69.623474Q544.02185 69.623474 544.8812 70.529724Q545.58435 71.2641 545.58435 72.185974Q545.58435 73.5141 544.14685 74.29535Q545.0062 74.48285 545.52185 75.123474Q546.0375 75.7641 546.0375 76.67035Q546.0375 77.998474 545.0687 78.935974Q544.1 79.85785 542.6781 79.85785Q541.3187 79.85785 540.4125 79.0766Q539.52185 78.29535 539.3812 77.029724ZM547.85 79.685974L547.85 77.7641L549.77185 77.7641L549.77185 79.685974L547.85 79.685974ZM554.6937 69.623474Q556.14685 69.623474 556.975 70.654724Q557.9437 71.8891 557.9437 74.748474Q557.9437 77.592224 556.95935 78.8266Q556.14685 79.85785 554.6937 79.85785Q553.225 79.85785 552.33435 78.73285Q551.4437 77.60785 551.4437 74.717224Q551.4437 71.8891 552.4281 70.654724Q553.2406 69.623474 554.6937 69.623474ZM554.6937 71.217224Q554.35 71.217224 554.0687 71.435974Q553.8031 71.654724 553.64685 72.23285Q553.4437 72.98285 553.4437 74.748474Q553.4437 76.5141 553.6156 77.17035Q553.8031 77.8266 554.0687 78.04535Q554.35 78.2641 554.6937 78.2641Q555.0375 78.2641 555.3031 78.04535Q555.58435 77.8266 555.7406 77.248474Q555.9437 76.5141 555.9437 74.748474Q555.9437 72.98285 555.7562 72.3266Q555.58435 71.654724 555.3031 71.435974Q555.0375 71.217224 554.6937 71.217224ZM559.45935 72.1391Q559.45935 70.79535 560.0531 70.154724Q560.64685 69.498474 561.64685 69.498474Q562.6937 69.498474 563.2875 70.1391Q563.8812 70.779724 563.8812 72.1391Q563.8812 73.48285 563.2875 74.1391Q562.6937 74.779724 561.6937 74.779724Q560.64685 74.779724 560.0531 74.1391Q559.45935 73.498474 559.45935 72.1391ZM560.95935 72.123474Q560.95935 73.10785 561.1781 73.435974Q561.35 73.685974 561.64685 73.685974Q561.95935 73.685974 562.1312 73.435974Q562.35 73.10785 562.35 72.123474Q562.35 71.154724 562.1312 70.8266Q561.95935 70.560974 561.64685 70.560974Q561.35 70.560974 561.1781 70.810974Q560.95935 71.154724 560.95935 72.123474ZM563.1156 80.0766L561.6937 80.0766L567.0375 69.498474L568.4125 69.498474L563.1156 80.0766ZM566.225 77.435974Q566.225 76.092224 566.8031 75.4516Q567.39685 74.79535 568.4281 74.79535Q569.45935 74.79535 570.0531 75.4516Q570.64685 76.092224 570.64685 77.435974Q570.64685 78.79535 570.0531 79.4516Q569.45935 80.092224 568.4437 80.092224Q567.39685 80.092224 566.8031 79.4516Q566.225 78.79535 566.225 77.435974ZM567.70935 77.435974Q567.70935 78.404724 567.9437 78.73285Q568.1156 78.98285 568.4125 78.98285Q568.725 78.98285 568.8812 78.748474Q569.1156 78.404724 569.1156 77.435974Q569.1156 76.4516 568.89685 76.123474Q568.725 75.873474 568.4125 75.873474Q568.1 75.873474 567.9437 76.123474Q567.70935 76.4516 567.70935 77.435974Z" fill-rule="nonzero"/><path stroke="#757575" stroke-width="1.0" stroke-linecap="butt" d="M568.85 65.185974L462.85 65.185974L396.2261 65.185974" fill-rule="nonzero"/><path fill="#9e9e9e" d="M398.2261 65.185974C398.2261 64.081406 397.3307 63.185974 396.2261 63.185974C395.12155 63.185974 394.2261 64.081406 394.2261 65.185974C394.2261 66.29054 395.12155 67.185974 396.2261 67.185974C397.3307 67.185974 398.2261 66.29054 398.2261 65.185974" fill-rule="nonzero"/><path fill="#1a1a1a" d="M525.3656 302.96182L523.4437 302.96182L523.4437 295.72745Q522.3812 296.71182 520.95935 297.18057L520.95935 295.43057Q521.70935 295.1962 522.58435 294.5087Q523.475 293.8212 523.8031 292.89932L525.3656 292.89932L525.3656 302.96182ZM531.6937 292.89932Q533.14685 292.89932 533.975 293.93057Q534.9437 295.16495 534.9437 298.02432Q534.9437 300.86807 533.95935 302.10245Q533.14685 303.1337 531.6937 303.1337Q530.225 303.1337 529.33435 302.0087Q528.4437 300.8837 528.4437 297.99307Q528.4437 295.16495 529.4281 293.93057Q530.2406 292.89932 531.6937 292.89932ZM531.6937 294.49307Q531.35 294.49307 531.0687 294.71182Q530.8031 294.93057 530.64685 295.5087Q530.4437 296.2587 530.4437 298.02432Q530.4437 299.78995 530.6156 300.4462Q530.8031 301.10245 531.0687 301.3212Q531.35 301.53995 531.6937 301.53995Q532.0375 301.53995 532.3031 301.3212Q532.58435 301.10245 532.7406 300.52432Q532.9437 299.78995 532.9437 298.02432Q532.9437 296.2587 532.7562 295.60245Q532.58435 294.93057 532.3031 294.71182Q532.0375 294.49307 531.6937 294.49307ZM542.85 302.96182L539.9281 295.6962L541.9437 295.6962L543.3031 299.39932L543.70935 300.64932Q543.8656 300.16495 543.89685 300.02432Q544.0062 299.71182 544.1156 299.39932L545.4906 295.6962L547.45935 295.6962L544.58435 302.96182L542.85 302.96182ZM558.3656 302.96182L556.4437 302.96182L556.4437 295.72745Q555.3812 296.71182 553.95935 297.18057L553.95935 295.43057Q554.70935 295.1962 555.58435 294.5087Q556.475 293.8212 556.8031 292.89932L558.3656 292.89932L558.3656 302.96182ZM564.6937 292.89932Q566.14685 292.89932 566.975 293.93057Q567.9437 295.16495 567.9437 298.02432Q567.9437 300.86807 566.95935 302.10245Q566.14685 303.1337 564.6937 303.1337Q563.225 303.1337 562.33435 302.0087Q561.4437 300.8837 561.4437 297.99307Q561.4437 295.16495 562.4281 293.93057Q563.2406 292.89932 564.6937 292.89932ZM564.6937 294.49307Q564.35 294.49307 564.0687 294.71182Q563.8031 294.93057 563.64685 295.5087Q563.4437 296.2587 563.4437 298.02432Q563.4437 299.78995 563.6156 300.4462Q563.8031 301.10245 564.0687 301.3212Q564.35 301.53995 564.6937 301.53995Q565.0375 301.53995 565.3031 301.3212Q565.58435 301.10245 565.7406 300.52432Q565.9437 299.78995 565.9437 298.02432Q565.9437 296.2587 565.7562 295.60245Q565.58435 294.93057 565.3031 294.71182Q565.0375 294.49307 564.6937 294.49307Z" fill-rule="nonzero"/><path fill="#9e9e9e" d="M531.3812 320.30557L533.2406 320.0712Q533.3187 320.78995 533.70935 321.16495Q534.1 321.53995 534.6625 321.53995Q535.2562 321.53995 535.6625 321.08682Q536.0687 320.6337 536.0687 319.86807Q536.0687 319.14932 535.6781 318.72745Q535.2875 318.30557 534.725 318.30557Q534.35 318.30557 533.85 318.4462L534.0531 316.8837Q534.83435 316.89932 535.2406 316.53995Q535.6625 316.18057 535.6625 315.58682Q535.6625 315.08682 535.35 314.78995Q535.0531 314.47745 534.5531 314.47745Q534.0687 314.47745 533.70935 314.8212Q533.3656 315.16495 533.2875 315.8212L531.52185 315.52432Q531.70935 314.60245 532.0687 314.0712Q532.4437 313.52432 533.1156 313.21182Q533.7875 312.89932 534.6156 312.89932Q536.02185 312.89932 536.8812 313.80557Q537.58435 314.53995 537.58435 315.46182Q537.58435 316.78995 536.14685 317.5712Q537.0062 317.7587 537.52185 318.39932Q538.0375 319.03995 538.0375 319.9462Q538.0375 321.27432 537.0687 322.21182Q536.1 323.1337 534.6781 323.1337Q533.3187 323.1337 532.4125 322.35245Q531.52185 321.5712 531.3812 320.30557ZM543.20935 322.96182L543.20935 320.9462L539.1156 320.9462L539.1156 319.2587L543.45935 312.89932L545.0687 312.89932L545.0687 319.2587L546.3187 319.2587L546.3187 320.9462L545.0687 320.9462L545.0687 322.96182L543.20935 322.96182ZM543.20935 319.2587L543.20935 315.83682L540.9125 319.2587L543.20935 319.2587ZM547.85 322.96182L547.85 321.03995L549.77185 321.03995L549.77185 322.96182L547.85 322.96182ZM555.20935 322.96182L555.20935 320.9462L551.1156 320.9462L551.1156 319.2587L555.45935 312.89932L557.0687 312.89932L557.0687 319.2587L558.3187 319.2587L558.3187 320.9462L557.0687 320.9462L557.0687 322.96182L555.20935 322.96182ZM555.20935 319.2587L555.20935 315.83682L552.9125 319.2587L555.20935 319.2587ZM559.45935 315.41495Q559.45935 314.0712 560.0531 313.43057Q560.64685 312.77432 561.64685 312.77432Q562.6937 312.77432 563.2875 313.41495Q563.8812 314.05557 563.8812 315.41495Q563.8812 316.7587 563.2875 317.41495Q562.6937 318.05557 561.6937 318.05557Q560.64685 318.05557 560.0531 317.41495Q559.45935 316.77432 559.45935 315.41495ZM560.95935 315.39932Q560.95935 316.3837 561.1781 316.71182Q561.35 316.96182 561.64685 316.96182Q561.95935 316.96182 562.1312 316.71182Q562.35 316.3837 562.35 315.39932Q562.35 314.43057 562.1312 314.10245Q561.95935 313.83682 561.64685 313.83682Q561.35 313.83682 561.1781 314.08682Q560.95935 314.43057 560.95935 315.39932ZM563.1156 323.35245L561.6937 323.35245L567.0375 312.77432L568.4125 312.77432L563.1156 323.35245ZM566.225 320.71182Q566.225 319.36807 566.8031 318.72745Q567.39685 318.0712 568.4281 318.0712Q569.45935 318.0712 570.0531 318.72745Q570.64685 319.36807 570.64685 320.71182Q570.64685 322.0712 570.0531 322.72745Q569.45935 323.36807 568.4437 323.36807Q567.39685 323.36807 566.8031 322.72745Q566.225 322.0712 566.225 320.71182ZM567.70935 320.71182Q567.70935 321.68057 567.9437 322.0087Q568.1156 322.2587 568.4125 322.2587Q568.725 322.2587 568.8812 322.02432Q569.1156 321.68057 569.1156 320.71182Q569.1156 319.72745 568.89685 319.39932Q568.725 319.14932 568.4125 319.14932Q568.1 319.14932 567.9437 319.39932Q567.70935 319.72745 567.70935 320.71182Z" fill-rule="nonzero"/><path stroke="#757575" stroke-width="1.0" stroke-linecap="butt" d="M568.85 308.46182L462.85 308.46182L382.73172 308.46182" fill-rule="nonzero"/><path fill="#9e9e9e" d="M384.73172 308.46182C384.73172 307.35727 383.8363 306.46182 382.73172 306.46182C381.62717 306.46182 380.73172 307.35727 380.73172 308.46182C380.73172 309.5664 381.62717 310.46182 382.73172 310.46182C383.8363 310.46182 384.73172 309.5664 384.73172 308.46182" fill-rule="nonzero"/></svg>