<svg version="1.1" viewBox="0.0 0.0 587.0 363.0" fill="none" stroke="none" stroke-linecap="square" stroke-miterlimit="10" width="587" height="363" xmlns:xlink="http://www.w3.org/1999/xlink" xmlns="http://www.w3.org/2000/svg"><path fill="#ffffff" d="M0 0L587.0 0L587.0 363.0L0 363.0L0 0Z" fill-rule="nonzero"/><path fill="#004561" d="M293.5 18.15C369.8462 18.15 436.00955 71.03286 452.83417 145.50212C469.65878 219.97139 432.65662 296.1621 363.7258 328.9841L328.61288 255.24205C363.0783 238.83105 381.57938 200.73569 373.16708 163.50107C364.75476 126.266426 331.6731 99.825 293.5 99.825Z" fill-rule="nonzero"/><path fill="#5891ad" d="M130.8173 166.74991C138.44746 82.59497 208.99988 18.15 293.5 18.15L293.5 99.825C251.24994 99.825 215.97372 132.04749 212.15866 174.12495Z" fill-rule="nonzero"/><path fill="#f1c232" d="M363.7258 328.9841C310.73923 354.2141 248.2906 349.0812 200.13484 315.53793C151.97906 281.99466 125.51805 225.19687 130.8173 166.74991L212.15866 174.12495C209.50902 203.34843 222.73953 231.74733 246.81741 248.51897C270.8953 265.29062 302.1196 267.85706 328.61288 255.24205Z" fill-rule="nonzero"/><path stroke="#000000" stroke-width="1.0" stroke-linejoin="round" stroke-linecap="round" d="M328.61288 255.24205C363.0783 238.83105 381.57938 200.73569 373.16708 163.50107C364.75476 126.266426 331.6731 99.825 293.5 99.825L293.5 18.15C369.8462 18.15 436.00955 71.03286 452.83417 145.50212C469.65878 219.97139 432.65662 296.1621 363.7258 328.9841" fill-rule="nonzero"/><path stroke="#000000" stroke-width="1.0" stroke-linejoin="round" stroke-linecap="round" d="M212.15866 174.12495C209.50902 203.34843 222.73953 231.74733 246.81741 248.51897C270.8953 265.29062 302.1196 267.85706 328.61288 255.24205L363.7258 328.9841C310.73923 354.2141 248.2906 349.0812 200.13484 315.53793C151.97906 281.99466 125.51805 225.19687 130.8173 166.74991" fill-rule="nonzero"/><path stroke="#000000" stroke-width="1.0" stroke-linejoin="round" stroke-linecap="round" d="M293.5 99.825C251.24994 99.825 215.97372 132.04749 212.15866 174.12495L130.8173 166.74991C138.44746 82.59497 208.99988 18.15 293.5 18.15" fill-rule="nonzero"/><path fill="#1a1a1a" d="M18.775 58.844135L20.68125 58.64101Q20.775 59.29726 21.165625 59.67226Q21.571875 60.04726 22.103125 60.04726Q22.696875 60.04726 23.11875 59.562885Q23.540625 59.07851 23.540625 58.094135Q23.540625 57.17226 23.11875 56.719135Q22.7125 56.250385 22.040625 56.250385Q21.2125 56.250385 20.55625 56.98476L19.009375 56.750385L19.99375 51.531635L25.071875 51.531635L25.071875 53.32851L21.446875 53.32851L21.15 55.031635Q21.790625 54.719135 22.4625 54.719135Q23.728125 54.719135 24.61875 55.656635Q25.509375 56.57851 25.509375 58.062885Q25.509375 59.29726 24.790625 60.26601Q23.821875 61.594135 22.0875 61.594135Q20.696875 61.594135 19.821875 60.85976Q18.946875 60.10976 18.775 58.844135ZM33.15 61.42226L30.228125 54.156635L32.24375 54.156635L33.603127 57.85976L34.009377 59.10976Q34.165627 58.625385 34.196877 58.48476Q34.30625 58.17226 34.415627 57.85976L35.790627 54.156635L37.759377 54.156635L34.884377 61.42226L33.15 61.42226ZM43.775 58.844135L45.68125 58.64101Q45.775 59.29726 46.165627 59.67226Q46.571877 60.04726 47.103127 60.04726Q47.696877 60.04726 48.11875 59.562885Q48.540627 59.07851 48.540627 58.094135Q48.540627 57.17226 48.11875 56.719135Q47.7125 56.250385 47.040627 56.250385Q46.2125 56.250385 45.55625 56.98476L44.009377 56.750385L44.99375 51.531635L50.071877 51.531635L50.071877 53.32851L46.446877 53.32851L46.15 55.031635Q46.790627 54.719135 47.4625 54.719135Q48.728127 54.719135 49.61875 55.656635Q50.509377 56.57851 50.509377 58.062885Q50.509377 59.29726 49.790627 60.26601Q48.821877 61.594135 47.0875 61.594135Q45.696877 61.594135 44.821877 60.85976Q43.946877 60.10976 43.775 58.844135Z" fill-rule="nonzero"/><path fill="#9e9e9e" d="M25.228125 79.64101L25.228125 81.42226L18.49375 81.42226Q18.603125 80.40663 19.15 79.50038Q19.696875 78.59413 21.321875 77.09413Q22.61875 75.89101 22.915625 75.45351Q23.30625 74.85976 23.30625 74.28163Q23.30625 73.64101 22.9625 73.29726Q22.61875 72.95351 22.009375 72.95351Q21.4 72.95351 21.040625 73.31288Q20.696875 73.67226 20.634375 74.51601L18.728125 74.32851Q18.9 72.73476 19.790625 72.04726Q20.696875 71.35976 22.05625 71.35976Q23.540625 71.35976 24.384375 72.15663Q25.228125 72.95351 25.228125 74.14101Q25.228125 74.82851 24.978125 75.43788Q24.74375 76.04726 24.228125 76.71913Q23.86875 77.15663 22.9625 78.00038Q22.05625 78.82851 21.80625 79.10976Q21.571875 79.37538 21.415625 79.64101L25.228125 79.64101ZM26.68125 78.76601L28.540625 78.53163Q28.61875 79.25038 29.009375 79.62538Q29.4 80.00038 29.9625 80.00038Q30.55625 80.00038 30.9625 79.54726Q31.36875 79.09413 31.36875 78.32851Q31.36875 77.60976 30.978125 77.18788Q30.5875 76.76601 30.025 76.76601Q29.65 76.76601 29.15 76.90663L29.353125 75.34413Q30.134375 75.35976 30.540625 75.00038Q30.9625 74.64101 30.9625 74.04726Q30.9625 73.54726 30.65 73.25038Q30.353125 72.93788 29.853125 72.93788Q29.36875 72.93788 29.009375 73.28163Q28.665625 73.62538 28.5875 74.28163L26.821875 73.98476Q27.009375 73.06288 27.36875 72.53163Q27.74375 71.98476 28.415625 71.67226Q29.0875 71.35976 29.915625 71.35976Q31.321875 71.35976 32.18125 72.26601Q32.884377 73.00038 32.884377 73.92226Q32.884377 75.25038 31.446875 76.03163Q32.30625 76.21913 32.821877 76.85976Q33.3375 77.50038 33.3375 78.40663Q33.3375 79.73476 32.36875 80.67226Q31.4 81.59413 29.978125 81.59413Q28.61875 81.59413 27.7125 80.81288Q26.821875 80.03163 26.68125 78.76601ZM35.15 81.42226L35.15 79.50038L37.071877 79.50038L37.071877 81.42226L35.15 81.42226ZM45.259377 73.85976L43.4 74.06288Q43.321877 73.48476 43.025 73.21913Q42.74375 72.93788 42.290627 72.93788Q41.68125 72.93788 41.259377 73.48476Q40.8375 74.03163 40.728127 75.76601Q41.446877 74.90663 42.525 74.90663Q43.728127 74.90663 44.571877 75.82851Q45.43125 76.75038 45.43125 78.18788Q45.43125 79.73476 44.525 80.67226Q43.634377 81.59413 42.2125 81.59413Q40.696877 81.59413 39.7125 80.42226Q38.74375 79.23476 38.74375 76.54726Q38.74375 73.79726 39.759377 72.57851Q40.775 71.35976 42.415627 71.35976Q43.55625 71.35976 44.290627 72.00038Q45.040627 72.64101 45.259377 73.85976ZM40.9 78.04726Q40.9 78.98476 41.321877 79.50038Q41.759377 80.00038 42.30625 80.00038Q42.853127 80.00038 43.196877 79.59413Q43.55625 79.17226 43.55625 78.21913Q43.55625 77.23476 43.165627 76.78163Q42.790627 76.32851 42.2125 76.32851Q41.665627 76.32851 41.275 76.76601Q40.9 77.20351 40.9 78.04726ZM46.759377 73.87538Q46.759377 72.53163 47.353127 71.89101Q47.946877 71.23476 48.946877 71.23476Q49.99375 71.23476 50.5875 71.87538Q51.18125 72.51601 51.18125 73.87538Q51.18125 75.21913 50.5875 75.87538Q49.99375 76.51601 48.99375 76.51601Q47.946877 76.51601 47.353127 75.87538Q46.759377 75.23476 46.759377 73.87538ZM48.259377 73.85976Q48.259377 74.84413 48.478127 75.17226Q48.65 75.42226 48.946877 75.42226Q49.259377 75.42226 49.43125 75.17226Q49.65 74.84413 49.65 73.85976Q49.65 72.89101 49.43125 72.56288Q49.259377 72.29726 48.946877 72.29726Q48.65 72.29726 48.478127 72.54726Q48.259377 72.89101 48.259377 73.85976ZM50.415627 81.81288L48.99375 81.81288L54.3375 71.23476L55.7125 71.23476L50.415627 81.81288ZM53.525 79.17226Q53.525 77.82851 54.103127 77.18788Q54.696877 76.53163 55.728127 76.53163Q56.759377 76.53163 57.353127 77.18788Q57.946877 77.82851 57.946877 79.17226Q57.946877 80.53163 57.353127 81.18788Q56.759377 81.82851 55.74375 81.82851Q54.696877 81.82851 54.103127 81.18788Q53.525 80.53163 53.525 79.17226ZM55.009377 79.17226Q55.009377 80.14101 55.24375 80.46913Q55.415627 80.71913 55.7125 80.71913Q56.025 80.71913 56.18125 80.48476Q56.415627 80.14101 56.415627 79.17226Q56.415627 78.18788 56.196877 77.85976Q56.025 77.60976 55.7125 77.60976Q55.4 77.60976 55.24375 77.85976Q55.009377 78.18788 55.009377 79.17226Z" fill-rule="nonzero"/><path stroke="#757575" stroke-width="1.0" stroke-linecap="butt" d="M18.15 66.92226L124.15 66.92226L188.84079 66.92226" fill-rule="nonzero"/><path fill="#9e9e9e" d="M190.84079 66.92226C190.84079 65.81769 189.94536 64.92226 188.84079 64.92226C187.73622 64.92226 186.84079 65.81769 186.84079 66.92226C186.84079 68.026825 187.73622 68.92226 188.84079 68.92226C189.94536 68.92226 190.84079 68.026825 190.84079 66.92226" fill-rule="nonzero"/><path fill="#1a1a1a" d="M23.665625 303.33603L21.74375 303.33603L21.74375 296.10165Q20.68125 297.08603 19.259375 297.55478L19.259375 295.80478Q20.009375 295.5704 20.884375 294.8829Q21.775 294.1954 22.103125 293.27353L23.665625 293.27353L23.665625 303.33603ZM29.99375 293.27353Q31.446875 293.27353 32.275 294.30478Q33.24375 295.53915 33.24375 298.39853Q33.24375 301.24228 32.259377 302.47665Q31.446875 303.5079 29.99375 303.5079Q28.525 303.5079 27.634375 302.3829Q26.74375 301.2579 26.74375 298.36728Q26.74375 295.53915 27.728125 294.30478Q28.540625 293.27353 29.99375 293.27353ZM29.99375 294.86728Q29.65 294.86728 29.36875 295.08603Q29.103125 295.30478 28.946875 295.8829Q28.74375 296.6329 28.74375 298.39853Q28.74375 300.16415 28.915625 300.8204Q29.103125 301.47665 29.36875 301.6954Q29.65 301.91415 29.99375 301.91415Q30.3375 301.91415 30.603125 301.6954Q30.884375 301.47665 31.040625 300.89853Q31.24375 300.16415 31.24375 298.39853Q31.24375 296.6329 31.05625 295.97665Q30.884375 295.30478 30.603125 295.08603Q30.3375 294.86728 29.99375 294.86728ZM41.15 303.33603L38.228127 296.0704L40.24375 296.0704L41.603127 299.77353L42.009377 301.02353Q42.165627 300.53915 42.196877 300.39853Q42.30625 300.08603 42.415627 299.77353L43.790627 296.0704L45.759377 296.0704L42.884377 303.33603L41.15 303.33603ZM56.665627 303.33603L54.74375 303.33603L54.74375 296.10165Q53.68125 297.08603 52.259377 297.55478L52.259377 295.80478Q53.009377 295.5704 53.884377 294.8829Q54.775 294.1954 55.103127 293.27353L56.665627 293.27353L56.665627 303.33603ZM62.99375 293.27353Q64.44688 293.27353 65.275 294.30478Q66.24375 295.53915 66.24375 298.39853Q66.24375 301.24228 65.25938 302.47665Q64.44688 303.5079 62.99375 303.5079Q61.525 303.5079 60.634377 302.3829Q59.74375 301.2579 59.74375 298.36728Q59.74375 295.53915 60.728127 294.30478Q61.540627 293.27353 62.99375 293.27353ZM62.99375 294.86728Q62.65 294.86728 62.36875 295.08603Q62.103127 295.30478 61.946877 295.8829Q61.74375 296.6329 61.74375 298.39853Q61.74375 300.16415 61.915627 300.8204Q62.103127 301.47665 62.36875 301.6954Q62.65 301.91415 62.99375 301.91415Q63.3375 301.91415 63.603127 301.6954Q63.884377 301.47665 64.04063 300.89853Q64.24375 300.16415 64.24375 298.39853Q64.24375 296.6329 64.05625 295.97665Q63.884377 295.30478 63.603127 295.08603Q63.3375 294.86728 62.99375 294.86728Z" fill-rule="nonzero"/><path fill="#9e9e9e" d="M18.68125 320.67978L20.540625 320.4454Q20.61875 321.16415 21.009375 321.53915Q21.4 321.91415 21.9625 321.91415Q22.55625 321.91415 22.9625 321.46103Q23.36875 321.0079 23.36875 320.24228Q23.36875 319.52353 22.978125 319.10165Q22.5875 318.67978 22.025 318.67978Q21.65 318.67978 21.15 318.8204L21.353125 317.2579Q22.134375 317.27353 22.540625 316.91415Q22.9625 316.55478 22.9625 315.96103Q22.9625 315.46103 22.65 315.16415Q22.353125 314.85165 21.853125 314.85165Q21.36875 314.85165 21.009375 315.1954Q20.665625 315.53915 20.5875 316.1954L18.821875 315.89853Q19.009375 314.97665 19.36875 314.4454Q19.74375 313.89853 20.415625 313.58603Q21.0875 313.27353 21.915625 313.27353Q23.321875 313.27353 24.18125 314.17978Q24.884375 314.91415 24.884375 315.83603Q24.884375 317.16415 23.446875 317.9454Q24.30625 318.1329 24.821875 318.77353Q25.3375 319.41415 25.3375 320.3204Q25.3375 321.64853 24.36875 322.58603Q23.4 323.5079 21.978125 323.5079Q20.61875 323.5079 19.7125 322.72665Q18.821875 321.9454 18.68125 320.67978ZM26.68125 320.67978L28.540625 320.4454Q28.61875 321.16415 29.009375 321.53915Q29.4 321.91415 29.9625 321.91415Q30.55625 321.91415 30.9625 321.46103Q31.36875 321.0079 31.36875 320.24228Q31.36875 319.52353 30.978125 319.10165Q30.5875 318.67978 30.025 318.67978Q29.65 318.67978 29.15 318.8204L29.353125 317.2579Q30.134375 317.27353 30.540625 316.91415Q30.9625 316.55478 30.9625 315.96103Q30.9625 315.46103 30.65 315.16415Q30.353125 314.85165 29.853125 314.85165Q29.36875 314.85165 29.009375 315.1954Q28.665625 315.53915 28.5875 316.1954L26.821875 315.89853Q27.009375 314.97665 27.36875 314.4454Q27.74375 313.89853 28.415625 313.58603Q29.0875 313.27353 29.915625 313.27353Q31.321875 313.27353 32.18125 314.17978Q32.884377 314.91415 32.884377 315.83603Q32.884377 317.16415 31.446875 317.9454Q32.30625 318.1329 32.821877 318.77353Q33.3375 319.41415 33.3375 320.3204Q33.3375 321.64853 32.36875 322.58603Q31.4 323.5079 29.978125 323.5079Q28.61875 323.5079 27.7125 322.72665Q26.821875 321.9454 26.68125 320.67978ZM35.15 323.33603L35.15 321.41415L37.071877 321.41415L37.071877 323.33603L35.15 323.33603ZM38.775 320.7579L40.68125 320.55478Q40.775 321.21103 41.165627 321.58603Q41.571877 321.96103 42.103127 321.96103Q42.696877 321.96103 43.11875 321.47665Q43.540627 320.99228 43.540627 320.0079Q43.540627 319.08603 43.11875 318.6329Q42.7125 318.16415 42.040627 318.16415Q41.2125 318.16415 40.55625 318.89853L39.009377 318.66415L39.99375 313.4454L45.071877 313.4454L45.071877 315.24228L41.446877 315.24228L41.15 316.9454Q41.790627 316.6329 42.4625 316.6329Q43.728127 316.6329 44.61875 317.5704Q45.509377 318.49228 45.509377 319.97665Q45.509377 321.21103 44.790627 322.17978Q43.821877 323.5079 42.0875 323.5079Q40.696877 323.5079 39.821877 322.77353Q38.946877 322.02353 38.775 320.7579ZM46.759377 315.78915Q46.759377 314.4454 47.353127 313.80478Q47.946877 313.14853 48.946877 313.14853Q49.99375 313.14853 50.5875 313.78915Q51.18125 314.42978 51.18125 315.78915Q51.18125 317.1329 50.5875 317.78915Q49.99375 318.42978 48.99375 318.42978Q47.946877 318.42978 47.353127 317.78915Q46.759377 317.14853 46.759377 315.78915ZM48.259377 315.77353Q48.259377 316.7579 48.478127 317.08603Q48.65 317.33603 48.946877 317.33603Q49.259377 317.33603 49.43125 317.08603Q49.65 316.7579 49.65 315.77353Q49.65 314.80478 49.43125 314.47665Q49.259377 314.21103 48.946877 314.21103Q48.65 314.21103 48.478127 314.46103Q48.259377 314.80478 48.259377 315.77353ZM50.415627 323.72665L48.99375 323.72665L54.3375 313.14853L55.7125 313.14853L50.415627 323.72665ZM53.525 321.08603Q53.525 319.74228 54.103127 319.10165Q54.696877 318.4454 55.728127 318.4454Q56.759377 318.4454 57.353127 319.10165Q57.946877 319.74228 57.946877 321.08603Q57.946877 322.4454 57.353127 323.10165Q56.759377 323.74228 55.74375 323.74228Q54.696877 323.74228 54.103127 323.10165Q53.525 322.4454 53.525 321.08603ZM55.009377 321.08603Q55.009377 322.05478 55.24375 322.3829Q55.415627 322.6329 55.7125 322.6329Q56.025 322.6329 56.18125 322.39853Q56.415627 322.05478 56.415627 321.08603Q56.415627 320.10165 56.196877 319.77353Q56.025 319.52353 55.7125 319.52353Q55.4 319.52353 55.24375 319.77353Q55.009377 320.10165 55.009377 321.08603Z" fill-rule="nonzero"/><path stroke="#757575" stroke-width="1.0" stroke-linecap="butt" d="M18.15 308.83603L124.15 308.83603L204.8031 308.83603" fill-rule="nonzero"/><path fill="#9e9e9e" d="M206.8031 308.83603C206.8031 307.73148 205.90767 306.83603 204.8031 306.83603C203.69853 306.83603 202.8031 307.73148 202.8031 308.83603C202.8031 309.9406 203.69853 310.83603 204.8031 310.83603C205.90767 310.83603 206.8031 309.9406 206.8031 308.83603" fill-rule="nonzero"/><path fill="#1a1a1a" d="M525.3656 141.80202L523.4437 141.80202L523.4437 134.56764Q522.3812 135.55202 520.95935 136.02077L520.95935 134.27077Q521.70935 134.03639 522.58435 133.34889Q523.475 132.66139 523.8031 131.73952L525.3656 131.73952L525.3656 141.80202ZM528.475 139.22389L530.3812 139.02077Q530.475 139.67702 530.8656 140.05202Q531.27185 140.42702 531.8031 140.42702Q532.39685 140.42702 532.8187 139.94264Q533.2406 139.45827 533.2406 138.47389Q533.2406 137.55202 532.8187 137.09889Q532.4125 136.63014 531.7406 136.63014Q530.9125 136.63014 530.2562 137.36452L528.70935 137.13014L529.6937 131.91139L534.77185 131.91139L534.77185 133.70827L531.14685 133.70827L530.85 135.41139Q531.4906 135.09889 532.1625 135.09889Q533.4281 135.09889 534.3187 136.03639Q535.20935 136.95827 535.20935 138.44264Q535.20935 139.67702 534.4906 140.64577Q533.52185 141.97389 531.7875 141.97389Q530.39685 141.97389 529.52185 141.23952Q528.64685 140.48952 528.475 139.22389ZM542.85 141.80202L539.9281 134.53639L541.9437 134.53639L543.3031 138.23952L543.70935 139.48952Q543.8656 139.00514 543.89685 138.86452Q544.0062 138.55202 544.1156 138.23952L545.4906 134.53639L547.45935 134.53639L544.58435 141.80202L542.85 141.80202ZM558.3656 141.80202L556.4437 141.80202L556.4437 134.56764Q555.3812 135.55202 553.95935 136.02077L553.95935 134.27077Q554.70935 134.03639 555.58435 133.34889Q556.475 132.66139 556.8031 131.73952L558.3656 131.73952L558.3656 141.80202ZM561.475 139.22389L563.3812 139.02077Q563.475 139.67702 563.8656 140.05202Q564.27185 140.42702 564.8031 140.42702Q565.39685 140.42702 565.8187 139.94264Q566.2406 139.45827 566.2406 138.47389Q566.2406 137.55202 565.8187 137.09889Q565.4125 136.63014 564.7406 136.63014Q563.9125 136.63014 563.2562 137.36452L561.70935 137.13014L562.6937 131.91139L567.77185 131.91139L567.77185 133.70827L564.14685 133.70827L563.85 135.41139Q564.4906 135.09889 565.1625 135.09889Q566.4281 135.09889 567.3187 136.03639Q568.20935 136.95827 568.20935 138.44264Q568.20935 139.67702 567.4906 140.64577Q566.52185 141.97389 564.7875 141.97389Q563.39685 141.97389 562.52185 141.23952Q561.64685 140.48952 561.475 139.22389Z" fill-rule="nonzero"/><path fill="#9e9e9e" d="M535.20935 161.80202L535.20935 159.78639L531.1156 159.78639L531.1156 158.09889L535.45935 151.73952L537.0687 151.73952L537.0687 158.09889L538.3187 158.09889L538.3187 159.78639L537.0687 159.78639L537.0687 161.80202L535.20935 161.80202ZM535.20935 158.09889L535.20935 154.67702L532.9125 158.09889L535.20935 158.09889ZM545.9281 160.02077L545.9281 161.80202L539.1937 161.80202Q539.3031 160.78639 539.85 159.88014Q540.39685 158.97389 542.02185 157.47389Q543.3187 156.27077 543.6156 155.83327Q544.0062 155.23952 544.0062 154.66139Q544.0062 154.02077 543.6625 153.67702Q543.3187 153.33327 542.70935 153.33327Q542.1 153.33327 541.7406 153.69264Q541.39685 154.05202 541.33435 154.89577L539.4281 154.70827Q539.6 153.11452 540.4906 152.42702Q541.39685 151.73952 542.7562 151.73952Q544.2406 151.73952 545.08435 152.53639Q545.9281 153.33327 545.9281 154.52077Q545.9281 155.20827 545.6781 155.81764Q545.4437 156.42702 544.9281 157.09889Q544.5687 157.53639 543.6625 158.38014Q542.7562 159.20827 542.5062 159.48952Q542.27185 159.75514 542.1156 160.02077L545.9281 160.02077ZM547.85 161.80202L547.85 159.88014L549.77185 159.88014L549.77185 161.80202L547.85 161.80202ZM551.4906 159.48952L553.35 159.28639Q553.4125 159.84889 553.6937 160.13014Q553.9906 160.39577 554.45935 160.39577Q555.0531 160.39577 555.45935 159.84889Q555.8812 159.30202 556.0062 157.58327Q555.2875 158.41139 554.1937 158.41139Q553.0062 158.41139 552.14685 157.50514Q551.2875 156.59889 551.2875 155.13014Q551.2875 153.59889 552.1937 152.67702Q553.1 151.73952 554.5062 151.73952Q556.0375 151.73952 557.0062 152.92702Q557.9906 154.09889 557.9906 156.80202Q557.9906 159.55202 556.95935 160.77077Q555.9437 161.97389 554.3187 161.97389Q553.14685 161.97389 552.4125 161.34889Q551.6937 160.72389 551.4906 159.48952ZM555.83435 155.28639Q555.83435 154.36452 555.39685 153.84889Q554.975 153.33327 554.4125 153.33327Q553.8812 153.33327 553.52185 153.75514Q553.1781 154.17702 553.1781 155.13014Q553.1781 156.09889 553.5531 156.55202Q553.9437 157.00514 554.52185 157.00514Q555.0687 157.00514 555.4437 156.56764Q555.83435 156.13014 555.83435 155.28639ZM559.45935 154.25514Q559.45935 152.91139 560.0531 152.27077Q560.64685 151.61452 561.64685 151.61452Q562.6937 151.61452 563.2875 152.25514Q563.8812 152.89577 563.8812 154.25514Q563.8812 155.59889 563.2875 156.25514Q562.6937 156.89577 561.6937 156.89577Q560.64685 156.89577 560.0531 156.25514Q559.45935 155.61452 559.45935 154.25514ZM560.95935 154.23952Q560.95935 155.22389 561.1781 155.55202Q561.35 155.80202 561.64685 155.80202Q561.95935 155.80202 562.1312 155.55202Q562.35 155.22389 562.35 154.23952Q562.35 153.27077 562.1312 152.94264Q561.95935 152.67702 561.64685 152.67702Q561.35 152.67702 561.1781 152.92702Q560.95935 153.27077 560.95935 154.23952ZM563.1156 162.19264L561.6937 162.19264L567.0375 151.61452L568.4125 151.61452L563.1156 162.19264ZM566.225 159.55202Q566.225 158.20827 566.8031 157.56764Q567.39685 156.91139 568.4281 156.91139Q569.45935 156.91139 570.0531 157.56764Q570.64685 158.20827 570.64685 159.55202Q570.64685 160.91139 570.0531 161.56764Q569.45935 162.20827 568.4437 162.20827Q567.39685 162.20827 566.8031 161.56764Q566.225 160.91139 566.225 159.55202ZM567.70935 159.55202Q567.70935 160.52077 567.9437 160.84889Q568.1156 161.09889 568.4125 161.09889Q568.725 161.09889 568.8812 160.86452Q569.1156 160.52077 569.1156 159.55202Q569.1156 158.56764 568.89685 158.23952Q568.725 157.98952 568.4125 157.98952Q568.1 157.98952 567.9437 158.23952Q567.70935 158.56764 567.70935 159.55202Z" fill-rule="nonzero"/><path stroke="#757575" stroke-width="1.0" stroke-linecap="butt" d="M568.85 147.30202L462.85 147.30202L444.86746 147.30202" fill-rule="nonzero"/><path fill="#9e9e9e" d="M446.86746 147.30202C446.86746 146.19745 445.97202 145.30202 444.86746 145.30202C443.76288 145.30202 442.86746 146.19745 442.86746 147.30202C442.86746 148.40659 443.76288 149.30202 444.86746 149.30202C445.97202 149.30202 446.86746 148.40659 446.86746 147.30202" fill-rule="nonzero"/></svg>