<svg version="1.1" viewBox="0.0 0.0 587.0 363.0" fill="none" stroke="none" stroke-linecap="square" stroke-miterlimit="10" width="587" height="363" xmlns:xlink="http://www.w3.org/1999/xlink" xmlns="http://www.w3.org/2000/svg"><path fill="#ffffff" d="M0 0L587.0 0L587.0 363.0L0 363.0L0 0Z" fill-rule="nonzero"/><path fill="#93c47d" d="M293.5 18.15C375.70886 18.15 445.1092 79.24457 455.53186 160.79004L374.51593 171.14502C369.3046 130.37228 334.60443 99.825 293.5 99.825Z" fill-rule="nonzero"/><path fill="#e06666" d="M224.165 329.40497C154.8705 296.92105 117.417946 220.68246 134.058 145.98279C150.69807 71.283104 216.96939 18.15 293.5 18.15L293.5 99.825C255.2347 99.825 222.09903 126.39155 213.779 163.7414C205.45897 201.09123 224.18524 239.21053 258.8325 255.45248Z" fill-rule="nonzero"/><path fill="#f6b26b" d="M455.53186 160.79004C463.086 219.89256 437.8604 278.4199 389.70773 313.51248C341.55502 348.6051 278.11462 354.69553 224.165 329.40497L258.8325 255.45248C285.8073 268.09775 317.5275 265.05255 341.60385 247.50624C365.6802 229.95995 378.293 200.69627 374.51593 171.14502Z" fill-rule="nonzero"/><path stroke="#000000" stroke-width="1.0" stroke-linejoin="round" stroke-linecap="round" d="M374.51593 171.14502C369.3046 130.37228 334.60443 99.825 293.5 99.825L293.5 18.15C375.70886 18.15 445.1092 79.24457 455.53186 160.79004" fill-rule="nonzero"/><path stroke="#000000" stroke-width="1.0" stroke-linejoin="round" stroke-linecap="round" d="M258.8325 255.45248C285.8073 268.09775 317.5275 265.05255 341.60385 247.50624C365.6802 229.95995 378.293 200.69627 374.51593 171.14502L455.53186 160.79004C463.086 219.89256 437.8604 278.4199 389.70773 313.51248C341.55502 348.6051 278.11462 354.69553 224.165 329.40497" fill-rule="nonzero"/><path stroke="#000000" stroke-width="1.0" stroke-linejoin="round" stroke-linecap="round" d="M293.5 99.825C255.2347 99.825 222.09903 126.39155 213.779 163.7414C205.45897 201.09123 224.18524 239.21053 258.8325 255.45248L224.165 329.40497C154.8705 296.92105 117.417946 220.68246 134.058 145.98279C150.69807 71.283104 216.96939 18.15 293.5 18.15" fill-rule="nonzero"/><path fill="#1a1a1a" d="M23.665625 142.25864L21.74375 142.25864L21.74375 135.02426Q20.68125 136.00864 19.259375 136.47739L19.259375 134.72739Q20.009375 134.49301 20.884375 133.80551Q21.775 133.11801 22.103125 132.19614L23.665625 132.19614L23.665625 142.25864ZM26.775 139.68051L28.68125 139.47739Q28.775 140.13364 29.165625 140.50864Q29.571875 140.88364 30.103125 140.88364Q30.696875 140.88364 31.11875 140.39926Q31.540625 139.91489 31.540625 138.93051Q31.540625 138.00864 31.11875 137.55551Q30.7125 137.08676 30.040625 137.08676Q29.2125 137.08676 28.55625 137.82114L27.009375 137.58676L27.99375 132.36801L33.071877 132.36801L33.071877 134.16489L29.446875 134.16489L29.15 135.86801Q29.790625 135.55551 30.4625 135.55551Q31.728125 135.55551 32.61875 136.49301Q33.509377 137.41489 33.509377 138.89926Q33.509377 140.13364 32.790627 141.10239Q31.821875 142.43051 30.0875 142.43051Q28.696875 142.43051 27.821875 141.69614Q26.946875 140.94614 26.775 139.68051ZM41.15 142.25864L38.228127 134.99301L40.24375 134.99301L41.603127 138.69614L42.009377 139.94614Q42.165627 139.46176 42.196877 139.32114Q42.30625 139.00864 42.415627 138.69614L43.790627 134.99301L45.759377 134.99301L42.884377 142.25864L41.15 142.25864ZM56.665627 142.25864L54.74375 142.25864L54.74375 135.02426Q53.68125 136.00864 52.259377 136.47739L52.259377 134.72739Q53.009377 134.49301 53.884377 133.80551Q54.775 133.11801 55.103127 132.19614L56.665627 132.19614L56.665627 142.25864ZM59.775 139.68051L61.68125 139.47739Q61.775 140.13364 62.165627 140.50864Q62.571877 140.88364 63.103127 140.88364Q63.696877 140.88364 64.11875 140.39926Q64.54063 139.91489 64.54063 138.93051Q64.54063 138.00864 64.11875 137.55551Q63.7125 137.08676 63.040627 137.08676Q62.2125 137.08676 61.55625 137.82114L60.009377 137.58676L60.99375 132.36801L66.07188 132.36801L66.07188 134.16489L62.446877 134.16489L62.15 135.86801Q62.790627 135.55551 63.4625 135.55551Q64.72813 135.55551 65.61875 136.49301Q66.50938 137.41489 66.50938 138.89926Q66.50938 140.13364 65.79063 141.10239Q64.82188 142.43051 63.0875 142.43051Q61.696877 142.43051 60.821877 141.69614Q59.946877 140.94614 59.775 139.68051Z" fill-rule="nonzero"/><path fill="#9e9e9e" d="M22.509375 162.25864L22.509375 160.24301L18.415625 160.24301L18.415625 158.55551L22.759375 152.19614L24.36875 152.19614L24.36875 158.55551L25.61875 158.55551L25.61875 160.24301L24.36875 160.24301L24.36875 162.25864L22.509375 162.25864ZM22.509375 158.55551L22.509375 155.13364L20.2125 158.55551L22.509375 158.55551ZM26.68125 159.60239L28.540625 159.36801Q28.61875 160.08676 29.009375 160.46176Q29.4 160.83676 29.9625 160.83676Q30.55625 160.83676 30.9625 160.38364Q31.36875 159.93051 31.36875 159.16489Q31.36875 158.44614 30.978125 158.02426Q30.5875 157.60239 30.025 157.60239Q29.65 157.60239 29.15 157.74301L29.353125 156.18051Q30.134375 156.19614 30.540625 155.83676Q30.9625 155.47739 30.9625 154.88364Q30.9625 154.38364 30.65 154.08676Q30.353125 153.77426 29.853125 153.77426Q29.36875 153.77426 29.009375 154.11801Q28.665625 154.46176 28.5875 155.11801L26.821875 154.82114Q27.009375 153.89926 27.36875 153.36801Q27.74375 152.82114 28.415625 152.50864Q29.0875 152.19614 29.915625 152.19614Q31.321875 152.19614 32.18125 153.10239Q32.884377 153.83676 32.884377 154.75864Q32.884377 156.08676 31.446875 156.86801Q32.30625 157.05551 32.821877 157.69614Q33.3375 158.33676 33.3375 159.24301Q33.3375 160.57114 32.36875 161.50864Q31.4 162.43051 29.978125 162.43051Q28.61875 162.43051 27.7125 161.64926Q26.821875 160.86801 26.68125 159.60239ZM35.15 162.25864L35.15 160.33676L37.071877 160.33676L37.071877 162.25864L35.15 162.25864ZM41.99375 152.19614Q43.446877 152.19614 44.275 153.22739Q45.24375 154.46176 45.24375 157.32114Q45.24375 160.16489 44.259377 161.39926Q43.446877 162.43051 41.99375 162.43051Q40.525 162.43051 39.634377 161.30551Q38.74375 160.18051 38.74375 157.28989Q38.74375 154.46176 39.728127 153.22739Q40.540627 152.19614 41.99375 152.19614ZM41.99375 153.78989Q41.65 153.78989 41.36875 154.00864Q41.103127 154.22739 40.946877 154.80551Q40.74375 155.55551 40.74375 157.32114Q40.74375 159.08676 40.915627 159.74301Q41.103127 160.39926 41.36875 160.61801Q41.65 160.83676 41.99375 160.83676Q42.3375 160.83676 42.603127 160.61801Q42.884377 160.39926 43.040627 159.82114Q43.24375 159.08676 43.24375 157.32114Q43.24375 155.55551 43.05625 154.89926Q42.884377 154.22739 42.603127 154.00864Q42.3375 153.78989 41.99375 153.78989ZM46.759377 154.71176Q46.759377 153.36801 47.353127 152.72739Q47.946877 152.07114 48.946877 152.07114Q49.99375 152.07114 50.5875 152.71176Q51.18125 153.35239 51.18125 154.71176Q51.18125 156.05551 50.5875 156.71176Q49.99375 157.35239 48.99375 157.35239Q47.946877 157.35239 47.353127 156.71176Q46.759377 156.07114 46.759377 154.71176ZM48.259377 154.69614Q48.259377 155.68051 48.478127 156.00864Q48.65 156.25864 48.946877 156.25864Q49.259377 156.25864 49.43125 156.00864Q49.65 155.68051 49.65 154.69614Q49.65 153.72739 49.43125 153.39926Q49.259377 153.13364 48.946877 153.13364Q48.65 153.13364 48.478127 153.38364Q48.259377 153.72739 48.259377 154.69614ZM50.415627 162.64926L48.99375 162.64926L54.3375 152.07114L55.7125 152.07114L50.415627 162.64926ZM53.525 160.00864Q53.525 158.66489 54.103127 158.02426Q54.696877 157.36801 55.728127 157.36801Q56.759377 157.36801 57.353127 158.02426Q57.946877 158.66489 57.946877 160.00864Q57.946877 161.36801 57.353127 162.02426Q56.759377 162.66489 55.74375 162.66489Q54.696877 162.66489 54.103127 162.02426Q53.525 161.36801 53.525 160.00864ZM55.009377 160.00864Q55.009377 160.97739 55.24375 161.30551Q55.415627 161.55551 55.7125 161.55551Q56.025 161.55551 56.18125 161.32114Q56.415627 160.97739 56.415627 160.00864Q56.415627 159.02426 56.196877 158.69614Q56.025 158.44614 55.7125 158.44614Q55.4 158.44614 55.24375 158.69614Q55.009377 159.02426 55.009377 160.00864Z" fill-rule="nonzero"/><path stroke="#757575" stroke-width="1.0" stroke-linecap="butt" d="M18.15 147.75864L124.15 147.75864L142.0301 147.75864" fill-rule="nonzero"/><path fill="#9e9e9e" d="M144.0301 147.75864C144.0301 146.65407 143.13467 145.75864 142.0301 145.75864C140.92554 145.75864 140.0301 146.65407 140.0301 147.75864C140.0301 148.8632 140.92554 149.75864 142.0301 149.75864C143.13467 149.75864 144.0301 148.8632 144.0301 147.75864" fill-rule="nonzero"/><path fill="#1a1a1a" d="M536.475 56.942818L538.3812 56.739693Q538.475 57.395943 538.8656 57.770943Q539.27185 58.145943 539.8031 58.145943Q540.39685 58.145943 540.8187 57.661568Q541.2406 57.177193 541.2406 56.192818Q541.2406 55.270943 540.8187 54.817818Q540.4125 54.349068 539.7406 54.349068Q538.9125 54.349068 538.2562 55.083443L536.70935 54.849068L537.6937 49.630318L542.77185 49.630318L542.77185 51.427193L539.14685 51.427193L538.85 53.130318Q539.4906 52.817818 540.1625 52.817818Q541.4281 52.817818 542.3187 53.755318Q543.20935 54.677193 543.20935 56.161568Q543.20935 57.395943 542.4906 58.364693Q541.52185 59.692818 539.7875 59.692818Q538.39685 59.692818 537.52185 58.958443Q536.64685 58.208443 536.475 56.942818ZM550.85 59.520943L547.9281 52.255318L549.9437 52.255318L551.3031 55.958443L551.70935 57.208443Q551.8656 56.724068 551.89685 56.583443Q552.0062 56.270943 552.1156 55.958443L553.4906 52.255318L555.45935 52.255318L552.58435 59.520943L550.85 59.520943ZM561.475 56.942818L563.3812 56.739693Q563.475 57.395943 563.8656 57.770943Q564.27185 58.145943 564.8031 58.145943Q565.39685 58.145943 565.8187 57.661568Q566.2406 57.177193 566.2406 56.192818Q566.2406 55.270943 565.8187 54.817818Q565.4125 54.349068 564.7406 54.349068Q563.9125 54.349068 563.2562 55.083443L561.70935 54.849068L562.6937 49.630318L567.77185 49.630318L567.77185 51.427193L564.14685 51.427193L563.85 53.130318Q564.4906 52.817818 565.1625 52.817818Q566.4281 52.817818 567.3187 53.755318Q568.20935 54.677193 568.20935 56.161568Q568.20935 57.395943 567.4906 58.364693Q566.52185 59.692818 564.7875 59.692818Q563.39685 59.692818 562.52185 58.958443Q561.64685 58.208443 561.475 56.942818Z" fill-rule="nonzero"/><path fill="#9e9e9e" d="M537.9281 77.73969L537.9281 79.52094L531.1937 79.52094Q531.3031 78.50532 531.85 77.59907Q532.39685 76.69282 534.02185 75.19282Q535.3187 73.98969 535.6156 73.55219Q536.0062 72.95844 536.0062 72.38032Q536.0062 71.73969 535.6625 71.39594Q535.3187 71.05219 534.70935 71.05219Q534.1 71.05219 533.7406 71.41157Q533.39685 71.77094 533.33435 72.61469L531.4281 72.42719Q531.6 70.83344 532.4906 70.14594Q533.39685 69.45844 534.7562 69.45844Q536.2406 69.45844 537.08435 70.25532Q537.9281 71.05219 537.9281 72.23969Q537.9281 72.92719 537.6781 73.53657Q537.4437 74.14594 536.9281 74.81782Q536.5687 75.25532 535.6625 76.09907Q534.7562 76.92719 534.5062 77.20844Q534.27185 77.47407 534.1156 77.73969L537.9281 77.73969ZM539.3812 76.86469L541.2406 76.63032Q541.3187 77.34907 541.70935 77.72407Q542.1 78.09907 542.6625 78.09907Q543.2562 78.09907 543.6625 77.64594Q544.0687 77.19282 544.0687 76.42719Q544.0687 75.70844 543.6781 75.28657Q543.2875 74.86469 542.725 74.86469Q542.35 74.86469 541.85 75.00532L542.0531 73.44282Q542.83435 73.45844 543.2406 73.09907Q543.6625 72.73969 543.6625 72.14594Q543.6625 71.64594 543.35 71.34907Q543.0531 71.03657 542.5531 71.03657Q542.0687 71.03657 541.70935 71.38032Q541.3656 71.72407 541.2875 72.38032L539.52185 72.08344Q539.70935 71.16157 540.0687 70.63032Q540.4437 70.08344 541.1156 69.77094Q541.7875 69.45844 542.6156 69.45844Q544.02185 69.45844 544.8812 70.36469Q545.58435 71.09907 545.58435 72.02094Q545.58435 73.34907 544.14685 74.13032Q545.0062 74.31782 545.52185 74.95844Q546.0375 75.59907 546.0375 76.50532Q546.0375 77.83344 545.0687 78.77094Q544.1 79.69282 542.6781 79.69282Q541.3187 79.69282 540.4125 78.91157Q539.52185 78.13032 539.3812 76.86469ZM547.85 79.52094L547.85 77.59907L549.77185 77.59907L549.77185 79.52094L547.85 79.52094ZM554.6937 69.45844Q556.14685 69.45844 556.975 70.48969Q557.9437 71.72407 557.9437 74.58344Q557.9437 77.42719 556.95935 78.66157Q556.14685 79.69282 554.6937 79.69282Q553.225 79.69282 552.33435 78.56782Q551.4437 77.44282 551.4437 74.55219Q551.4437 71.72407 552.4281 70.48969Q553.2406 69.45844 554.6937 69.45844ZM554.6937 71.05219Q554.35 71.05219 554.0687 71.27094Q553.8031 71.48969 553.64685 72.06782Q553.4437 72.81782 553.4437 74.58344Q553.4437 76.34907 553.6156 77.00532Q553.8031 77.66157 554.0687 77.88032Q554.35 78.09907 554.6937 78.09907Q555.0375 78.09907 555.3031 77.88032Q555.58435 77.66157 555.7406 77.08344Q555.9437 76.34907 555.9437 74.58344Q555.9437 72.81782 555.7562 72.16157Q555.58435 71.48969 555.3031 71.27094Q555.0375 71.05219 554.6937 71.05219ZM559.45935 71.97407Q559.45935 70.63032 560.0531 69.98969Q560.64685 69.33344 561.64685 69.33344Q562.6937 69.33344 563.2875 69.97407Q563.8812 70.61469 563.8812 71.97407Q563.8812 73.31782 563.2875 73.97407Q562.6937 74.61469 561.6937 74.61469Q560.64685 74.61469 560.0531 73.97407Q559.45935 73.33344 559.45935 71.97407ZM560.95935 71.95844Q560.95935 72.94282 561.1781 73.27094Q561.35 73.52094 561.64685 73.52094Q561.95935 73.52094 562.1312 73.27094Q562.35 72.94282 562.35 71.95844Q562.35 70.98969 562.1312 70.66157Q561.95935 70.39594 561.64685 70.39594Q561.35 70.39594 561.1781 70.64594Q560.95935 70.98969 560.95935 71.95844ZM563.1156 79.91157L561.6937 79.91157L567.0375 69.33344L568.4125 69.33344L563.1156 79.91157ZM566.225 77.27094Q566.225 75.92719 566.8031 75.28657Q567.39685 74.63032 568.4281 74.63032Q569.45935 74.63032 570.0531 75.28657Q570.64685 75.92719 570.64685 77.27094Q570.64685 78.63032 570.0531 79.28657Q569.45935 79.92719 568.4437 79.92719Q567.39685 79.92719 566.8031 79.28657Q566.225 78.63032 566.225 77.27094ZM567.70935 77.27094Q567.70935 78.23969 567.9437 78.56782Q568.1156 78.81782 568.4125 78.81782Q568.725 78.81782 568.8812 78.58344Q569.1156 78.23969 569.1156 77.27094Q569.1156 76.28657 568.89685 75.95844Q568.725 75.70844 568.4125 75.70844Q568.1 75.70844 567.9437 75.95844Q567.70935 76.28657 567.70935 77.27094Z" fill-rule="nonzero"/><path stroke="#757575" stroke-width="1.0" stroke-linecap="butt" d="M568.85 65.02094L462.85 65.02094L396.03897 65.02094" fill-rule="nonzero"/><path fill="#9e9e9e" d="M398.03897 65.02094C398.03897 63.916374 397.14352 63.020943 396.03897 63.020943C394.9344 63.020943 394.03897 63.916374 394.03897 65.02094C394.03897 66.12551 394.9344 67.02094 396.03897 67.02094C397.14352 67.02094 398.03897 66.12551 398.03897 65.02094" fill-rule="nonzero"/><path fill="#1a1a1a" d="M525.3656 301.41187L523.4437 301.41187L523.4437 294.1775Q522.3812 295.16187 520.95935 295.6306L520.95935 293.8806Q521.70935 293.64624 522.58435 292.95874Q523.475 292.27124 523.8031 291.34937L525.3656 291.34937L525.3656 301.41187ZM531.6937 291.34937Q533.14685 291.34937 533.975 292.3806Q534.9437 293.615 534.9437 296.47437Q534.9437 299.3181 533.95935 300.5525Q533.14685 301.58374 531.6937 301.58374Q530.225 301.58374 529.33435 300.45874Q528.4437 299.33374 528.4437 296.4431Q528.4437 293.615 529.4281 292.3806Q530.2406 291.34937 531.6937 291.34937ZM531.6937 292.9431Q531.35 292.9431 531.0687 293.16187Q530.8031 293.3806 530.64685 293.95874Q530.4437 294.70874 530.4437 296.47437Q530.4437 298.24 530.6156 298.89624Q530.8031 299.5525 531.0687 299.77124Q531.35 299.99 531.6937 299.99Q532.0375 299.99 532.3031 299.77124Q532.58435 299.5525 532.7406 298.97437Q532.9437 298.24 532.9437 296.47437Q532.9437 294.70874 532.7562 294.0525Q532.58435 293.3806 532.3031 293.16187Q532.0375 292.9431 531.6937 292.9431ZM542.85 301.41187L539.9281 294.14624L541.9437 294.14624L543.3031 297.84937L543.70935 299.09937Q543.8656 298.615 543.89685 298.47437Q544.0062 298.16187 544.1156 297.84937L545.4906 294.14624L547.45935 294.14624L544.58435 301.41187L542.85 301.41187ZM558.3656 301.41187L556.4437 301.41187L556.4437 294.1775Q555.3812 295.16187 553.95935 295.6306L553.95935 293.8806Q554.70935 293.64624 555.58435 292.95874Q556.475 292.27124 556.8031 291.34937L558.3656 291.34937L558.3656 301.41187ZM564.6937 291.34937Q566.14685 291.34937 566.975 292.3806Q567.9437 293.615 567.9437 296.47437Q567.9437 299.3181 566.95935 300.5525Q566.14685 301.58374 564.6937 301.58374Q563.225 301.58374 562.33435 300.45874Q561.4437 299.33374 561.4437 296.4431Q561.4437 293.615 562.4281 292.3806Q563.2406 291.34937 564.6937 291.34937ZM564.6937 292.9431Q564.35 292.9431 564.0687 293.16187Q563.8031 293.3806 563.64685 293.95874Q563.4437 294.70874 563.4437 296.47437Q563.4437 298.24 563.6156 298.89624Q563.8031 299.5525 564.0687 299.77124Q564.35 299.99 564.6937 299.99Q565.0375 299.99 565.3031 299.77124Q565.58435 299.5525 565.7406 298.97437Q565.9437 298.24 565.9437 296.47437Q565.9437 294.70874 565.7562 294.0525Q565.58435 293.3806 565.3031 293.16187Q565.0375 292.9431 564.6937 292.9431Z" fill-rule="nonzero"/><path fill="#9e9e9e" d="M531.3812 318.7556L533.2406 318.52124Q533.3187 319.24 533.70935 319.615Q534.1 319.99 534.6625 319.99Q535.2562 319.99 535.6625 319.53687Q536.0687 319.08374 536.0687 318.3181Q536.0687 317.59937 535.6781 317.1775Q535.2875 316.7556 534.725 316.7556Q534.35 316.7556 533.85 316.89624L534.0531 315.33374Q534.83435 315.34937 535.2406 314.99Q535.6625 314.6306 535.6625 314.03687Q535.6625 313.53687 535.35 313.24Q535.0531 312.9275 534.5531 312.9275Q534.0687 312.9275 533.70935 313.27124Q533.3656 313.615 533.2875 314.27124L531.52185 313.97437Q531.70935 313.0525 532.0687 312.52124Q532.4437 311.97437 533.1156 311.66187Q533.7875 311.34937 534.6156 311.34937Q536.02185 311.34937 536.8812 312.2556Q537.58435 312.99 537.58435 313.91187Q537.58435 315.24 536.14685 316.02124Q537.0062 316.20874 537.52185 316.84937Q538.0375 317.49 538.0375 318.39624Q538.0375 319.72437 537.0687 320.66187Q536.1 321.58374 534.6781 321.58374Q533.3187 321.58374 532.4125 320.8025Q531.52185 320.02124 531.3812 318.7556ZM543.20935 321.41187L543.20935 319.39624L539.1156 319.39624L539.1156 317.70874L543.45935 311.34937L545.0687 311.34937L545.0687 317.70874L546.3187 317.70874L546.3187 319.39624L545.0687 319.39624L545.0687 321.41187L543.20935 321.41187ZM543.20935 317.70874L543.20935 314.28687L540.9125 317.70874L543.20935 317.70874ZM547.85 321.41187L547.85 319.49L549.77185 319.49L549.77185 321.41187L547.85 321.41187ZM554.6937 311.34937Q556.14685 311.34937 556.975 312.3806Q557.9437 313.615 557.9437 316.47437Q557.9437 319.3181 556.95935 320.5525Q556.14685 321.58374 554.6937 321.58374Q553.225 321.58374 552.33435 320.45874Q551.4437 319.33374 551.4437 316.4431Q551.4437 313.615 552.4281 312.3806Q553.2406 311.34937 554.6937 311.34937ZM554.6937 312.9431Q554.35 312.9431 554.0687 313.16187Q553.8031 313.3806 553.64685 313.95874Q553.4437 314.70874 553.4437 316.47437Q553.4437 318.24 553.6156 318.89624Q553.8031 319.5525 554.0687 319.77124Q554.35 319.99 554.6937 319.99Q555.0375 319.99 555.3031 319.77124Q555.58435 319.5525 555.7406 318.97437Q555.9437 318.24 555.9437 316.47437Q555.9437 314.70874 555.7562 314.0525Q555.58435 313.3806 555.3031 313.16187Q555.0375 312.9431 554.6937 312.9431ZM559.45935 313.865Q559.45935 312.52124 560.0531 311.8806Q560.64685 311.22437 561.64685 311.22437Q562.6937 311.22437 563.2875 311.865Q563.8812 312.5056 563.8812 313.865Q563.8812 315.20874 563.2875 315.865Q562.6937 316.5056 561.6937 316.5056Q560.64685 316.5056 560.0531 315.865Q559.45935 315.22437 559.45935 313.865ZM560.95935 313.84937Q560.95935 314.83374 561.1781 315.16187Q561.35 315.41187 561.64685 315.41187Q561.95935 315.41187 562.1312 315.16187Q562.35 314.83374 562.35 313.84937Q562.35 312.8806 562.1312 312.5525Q561.95935 312.28687 561.64685 312.28687Q561.35 312.28687 561.1781 312.53687Q560.95935 312.8806 560.95935 313.84937ZM563.1156 321.8025L561.6937 321.8025L567.0375 311.22437L568.4125 311.22437L563.1156 321.8025ZM566.225 319.16187Q566.225 317.8181 566.8031 317.1775Q567.39685 316.52124 568.4281 316.52124Q569.45935 316.52124 570.0531 317.1775Q570.64685 317.8181 570.64685 319.16187Q570.64685 320.52124 570.0531 321.1775Q569.45935 321.8181 568.4437 321.8181Q567.39685 321.8181 566.8031 321.1775Q566.225 320.52124 566.225 319.16187ZM567.70935 319.16187Q567.70935 320.1306 567.9437 320.45874Q568.1156 320.70874 568.4125 320.70874Q568.725 320.70874 568.8812 320.47437Q569.1156 320.1306 569.1156 319.16187Q569.1156 318.1775 568.89685 317.84937Q568.725 317.59937 568.4125 317.59937Q568.1 317.59937 567.9437 317.84937Q567.70935 318.1775 567.70935 319.16187Z" fill-rule="nonzero"/><path stroke="#757575" stroke-width="1.0" stroke-linecap="butt" d="M568.85 306.91187L462.85 306.91187L384.89734 306.91187" fill-rule="nonzero"/><path fill="#9e9e9e" d="M386.89734 306.91187C386.89734 305.80728 386.0019 304.91187 384.89734 304.91187C383.79276 304.91187 382.89734 305.80728 382.89734 306.91187C382.89734 308.01642 383.79276 308.91187 384.89734 308.91187C386.0019 308.91187 386.89734 308.01642 386.89734 306.91187" fill-rule="nonzero"/></svg>