<svg version="1.1" viewBox="0.0 0.0 539.0 354.0" fill="none" stroke="none" stroke-linecap="square" stroke-miterlimit="10" width="539" height="354" xmlns:xlink="http://www.w3.org/1999/xlink" xmlns="http://www.w3.org/2000/svg"><path fill="#ffffff" d="M0 0L539.0 0L539.0 354.0L0 354.0L0 0Z" fill-rule="nonzero"/><path stroke="#333333" stroke-width="1.0" stroke-linecap="butt" d="M48.5 316.5L521.5 316.5" fill-rule="nonzero"/><path stroke="#cccccc" stroke-width="1.0" stroke-linecap="butt" d="M48.5 267.5L521.5 267.5" fill-rule="nonzero"/><path stroke="#cccccc" stroke-width="1.0" stroke-linecap="butt" d="M48.5 219.5L521.5 219.5" fill-rule="nonzero"/><path stroke="#cccccc" stroke-width="1.0" stroke-linecap="butt" d="M48.5 170.5L521.5 170.5" fill-rule="nonzero"/><path stroke="#cccccc" stroke-width="1.0" stroke-linecap="butt" d="M48.5 121.5L521.5 121.5" fill-rule="nonzero"/><path stroke="#cccccc" stroke-width="1.0" stroke-linecap="butt" d="M48.5 73.5L521.5 73.5" fill-rule="nonzero"/><path stroke="#cccccc" stroke-width="1.0" stroke-linecap="butt" d="M48.5 24.5L521.5 24.5" fill-rule="nonzero"/><clipPath id="id_0"><path d="M48.7 24.7L521.3 24.7L521.3 316.3L48.7 316.3L48.7 24.7Z" clip-rule="nonzero"/></clipPath><path stroke="#000000" stroke-width="2.0" stroke-linecap="butt" clip-path="url(#id_0)" d="M113.0 316.0L71.0 316.0L71.0 206.0C71.0 204.89543 71.89543 204.0 73.0 204.0L111.0 204.0C112.10457 204.0 113.0 204.89543 113.0 206.0Z" fill-rule="nonzero"/><path fill="#fbbc04" clip-path="url(#id_0)" d="M113.0 316.0L71.0 316.0L71.0 206.0C71.0 204.89543 71.89543 204.0 73.0 204.0L111.0 204.0C112.10457 204.0 113.0 204.89543 113.0 206.0Z" fill-rule="nonzero"/><path stroke="#000000" stroke-width="2.0" stroke-linecap="butt" clip-path="url(#id_0)" d="M177.0 316.0L135.0 316.0L135.0 69.0C135.0 67.89543 135.89543 67.0 137.0 67.0L175.0 67.0C176.10457 67.0 177.0 67.89543 177.0 69.0Z" fill-rule="nonzero"/><path fill="#fbbc04" clip-path="url(#id_0)" d="M177.0 316.0L135.0 316.0L135.0 69.0C135.0 67.89543 135.89543 67.0 137.0 67.0L175.0 67.0C176.10457 67.0 177.0 67.89543 177.0 69.0Z" fill-rule="nonzero"/><path stroke="#000000" stroke-width="2.0" stroke-linecap="butt" clip-path="url(#id_0)" d="M242.0 316.0L200.0 316.0L200.0 85.0C200.0 83.89543 200.89543 83.0 202.0 83.0L240.0 83.0C241.10457 83.0 242.0 83.89543 242.0 85.0Z" fill-rule="nonzero"/><path fill="#fbbc04" clip-path="url(#id_0)" d="M242.0 316.0L200.0 316.0L200.0 85.0C200.0 83.89543 200.89543 83.0 202.0 83.0L240.0 83.0C241.10457 83.0 242.0 83.89543 242.0 85.0Z" fill-rule="nonzero"/><path stroke="#000000" stroke-width="2.0" stroke-linecap="butt" clip-path="url(#id_0)" d="M306.0 316.0L264.0 316.0L264.0 181.0C264.0 179.89543 264.89542 179.0 266.0 179.0L304.0 179.0C305.10458 179.0 306.0 179.89543 306.0 181.0Z" fill-rule="nonzero"/><path fill="#fbbc04" clip-path="url(#id_0)" d="M306.0 316.0L264.0 316.0L264.0 181.0C264.0 179.89543 264.89542 179.0 266.0 179.0L304.0 179.0C305.10458 179.0 306.0 179.89543 306.0 181.0Z" fill-rule="nonzero"/><path stroke="#000000" stroke-width="2.0" stroke-linecap="butt" clip-path="url(#id_0)" d="M370.0 316.0L328.0 316.0L328.0 230.0C328.0 228.89543 328.89542 228.0 330.0 228.0L368.0 228.0C369.10458 228.0 370.0 228.89543 370.0 230.0Z" fill-rule="nonzero"/><path fill="#fbbc04" clip-path="url(#id_0)" d="M370.0 316.0L328.0 316.0L328.0 230.0C328.0 228.89543 328.89542 228.0 330.0 228.0L368.0 228.0C369.10458 228.0 370.0 228.89543 370.0 230.0Z" fill-rule="nonzero"/><path stroke="#000000" stroke-width="2.0" stroke-linecap="butt" clip-path="url(#id_0)" d="M435.0 316.0L393.0 316.0L393.0 229.0C393.0 227.89543 393.89542 227.0 395.0 227.0L433.0 227.0C434.10458 227.0 435.0 227.89543 435.0 229.0Z" fill-rule="nonzero"/><path fill="#fbbc04" clip-path="url(#id_0)" d="M435.0 316.0L393.0 316.0L393.0 229.0C393.0 227.89543 393.89542 227.0 395.0 227.0L433.0 227.0C434.10458 227.0 435.0 227.89543 435.0 229.0Z" fill-rule="nonzero"/><path stroke="#000000" stroke-width="2.0" stroke-linecap="butt" clip-path="url(#id_0)" d="M499.0 316.0L457.0 316.0L457.0 256.0C457.0 254.89543 457.89542 254.0 459.0 254.0L497.0 254.0C498.10458 254.0 499.0 254.89543 499.0 256.0Z" fill-rule="nonzero"/><path fill="#fbbc04" clip-path="url(#id_0)" d="M499.0 316.0L457.0 316.0L457.0 256.0C457.0 254.89543 457.89542 254.0 459.0 254.0L497.0 254.0C498.10458 254.0 499.0 254.89543 499.0 256.0Z" fill-rule="nonzero"/><path fill="#000000" d="M32.403126 313.76874Q32.403126 312.84686 32.85625 312.20624Q33.325 311.5656 34.2 311.5656Q35.0125 311.5656 35.54375 312.14374Q36.075 312.72186 36.075 313.83124Q36.075 314.925 35.528126 315.51874Q34.996876 316.09686 34.215626 316.09686Q33.434376 316.09686 32.91875 315.51874Q32.403126 314.9406 32.403126 313.76874ZM34.23125 312.28436Q33.840626 312.28436 33.575 312.6281Q33.325 312.97186 33.325 313.8781Q33.325 314.70624 33.575 315.05Q33.840626 315.3781 34.23125 315.3781Q34.6375 315.3781 34.8875 315.03436Q35.153126 314.6906 35.153126 313.8Q35.153126 312.95624 34.8875 312.6281Q34.621876 312.28436 34.23125 312.28436ZM34.23125 320.6125L38.934376 311.5656L39.79375 311.5656L35.10625 320.6125L34.23125 320.6125ZM37.95 318.28436Q37.95 317.3625 38.403126 316.72186Q38.871876 316.08124 39.7625 316.08124Q40.575 316.08124 41.10625 316.65936Q41.6375 317.22186 41.6375 318.34686Q41.6375 319.4406 41.090626 320.03436Q40.559376 320.6125 39.7625 320.6125Q38.996876 320.6125 38.465626 320.03436Q37.95 319.45624 37.95 318.28436ZM39.79375 316.8Q39.3875 316.8 39.121876 317.14374Q38.871876 317.4875 38.871876 318.39374Q38.871876 319.20624 39.1375 319.55Q39.403126 319.89374 39.79375 319.89374Q40.184376 319.89374 40.45 319.55Q40.715626 319.20624 40.715626 318.3Q40.715626 317.47186 40.45 317.14374Q40.184376 316.8 39.79375 316.8Z" fill-rule="nonzero"/><path fill="#000000" d="M25.2 269.45L26.309376 269.35626Q26.434376 270.16876 26.871876 270.575Q27.325 270.98126 27.965626 270.98126Q28.715626 270.98126 29.246876 270.40314Q29.778126 269.825 29.778126 268.8875Q29.778126 267.98126 29.2625 267.46564Q28.7625 266.9344 27.934376 266.9344Q27.434376 266.9344 27.0125 267.16876Q26.60625 267.40314 26.371876 267.7625L25.3875 267.6375L26.215626 263.23126L30.496876 263.23126L30.496876 264.23126L27.059376 264.23126L26.60625 266.54376Q27.371876 265.9969 28.215626 265.9969Q29.340626 265.9969 30.10625 266.77814Q30.8875 267.5594 30.8875 268.79376Q30.8875 269.95 30.215626 270.8094Q29.3875 271.84064 27.965626 271.84064Q26.79375 271.84064 26.04375 271.1844Q25.309376 270.52814 25.2 269.45ZM32.403126 265.16876Q32.403126 264.2469 32.85625 263.60626Q33.325 262.96564 34.2 262.96564Q35.0125 262.96564 35.54375 263.54376Q36.075 264.1219 36.075 265.23126Q36.075 266.325 35.528126 266.91876Q34.996876 267.4969 34.215626 267.4969Q33.434376 267.4969 32.91875 266.91876Q32.403126 266.34064 32.403126 265.16876ZM34.23125 263.6844Q33.840626 263.6844 33.575 264.02814Q33.325 264.3719 33.325 265.27814Q33.325 266.10626 33.575 266.45Q33.840626 266.77814 34.23125 266.77814Q34.6375 266.77814 34.8875 266.4344Q35.153126 266.09064 35.153126 265.2Q35.153126 264.35626 34.8875 264.02814Q34.621876 263.6844 34.23125 263.6844ZM34.23125 272.0125L38.934376 262.96564L39.79375 262.96564L35.10625 272.0125L34.23125 272.0125ZM37.95 269.6844Q37.95 268.7625 38.403126 268.1219Q38.871876 267.48126 39.7625 267.48126Q40.575 267.48126 41.10625 268.0594Q41.6375 268.6219 41.6375 269.7469Q41.6375 270.84064 41.090626 271.4344Q40.559376 272.0125 39.7625 272.0125Q38.996876 272.0125 38.465626 271.4344Q37.95 270.85626 37.95 269.6844ZM39.79375 268.2Q39.3875 268.2 39.121876 268.54376Q38.871876 268.8875 38.871876 269.79376Q38.871876 270.60626 39.1375 270.95Q39.403126 271.29376 39.79375 271.29376Q40.184376 271.29376 40.45 270.95Q40.715626 270.60626 40.715626 269.7Q40.715626 268.8719 40.45 268.54376Q40.184376 268.2 39.79375 268.2Z" fill-rule="nonzero"/><path fill="#000000" d="M22.16875 223.1L21.121876 223.1L21.121876 216.38126Q20.73125 216.74063 20.10625 217.11563Q19.496876 217.475 19.0125 217.64688L19.0125 216.63126Q19.8875 216.20938 20.54375 215.63126Q21.215626 215.0375 21.496876 214.475L22.16875 214.475L22.16875 223.1ZM25.2 218.86563Q25.2 217.33438 25.5125 216.4125Q25.825 215.475 26.434376 214.975Q27.059376 214.475 27.996876 214.475Q28.684376 214.475 29.2 214.75626Q29.73125 215.0375 30.075 215.56876Q30.41875 216.08438 30.60625 216.83438Q30.79375 217.58438 30.79375 218.86563Q30.79375 220.38126 30.48125 221.30313Q30.184376 222.225 29.559376 222.74063Q28.95 223.24063 27.996876 223.24063Q26.7625 223.24063 26.04375 222.35Q25.2 221.2875 25.2 218.86563ZM26.278126 218.86563Q26.278126 220.975 26.778126 221.67813Q27.278126 222.38126 27.996876 222.38126Q28.73125 222.38126 29.215626 221.67813Q29.715626 220.975 29.715626 218.86563Q29.715626 216.74063 29.215626 216.05313Q28.73125 215.35 27.98125 215.35Q27.2625 215.35 26.825 215.95938Q26.278126 216.74063 26.278126 218.86563ZM32.403126 216.56876Q32.403126 215.64688 32.85625 215.00626Q33.325 214.36563 34.2 214.36563Q35.0125 214.36563 35.54375 214.94376Q36.075 215.52188 36.075 216.63126Q36.075 217.725 35.528126 218.31876Q34.996876 218.89688 34.215626 218.89688Q33.434376 218.89688 32.91875 218.31876Q32.403126 217.74063 32.403126 216.56876ZM34.23125 215.08438Q33.840626 215.08438 33.575 215.42813Q33.325 215.77188 33.325 216.67813Q33.325 217.50626 33.575 217.85Q33.840626 218.17813 34.23125 218.17813Q34.6375 218.17813 34.8875 217.83438Q35.153126 217.49063 35.153126 216.6Q35.153126 215.75626 34.8875 215.42813Q34.621876 215.08438 34.23125 215.08438ZM34.23125 223.4125L38.934376 214.36563L39.79375 214.36563L35.10625 223.4125L34.23125 223.4125ZM37.95 221.08438Q37.95 220.1625 38.403126 219.52188Q38.871876 218.88126 39.7625 218.88126Q40.575 218.88126 41.10625 219.45938Q41.6375 220.02188 41.6375 221.14688Q41.6375 222.24063 41.090626 222.83438Q40.559376 223.4125 39.7625 223.4125Q38.996876 223.4125 38.465626 222.83438Q37.95 222.25626 37.95 221.08438ZM39.79375 219.6Q39.3875 219.6 39.121876 219.94376Q38.871876 220.2875 38.871876 221.19376Q38.871876 222.00626 39.1375 222.35Q39.403126 222.69376 39.79375 222.69376Q40.184376 222.69376 40.45 222.35Q40.715626 222.00626 40.715626 221.1Q40.715626 220.27188 40.45 219.94376Q40.184376 219.6 39.79375 219.6Z" fill-rule="nonzero"/><path fill="#000000" d="M22.16875 174.5L21.121876 174.5L21.121876 167.78125Q20.73125 168.14062 20.10625 168.51562Q19.496876 168.875 19.0125 169.04688L19.0125 168.03125Q19.8875 167.60938 20.54375 167.03125Q21.215626 166.4375 21.496876 165.875L22.16875 165.875L22.16875 174.5ZM25.2 172.25L26.309376 172.15625Q26.434376 172.96875 26.871876 173.375Q27.325 173.78125 27.965626 173.78125Q28.715626 173.78125 29.246876 173.20312Q29.778126 172.625 29.778126 171.6875Q29.778126 170.78125 29.2625 170.26562Q28.7625 169.73438 27.934376 169.73438Q27.434376 169.73438 27.0125 169.96875Q26.60625 170.20312 26.371876 170.5625L25.3875 170.4375L26.215626 166.03125L30.496876 166.03125L30.496876 167.03125L27.059376 167.03125L26.60625 169.34375Q27.371876 168.79688 28.215626 168.79688Q29.340626 168.79688 30.10625 169.57812Q30.8875 170.35938 30.8875 171.59375Q30.8875 172.75 30.215626 173.60938Q29.3875 174.64062 27.965626 174.64062Q26.79375 174.64062 26.04375 173.98438Q25.309376 173.32812 25.2 172.25ZM32.403126 167.96875Q32.403126 167.04688 32.85625 166.40625Q33.325 165.76562 34.2 165.76562Q35.0125 165.76562 35.54375 166.34375Q36.075 166.92188 36.075 168.03125Q36.075 169.125 35.528126 169.71875Q34.996876 170.29688 34.215626 170.29688Q33.434376 170.29688 32.91875 169.71875Q32.403126 169.14062 32.403126 167.96875ZM34.23125 166.48438Q33.840626 166.48438 33.575 166.82812Q33.325 167.17188 33.325 168.07812Q33.325 168.90625 33.575 169.25Q33.840626 169.57812 34.23125 169.57812Q34.6375 169.57812 34.8875 169.23438Q35.153126 168.89062 35.153126 168.0Q35.153126 167.15625 34.8875 166.82812Q34.621876 166.48438 34.23125 166.48438ZM34.23125 174.8125L38.934376 165.76562L39.79375 165.76562L35.10625 174.8125L34.23125 174.8125ZM37.95 172.48438Q37.95 171.5625 38.403126 170.92188Q38.871876 170.28125 39.7625 170.28125Q40.575 170.28125 41.10625 170.85938Q41.6375 171.42188 41.6375 172.54688Q41.6375 173.64062 41.090626 174.23438Q40.559376 174.8125 39.7625 174.8125Q38.996876 174.8125 38.465626 174.23438Q37.95 173.65625 37.95 172.48438ZM39.79375 171.0Q39.3875 171.0 39.121876 171.34375Q38.871876 171.6875 38.871876 172.59375Q38.871876 173.40625 39.1375 173.75Q39.403126 174.09375 39.79375 174.09375Q40.184376 174.09375 40.45 173.75Q40.715626 173.40625 40.715626 172.5Q40.715626 171.67188 40.45 171.34375Q40.184376 171.0 39.79375 171.0Z" fill-rule="nonzero"/><path fill="#000000" d="M23.746876 124.88438L23.746876 125.9L18.059376 125.9Q18.059376 125.525 18.184376 125.16563Q18.403126 124.5875 18.871876 124.025Q19.35625 123.4625 20.2625 122.72813Q21.66875 121.57188 22.153126 120.9Q22.653126 120.22813 22.653126 119.63438Q22.653126 119.00938 22.2 118.5875Q21.746876 118.15 21.028126 118.15Q20.2625 118.15 19.809376 118.60313Q19.35625 119.05625 19.340626 119.86875L18.2625 119.75938Q18.371876 118.54063 19.090626 117.91563Q19.825 117.275 21.059376 117.275Q22.29375 117.275 23.0125 117.9625Q23.73125 118.65 23.73125 119.66563Q23.73125 120.18125 23.5125 120.68125Q23.309376 121.16563 22.809376 121.72813Q22.325 122.275 21.2 123.22813Q20.246876 124.025 19.965626 124.32188Q19.7 124.60313 19.528126 124.88438L23.746876 124.88438ZM25.2 121.66563Q25.2 120.13438 25.5125 119.2125Q25.825 118.275 26.434376 117.775Q27.059376 117.275 27.996876 117.275Q28.684376 117.275 29.2 117.55625Q29.73125 117.8375 30.075 118.36875Q30.41875 118.88438 30.60625 119.63438Q30.79375 120.38438 30.79375 121.66563Q30.79375 123.18125 30.48125 124.10313Q30.184376 125.025 29.559376 125.54063Q28.95 126.04063 27.996876 126.04063Q26.7625 126.04063 26.04375 125.15Q25.2 124.0875 25.2 121.66563ZM26.278126 121.66563Q26.278126 123.775 26.778126 124.47813Q27.278126 125.18125 27.996876 125.18125Q28.73125 125.18125 29.215626 124.47813Q29.715626 123.775 29.715626 121.66563Q29.715626 119.54063 29.215626 118.85313Q28.73125 118.15 27.98125 118.15Q27.2625 118.15 26.825 118.75938Q26.278126 119.54063 26.278126 121.66563ZM32.403126 119.36875Q32.403126 118.44688 32.85625 117.80625Q33.325 117.16563 34.2 117.16563Q35.0125 117.16563 35.54375 117.74375Q36.075 118.32188 36.075 119.43125Q36.075 120.525 35.528126 121.11875Q34.996876 121.69688 34.215626 121.69688Q33.434376 121.69688 32.91875 121.11875Q32.403126 120.54063 32.403126 119.36875ZM34.23125 117.88438Q33.840626 117.88438 33.575 118.22813Q33.325 118.57188 33.325 119.47813Q33.325 120.30625 33.575 120.65Q33.840626 120.97813 34.23125 120.97813Q34.6375 120.97813 34.8875 120.63438Q35.153126 120.29063 35.153126 119.4Q35.153126 118.55625 34.8875 118.22813Q34.621876 117.88438 34.23125 117.88438ZM34.23125 126.2125L38.934376 117.16563L39.79375 117.16563L35.10625 126.2125L34.23125 126.2125ZM37.95 123.88438Q37.95 122.9625 38.403126 122.32188Q38.871876 121.68125 39.7625 121.68125Q40.575 121.68125 41.10625 122.25938Q41.6375 122.82188 41.6375 123.94688Q41.6375 125.04063 41.090626 125.63438Q40.559376 126.2125 39.7625 126.2125Q38.996876 126.2125 38.465626 125.63438Q37.95 125.05625 37.95 123.88438ZM39.79375 122.4Q39.3875 122.4 39.121876 122.74375Q38.871876 123.0875 38.871876 123.99375Q38.871876 124.80625 39.1375 125.15Q39.403126 125.49375 39.79375 125.49375Q40.184376 125.49375 40.45 125.15Q40.715626 124.80625 40.715626 123.9Q40.715626 123.07188 40.45 122.74375Q40.184376 122.4 39.79375 122.4Z" fill-rule="nonzero"/><path fill="#000000" d="M23.746876 76.28438L23.746876 77.3L18.059376 77.3Q18.059376 76.925 18.184376 76.56563Q18.403126 75.9875 18.871876 75.425Q19.35625 74.8625 20.2625 74.12813Q21.66875 72.97188 22.153126 72.3Q22.653126 71.62813 22.653126 71.03438Q22.653126 70.40938 22.2 69.9875Q21.746876 69.55 21.028126 69.55Q20.2625 69.55 19.809376 70.00313Q19.35625 70.45625 19.340626 71.26875L18.2625 71.15938Q18.371876 69.94063 19.090626 69.31563Q19.825 68.675 21.059376 68.675Q22.29375 68.675 23.0125 69.3625Q23.73125 70.05 23.73125 71.06563Q23.73125 71.58125 23.5125 72.08125Q23.309376 72.56563 22.809376 73.12813Q22.325 73.675 21.2 74.62813Q20.246876 75.425 19.965626 75.72188Q19.7 76.00313 19.528126 76.28438L23.746876 76.28438ZM25.2 75.05L26.309376 74.95625Q26.434376 75.76875 26.871876 76.175Q27.325 76.58125 27.965626 76.58125Q28.715626 76.58125 29.246876 76.00313Q29.778126 75.425 29.778126 74.4875Q29.778126 73.58125 29.2625 73.06563Q28.7625 72.53438 27.934376 72.53438Q27.434376 72.53438 27.0125 72.76875Q26.60625 73.00313 26.371876 73.3625L25.3875 73.2375L26.215626 68.83125L30.496876 68.83125L30.496876 69.83125L27.059376 69.83125L26.60625 72.14375Q27.371876 71.59688 28.215626 71.59688Q29.340626 71.59688 30.10625 72.37813Q30.8875 73.15938 30.8875 74.39375Q30.8875 75.55 30.215626 76.40938Q29.3875 77.44063 27.965626 77.44063Q26.79375 77.44063 26.04375 76.78438Q25.309376 76.12813 25.2 75.05ZM32.403126 70.76875Q32.403126 69.84688 32.85625 69.20625Q33.325 68.56563 34.2 68.56563Q35.0125 68.56563 35.54375 69.14375Q36.075 69.72188 36.075 70.83125Q36.075 71.925 35.528126 72.51875Q34.996876 73.09688 34.215626 73.09688Q33.434376 73.09688 32.91875 72.51875Q32.403126 71.94063 32.403126 70.76875ZM34.23125 69.28438Q33.840626 69.28438 33.575 69.62813Q33.325 69.97188 33.325 70.87813Q33.325 71.70625 33.575 72.05Q33.840626 72.37813 34.23125 72.37813Q34.6375 72.37813 34.8875 72.03438Q35.153126 71.69063 35.153126 70.8Q35.153126 69.95625 34.8875 69.62813Q34.621876 69.28438 34.23125 69.28438ZM34.23125 77.6125L38.934376 68.56563L39.79375 68.56563L35.10625 77.6125L34.23125 77.6125ZM37.95 75.28438Q37.95 74.3625 38.403126 73.72188Q38.871876 73.08125 39.7625 73.08125Q40.575 73.08125 41.10625 73.65938Q41.6375 74.22188 41.6375 75.34688Q41.6375 76.44063 41.090626 77.03438Q40.559376 77.6125 39.7625 77.6125Q38.996876 77.6125 38.465626 77.03438Q37.95 76.45625 37.95 75.28438ZM39.79375 73.8Q39.3875 73.8 39.121876 74.14375Q38.871876 74.4875 38.871876 75.39375Q38.871876 76.20625 39.1375 76.55Q39.403126 76.89375 39.79375 76.89375Q40.184376 76.89375 40.45 76.55Q40.715626 76.20625 40.715626 75.3Q40.715626 74.47188 40.45 74.14375Q40.184376 73.8 39.79375 73.8Z" fill-rule="nonzero"/><path fill="#000000" d="M18.2 26.434376L19.2625 26.29375Q19.434376 27.184376 19.871876 27.590626Q20.309376 27.98125 20.934376 27.98125Q21.684376 27.98125 22.2 27.465626Q22.715626 26.95 22.715626 26.184376Q22.715626 25.465626 22.23125 24.996876Q21.7625 24.5125 21.028126 24.5125Q20.73125 24.5125 20.278126 24.6375L20.403126 23.7Q20.5125 23.715626 20.575 23.715626Q21.246876 23.715626 21.778126 23.371876Q22.325 23.0125 22.325 22.278126Q22.325 21.7 21.934376 21.325Q21.54375 20.934376 20.91875 20.934376Q20.309376 20.934376 19.8875 21.325Q19.48125 21.715626 19.371876 22.48125L18.309376 22.29375Q18.496876 21.246876 19.184376 20.66875Q19.871876 20.075 20.8875 20.075Q21.590626 20.075 22.184376 20.3875Q22.778126 20.684376 23.090626 21.2Q23.403126 21.715626 23.403126 22.309376Q23.403126 22.85625 23.10625 23.325Q22.809376 23.778126 22.23125 24.04375Q22.98125 24.215626 23.403126 24.778126Q23.825 25.325 23.825 26.16875Q23.825 27.29375 22.996876 28.075Q22.184376 28.85625 20.934376 28.85625Q19.809376 28.85625 19.059376 28.184376Q18.309376 27.496876 18.2 26.434376ZM25.2 24.465626Q25.2 22.934376 25.5125 22.0125Q25.825 21.075 26.434376 20.575Q27.059376 20.075 27.996876 20.075Q28.684376 20.075 29.2 20.35625Q29.73125 20.6375 30.075 21.16875Q30.41875 21.684376 30.60625 22.434376Q30.79375 23.184376 30.79375 24.465626Q30.79375 25.98125 30.48125 26.903126Q30.184376 27.825 29.559376 28.340626Q28.95 28.840626 27.996876 28.840626Q26.7625 28.840626 26.04375 27.95Q25.2 26.8875 25.2 24.465626ZM26.278126 24.465626Q26.278126 26.575 26.778126 27.278126Q27.278126 27.98125 27.996876 27.98125Q28.73125 27.98125 29.215626 27.278126Q29.715626 26.575 29.715626 24.465626Q29.715626 22.340626 29.215626 21.653126Q28.73125 20.95 27.98125 20.95Q27.2625 20.95 26.825 21.559376Q26.278126 22.340626 26.278126 24.465626ZM32.403126 22.16875Q32.403126 21.246876 32.85625 20.60625Q33.325 19.965626 34.2 19.965626Q35.0125 19.965626 35.54375 20.54375Q36.075 21.121876 36.075 22.23125Q36.075 23.325 35.528126 23.91875Q34.996876 24.496876 34.215626 24.496876Q33.434376 24.496876 32.91875 23.91875Q32.403126 23.340626 32.403126 22.16875ZM34.23125 20.684376Q33.840626 20.684376 33.575 21.028126Q33.325 21.371876 33.325 22.278126Q33.325 23.10625 33.575 23.45Q33.840626 23.778126 34.23125 23.778126Q34.6375 23.778126 34.8875 23.434376Q35.153126 23.090626 35.153126 22.2Q35.153126 21.35625 34.8875 21.028126Q34.621876 20.684376 34.23125 20.684376ZM34.23125 29.0125L38.934376 19.965626L39.79375 19.965626L35.10625 29.0125L34.23125 29.0125ZM37.95 26.684376Q37.95 25.7625 38.403126 25.121876Q38.871876 24.48125 39.7625 24.48125Q40.575 24.48125 41.10625 25.059376Q41.6375 25.621876 41.6375 26.746876Q41.6375 27.840626 41.090626 28.434376Q40.559376 29.0125 39.7625 29.0125Q38.996876 29.0125 38.465626 28.434376Q37.95 27.85625 37.95 26.684376ZM39.79375 25.2Q39.3875 25.2 39.121876 25.54375Q38.871876 25.8875 38.871876 26.79375Q38.871876 27.60625 39.1375 27.95Q39.403126 28.29375 39.79375 28.29375Q40.184376 28.29375 40.45 27.95Q40.715626 27.60625 40.715626 26.7Q40.715626 25.871876 40.45 25.54375Q40.184376 25.2 39.79375 25.2Z" fill-rule="nonzero"/><path fill="#000000" d="M72.14892 330.53436L73.21142 330.4406Q73.28954 331.09686 73.57079 331.5031Q73.85204 331.90936 74.43017 332.175Q75.02392 332.425 75.75829 332.425Q76.39892 332.425 76.89892 332.2375Q77.39892 332.03436 77.63329 331.70624Q77.88329 331.3625 77.88329 330.97186Q77.88329 330.5656 77.64892 330.26874Q77.41454 329.95624 76.88329 329.7531Q76.52392 329.6125 75.33642 329.33124Q74.16454 329.05 73.69579 328.8Q73.07079 328.47186 72.77392 328.0031Q72.47704 327.51874 72.47704 326.925Q72.47704 326.28436 72.83642 325.72186Q73.21142 325.14374 73.91454 324.8625Q74.63329 324.5656 75.49267 324.5656Q76.44579 324.5656 77.18017 324.8781Q77.91454 325.175 78.30517 325.78436Q78.69579 326.3781 78.72704 327.1281L77.63329 327.20624Q77.53954 326.39374 77.02392 325.9875Q76.52392 325.5656 75.53954 325.5656Q74.50829 325.5656 74.03954 325.9406Q73.57079 326.3156 73.57079 326.84686Q73.57079 327.3156 73.89892 327.6125Q74.22704 327.90936 75.60204 328.22186Q76.99267 328.53436 77.50829 328.76874Q78.25829 329.1281 78.61767 329.65936Q78.97704 330.175 78.97704 330.8781Q78.97704 331.5656 78.58642 332.175Q78.19579 332.76874 77.46142 333.1125Q76.72704 333.4406 75.80517 333.4406Q74.63329 333.4406 73.83642 333.1125Q73.05517 332.76874 72.60204 332.08124Q72.16454 331.39374 72.14892 330.53436ZM84.47704 333.3L84.47704 332.3781Q83.74267 333.4406 82.49267 333.4406Q81.94579 333.4406 81.46142 333.2375Q80.99267 333.01874 80.75829 332.70624Q80.52392 332.3781 80.43017 331.90936Q80.36767 331.6125 80.36767 330.925L80.36767 327.08124L81.43017 327.08124L81.43017 330.53436Q81.43017 331.34686 81.49267 331.64374Q81.58642 332.05 81.89892 332.3Q82.22704 332.53436 82.71142 332.53436Q83.18017 332.53436 83.58642 332.3Q84.00829 332.05 84.18017 331.6281Q84.36767 331.20624 84.36767 330.40936L84.36767 327.08124L85.41454 327.08124L85.41454 333.3L84.47704 333.3ZM87.39892 333.3L87.39892 327.08124L88.33642 327.08124L88.33642 327.95624Q89.02392 326.9406 90.32079 326.9406Q90.88329 326.9406 91.35204 327.14374Q91.83642 327.34686 92.07079 327.675Q92.30517 328.0031 92.39892 328.4406Q92.44579 328.7375 92.44579 329.47186L92.44579 333.3L91.39892 333.3L91.39892 329.51874Q91.39892 328.8625 91.27392 328.55Q91.14892 328.2375 90.83642 328.05Q90.52392 327.84686 90.10204 327.84686Q89.43017 327.84686 88.93017 328.28436Q88.44579 328.70624 88.44579 329.89374L88.44579 333.3L87.39892 333.3ZM98.43017 333.3L98.43017 332.51874Q97.83642 333.4406 96.69579 333.4406Q95.94579 333.4406 95.32079 333.03436Q94.69579 332.6125 94.35204 331.8781Q94.00829 331.14374 94.00829 330.1906Q94.00829 329.26874 94.32079 328.5031Q94.63329 327.7375 95.25829 327.34686Q95.88329 326.9406 96.64892 326.9406Q97.21142 326.9406 97.64892 327.175Q98.08642 327.40936 98.36767 327.78436L98.36767 324.70624L99.41454 324.70624L99.41454 333.3L98.43017 333.3ZM95.10204 330.1906Q95.10204 331.39374 95.60204 331.9875Q96.10204 332.5656 96.78954 332.5656Q97.47704 332.5656 97.96142 332.0031Q98.44579 331.4406 98.44579 330.28436Q98.44579 329.0031 97.94579 328.40936Q97.46142 327.8156 96.74267 327.8156Q96.03954 327.8156 95.57079 328.39374Q95.10204 328.95624 95.10204 330.1906ZM105.46142 332.53436Q104.86767 333.03436 104.32079 333.2375Q103.78954 333.4406 103.16454 333.4406Q102.13329 333.4406 101.58642 332.9406Q101.03954 332.4406 101.03954 331.65936Q101.03954 331.20624 101.24267 330.83124Q101.44579 330.4406 101.78954 330.22186Q102.13329 329.9875 102.55517 329.8781Q102.85204 329.78436 103.49267 329.70624Q104.75829 329.5656 105.36767 329.34686Q105.36767 329.1281 105.36767 329.08124Q105.36767 328.425 105.07079 328.15936Q104.66454 327.8156 103.86767 327.8156Q103.13329 327.8156 102.77392 328.08124Q102.41454 328.33124 102.24267 328.9875L101.21142 328.84686Q101.35204 328.1906 101.68017 327.78436Q102.00829 327.3781 102.61767 327.15936Q103.22704 326.9406 104.02392 326.9406Q104.82079 326.9406 105.32079 327.1281Q105.82079 327.3156 106.05517 327.59686Q106.28954 327.8781 106.38329 328.3156Q106.43017 328.58124 106.43017 329.28436L106.43017 330.6906Q106.43017 332.15936 106.49267 332.55Q106.57079 332.9406 106.77392 333.3L105.66454 333.3Q105.50829 332.97186 105.46142 332.53436ZM105.36767 330.175Q104.78954 330.40936 103.64892 330.58124Q102.99267 330.675 102.72704 330.8Q102.46142 330.90936 102.30517 331.1281Q102.16454 331.34686 102.16454 331.6281Q102.16454 332.05 102.47704 332.33124Q102.80517 332.6125 103.41454 332.6125Q104.02392 332.6125 104.49267 332.34686Q104.97704 332.08124 105.19579 331.6125Q105.36767 331.2531 105.36767 330.5656L105.36767 330.175ZM108.35204 335.6906L108.22704 334.70624Q108.57079 334.8 108.83642 334.8Q109.18017 334.8 109.38329 334.675Q109.60204 334.5656 109.74267 334.3625Q109.83642 334.1906 110.07079 333.5656Q110.08642 333.4875 110.16454 333.3156L107.78954 327.08124L108.93017 327.08124L110.22704 330.675Q110.47704 331.3625 110.68017 332.1281Q110.86767 331.39374 111.11767 330.70624L112.44579 327.08124L113.49267 327.08124L111.13329 333.40936Q110.74267 334.425 110.53954 334.8156Q110.25829 335.34686 109.88329 335.58124Q109.52392 335.83124 109.02392 335.83124Q108.72704 335.83124 108.35204 335.6906Z" fill-rule="nonzero"/><path fill="#000000" d="M136.29199 333.3L136.29199 324.70624L138.01074 324.70624L140.04199 330.78436Q140.32324 331.64374 140.44824 332.0656Q140.58887 331.59686 140.90137 330.6906L142.96387 324.70624L144.49512 324.70624L144.49512 333.3L143.40137 333.3L143.40137 326.1125L140.90137 333.3L139.87012 333.3L137.38574 325.9875L137.38574 333.3L136.29199 333.3ZM144.80762 330.1906Q144.80762 328.45624 145.76074 327.6281Q146.55762 326.9406 147.71387 326.9406Q148.99512 326.9406 149.80762 327.78436Q150.63574 328.6125 150.63574 330.09686Q150.63574 331.3 150.27637 331.9875Q149.91699 332.675 149.21387 333.0656Q148.52637 333.4406 147.71387 333.4406Q146.41699 333.4406 145.60449 332.6125Q144.80762 331.76874 144.80762 330.1906ZM145.88574 330.1906Q145.88574 331.3781 146.40137 331.97186Q146.93262 332.5656 147.71387 332.5656Q148.51074 332.5656 149.02637 331.97186Q149.54199 331.3781 149.54199 330.15936Q149.54199 329.0031 149.01074 328.40936Q148.49512 327.8156 147.71387 327.8156Q146.93262 327.8156 146.40137 328.40936Q145.88574 328.9875 145.88574 330.1906ZM152.19824 333.3L152.19824 327.08124L153.13574 327.08124L153.13574 327.95624Q153.82324 326.9406 155.12012 326.9406Q155.68262 326.9406 156.15137 327.14374Q156.63574 327.34686 156.87012 327.675Q157.10449 328.0031 157.19824 328.4406Q157.24512 328.7375 157.24512 329.47186L157.24512 333.3L156.19824 333.3L156.19824 329.51874Q156.19824 328.8625 156.07324 328.55Q155.94824 328.2375 155.63574 328.05Q155.32324 327.84686 154.90137 327.84686Q154.22949 327.84686 153.72949 328.28436Q153.24512 328.70624 153.24512 329.89374L153.24512 333.3L152.19824 333.3ZM163.22949 333.3L163.22949 332.51874Q162.63574 333.4406 161.49512 333.4406Q160.74512 333.4406 160.12012 333.03436Q159.49512 332.6125 159.15137 331.8781Q158.80762 331.14374 158.80762 330.1906Q158.80762 329.26874 159.12012 328.5031Q159.43262 327.7375 160.05762 327.34686Q160.68262 326.9406 161.44824 326.9406Q162.01074 326.9406 162.44824 327.175Q162.88574 327.40936 163.16699 327.78436L163.16699 324.70624L164.21387 324.70624L164.21387 333.3L163.22949 333.3ZM159.90137 330.1906Q159.90137 331.39374 160.40137 331.9875Q160.90137 332.5656 161.58887 332.5656Q162.27637 332.5656 162.76074 332.0031Q163.24512 331.4406 163.24512 330.28436Q163.24512 329.0031 162.74512 328.40936Q162.26074 327.8156 161.54199 327.8156Q160.83887 327.8156 160.37012 328.39374Q159.90137 328.95624 159.90137 330.1906ZM170.26074 332.53436Q169.66699 333.03436 169.12012 333.2375Q168.58887 333.4406 167.96387 333.4406Q166.93262 333.4406 166.38574 332.9406Q165.83887 332.4406 165.83887 331.65936Q165.83887 331.20624 166.04199 330.83124Q166.24512 330.4406 166.58887 330.22186Q166.93262 329.9875 167.35449 329.8781Q167.65137 329.78436 168.29199 329.70624Q169.55762 329.5656 170.16699 329.34686Q170.16699 329.1281 170.16699 329.08124Q170.16699 328.425 169.87012 328.15936Q169.46387 327.8156 168.66699 327.8156Q167.93262 327.8156 167.57324 328.08124Q167.21387 328.33124 167.04199 328.9875L166.01074 328.84686Q166.15137 328.1906 166.47949 327.78436Q166.80762 327.3781 167.41699 327.15936Q168.02637 326.9406 168.82324 326.9406Q169.62012 326.9406 170.12012 327.1281Q170.62012 327.3156 170.85449 327.59686Q171.08887 327.8781 171.18262 328.3156Q171.22949 328.58124 171.22949 329.28436L171.22949 330.6906Q171.22949 332.15936 171.29199 332.55Q171.37012 332.9406 171.57324 333.3L170.46387 333.3Q170.30762 332.97186 170.26074 332.53436ZM170.16699 330.175Q169.58887 330.40936 168.44824 330.58124Q167.79199 330.675 167.52637 330.8Q167.26074 330.90936 167.10449 331.1281Q166.96387 331.34686 166.96387 331.6281Q166.96387 332.05 167.27637 332.33124Q167.60449 332.6125 168.21387 332.6125Q168.82324 332.6125 169.29199 332.34686Q169.77637 332.08124 169.99512 331.6125Q170.16699 331.2531 170.16699 330.5656L170.16699 330.175ZM173.15137 335.6906L173.02637 334.70624Q173.37012 334.8 173.63574 334.8Q173.97949 334.8 174.18262 334.675Q174.40137 334.5656 174.54199 334.3625Q174.63574 334.1906 174.87012 333.5656Q174.88574 333.4875 174.96387 333.3156L172.58887 327.08124L173.72949 327.08124L175.02637 330.675Q175.27637 331.3625 175.47949 332.1281Q175.66699 331.39374 175.91699 330.70624L177.24512 327.08124L178.29199 327.08124L175.93262 333.40936Q175.54199 334.425 175.33887 334.8156Q175.05762 335.34686 174.68262 335.58124Q174.32324 335.83124 173.82324 335.83124Q173.52637 335.83124 173.15137 335.6906Z" fill-rule="nonzero"/><path fill="#000000" d="M200.31006 333.3L200.31006 325.72186L197.48193 325.72186L197.48193 324.70624L204.29443 324.70624L204.29443 325.72186L201.45068 325.72186L201.45068 333.3L200.31006 333.3ZM209.07568 333.3L209.07568 332.3781Q208.34131 333.4406 207.09131 333.4406Q206.54443 333.4406 206.06006 333.2375Q205.59131 333.01874 205.35693 332.70624Q205.12256 332.3781 205.02881 331.90936Q204.96631 331.6125 204.96631 330.925L204.96631 327.08124L206.02881 327.08124L206.02881 330.53436Q206.02881 331.34686 206.09131 331.64374Q206.18506 332.05 206.49756 332.3Q206.82568 332.53436 207.31006 332.53436Q207.77881 332.53436 208.18506 332.3Q208.60693 332.05 208.77881 331.6281Q208.96631 331.20624 208.96631 330.40936L208.96631 327.08124L210.01318 327.08124L210.01318 333.3L209.07568 333.3ZM216.24756 331.3L217.34131 331.425Q217.09131 332.3781 216.38818 332.90936Q215.68506 333.4406 214.60693 333.4406Q213.24756 333.4406 212.43506 332.59686Q211.63818 331.7531 211.63818 330.2375Q211.63818 328.675 212.45068 327.8156Q213.26318 326.9406 214.54443 326.9406Q215.79443 326.9406 216.57568 327.78436Q217.37256 328.6281 217.37256 330.175Q217.37256 330.26874 217.37256 330.45624L212.73193 330.45624Q212.79443 331.4875 213.31006 332.03436Q213.82568 332.5656 214.60693 332.5656Q215.18506 332.5656 215.59131 332.26874Q216.01318 331.95624 216.24756 331.3ZM212.79443 329.59686L216.26318 329.59686Q216.20068 328.8 215.87256 328.40936Q215.35693 327.8 214.56006 327.8Q213.82568 327.8 213.32568 328.28436Q212.84131 328.76874 212.79443 329.59686ZM218.57568 331.4406L219.60693 331.28436Q219.70068 331.90936 220.09131 332.2375Q220.49756 332.5656 221.23193 332.5656Q221.95068 332.5656 222.29443 332.28436Q222.65381 331.9875 222.65381 331.58124Q222.65381 331.22186 222.34131 331.01874Q222.12256 330.8781 221.26318 330.65936Q220.10693 330.3625 219.65381 330.15936Q219.21631 329.9406 218.98193 329.5656Q218.74756 329.1906 218.74756 328.72186Q218.74756 328.3156 218.93506 327.95624Q219.12256 327.59686 219.45068 327.3625Q219.70068 327.1906 220.12256 327.0656Q220.54443 326.9406 221.04443 326.9406Q221.76318 326.9406 222.31006 327.15936Q222.87256 327.3625 223.13818 327.72186Q223.40381 328.08124 223.49756 328.675L222.46631 328.8156Q222.40381 328.34686 222.06006 328.08124Q221.73193 327.8 221.10693 327.8Q220.38818 327.8 220.07568 328.05Q219.76318 328.28436 219.76318 328.6125Q219.76318 328.8156 219.88818 328.97186Q220.02881 329.14374 220.29443 329.2531Q220.45068 329.3156 221.23193 329.51874Q222.35693 329.83124 222.79443 330.01874Q223.23193 330.20624 223.48193 330.5656Q223.73193 330.925 223.73193 331.47186Q223.73193 332.0031 223.41943 332.47186Q223.12256 332.925 222.54443 333.1906Q221.96631 333.4406 221.23193 333.4406Q220.01318 333.4406 219.37256 332.9406Q218.74756 332.425 218.57568 331.4406ZM230.02881 333.3L230.02881 332.51874Q229.43506 333.4406 228.29443 333.4406Q227.54443 333.4406 226.91943 333.03436Q226.29443 332.6125 225.95068 331.8781Q225.60693 331.14374 225.60693 330.1906Q225.60693 329.26874 225.91943 328.5031Q226.23193 327.7375 226.85693 327.34686Q227.48193 326.9406 228.24756 326.9406Q228.81006 326.9406 229.24756 327.175Q229.68506 327.40936 229.96631 327.78436L229.96631 324.70624L231.01318 324.70624L231.01318 333.3L230.02881 333.3ZM226.70068 330.1906Q226.70068 331.39374 227.20068 331.9875Q227.70068 332.5656 228.38818 332.5656Q229.07568 332.5656 229.56006 332.0031Q230.04443 331.4406 230.04443 330.28436Q230.04443 329.0031 229.54443 328.40936Q229.06006 327.8156 228.34131 327.8156Q227.63818 327.8156 227.16943 328.39374Q226.70068 328.95624 226.70068 330.1906ZM237.06006 332.53436Q236.46631 333.03436 235.91943 333.2375Q235.38818 333.4406 234.76318 333.4406Q233.73193 333.4406 233.18506 332.9406Q232.63818 332.4406 232.63818 331.65936Q232.63818 331.20624 232.84131 330.83124Q233.04443 330.4406 233.38818 330.22186Q233.73193 329.9875 234.15381 329.8781Q234.45068 329.78436 235.09131 329.70624Q236.35693 329.5656 236.96631 329.34686Q236.96631 329.1281 236.96631 329.08124Q236.96631 328.425 236.66943 328.15936Q236.26318 327.8156 235.46631 327.8156Q234.73193 327.8156 234.37256 328.08124Q234.01318 328.33124 233.84131 328.9875L232.81006 328.84686Q232.95068 328.1906 233.27881 327.78436Q233.60693 327.3781 234.21631 327.15936Q234.82568 326.9406 235.62256 326.9406Q236.41943 326.9406 236.91943 327.1281Q237.41943 327.3156 237.65381 327.59686Q237.88818 327.8781 237.98193 328.3156Q238.02881 328.58124 238.02881 329.28436L238.02881 330.6906Q238.02881 332.15936 238.09131 332.55Q238.16943 332.9406 238.37256 333.3L237.26318 333.3Q237.10693 332.97186 237.06006 332.53436ZM236.96631 330.175Q236.38818 330.40936 235.24756 330.58124Q234.59131 330.675 234.32568 330.8Q234.06006 330.90936 233.90381 331.1281Q233.76318 331.34686 233.76318 331.6281Q233.76318 332.05 234.07568 332.33124Q234.40381 332.6125 235.01318 332.6125Q235.62256 332.6125 236.09131 332.34686Q236.57568 332.08124 236.79443 331.6125Q236.96631 331.2531 236.96631 330.5656L236.96631 330.175ZM239.95068 335.6906L239.82568 334.70624Q240.16943 334.8 240.43506 334.8Q240.77881 334.8 240.98193 334.675Q241.20068 334.5656 241.34131 334.3625Q241.43506 334.1906 241.66943 333.5656Q241.68506 333.4875 241.76318 333.3156L239.38818 327.08124L240.52881 327.08124L241.82568 330.675Q242.07568 331.3625 242.27881 332.1281Q242.46631 331.39374 242.71631 330.70624L244.04443 327.08124L245.09131 327.08124L242.73193 333.40936Q242.34131 334.425 242.13818 334.8156Q241.85693 335.34686 241.48193 335.58124Q241.12256 335.83124 240.62256 335.83124Q240.32568 335.83124 239.95068 335.6906Z" fill-rule="nonzero"/><path fill="#000000" d="M254.92188 333.3L252.64062 324.70624L253.8125 324.70624L255.125 330.34686Q255.32812 331.22186 255.48438 332.09686Q255.8125 330.72186 255.875 330.5031L257.5 324.70624L258.875 324.70624L260.10938 329.05Q260.5625 330.675 260.78125 332.09686Q260.9375 331.28436 261.20312 330.22186L262.54688 324.70624L263.6875 324.70624L261.34375 333.3L260.23438 333.3L258.4375 326.7531Q258.20312 325.9406 258.15625 325.7531Q258.03125 326.33124 257.90625 326.7531L256.09375 333.3L254.92188 333.3ZM268.54688 331.3L269.64062 331.425Q269.39062 332.3781 268.6875 332.90936Q267.98438 333.4406 266.90625 333.4406Q265.54688 333.4406 264.73438 332.59686Q263.9375 331.7531 263.9375 330.2375Q263.9375 328.675 264.75 327.8156Q265.5625 326.9406 266.84375 326.9406Q268.09375 326.9406 268.875 327.78436Q269.67188 328.6281 269.67188 330.175Q269.67188 330.26874 269.67188 330.45624L265.03125 330.45624Q265.09375 331.4875 265.60938 332.03436Q266.125 332.5656 266.90625 332.5656Q267.48438 332.5656 267.89062 332.26874Q268.3125 331.95624 268.54688 331.3ZM265.09375 329.59686L268.5625 329.59686Q268.5 328.8 268.17188 328.40936Q267.65625 327.8 266.85938 327.8Q266.125 327.8 265.625 328.28436Q265.14062 328.76874 265.09375 329.59686ZM275.32812 333.3L275.32812 332.51874Q274.73438 333.4406 273.59375 333.4406Q272.84375 333.4406 272.21875 333.03436Q271.59375 332.6125 271.25 331.8781Q270.90625 331.14374 270.90625 330.1906Q270.90625 329.26874 271.21875 328.5031Q271.53125 327.7375 272.15625 327.34686Q272.78125 326.9406 273.54688 326.9406Q274.10938 326.9406 274.54688 327.175Q274.98438 327.40936 275.26562 327.78436L275.26562 324.70624L276.3125 324.70624L276.3125 333.3L275.32812 333.3ZM272.0 330.1906Q272.0 331.39374 272.5 331.9875Q273.0 332.5656 273.6875 332.5656Q274.375 332.5656 274.85938 332.0031Q275.34375 331.4406 275.34375 330.28436Q275.34375 329.0031 274.84375 328.40936Q274.35938 327.8156 273.64062 327.8156Q272.9375 327.8156 272.46875 328.39374Q272.0 328.95624 272.0 330.1906ZM278.29688 333.3L278.29688 327.08124L279.23438 327.08124L279.23438 327.95624Q279.92188 326.9406 281.21875 326.9406Q281.78125 326.9406 282.25 327.14374Q282.73438 327.34686 282.96875 327.675Q283.20312 328.0031 283.29688 328.4406Q283.34375 328.7375 283.34375 329.47186L283.34375 333.3L282.29688 333.3L282.29688 329.51874Q282.29688 328.8625 282.17188 328.55Q282.04688 328.2375 281.73438 328.05Q281.42188 327.84686 281.0 327.84686Q280.32812 327.84686 279.82812 328.28436Q279.34375 328.70624 279.34375 329.89374L279.34375 333.3L278.29688 333.3ZM289.54688 331.3L290.64062 331.425Q290.39062 332.3781 289.6875 332.90936Q288.98438 333.4406 287.90625 333.4406Q286.54688 333.4406 285.73438 332.59686Q284.9375 331.7531 284.9375 330.2375Q284.9375 328.675 285.75 327.8156Q286.5625 326.9406 287.84375 326.9406Q289.09375 326.9406 289.875 327.78436Q290.67188 328.6281 290.67188 330.175Q290.67188 330.26874 290.67188 330.45624L286.03125 330.45624Q286.09375 331.4875 286.60938 332.03436Q287.125 332.5656 287.90625 332.5656Q288.48438 332.5656 288.89062 332.26874Q289.3125 331.95624 289.54688 331.3ZM286.09375 329.59686L289.5625 329.59686Q289.5 328.8 289.17188 328.40936Q288.65625 327.8 287.85938 327.8Q287.125 327.8 286.625 328.28436Q286.14062 328.76874 286.09375 329.59686ZM291.875 331.4406L292.90625 331.28436Q293.0 331.90936 293.39062 332.2375Q293.79688 332.5656 294.53125 332.5656Q295.25 332.5656 295.59375 332.28436Q295.95312 331.9875 295.95312 331.58124Q295.95312 331.22186 295.64062 331.01874Q295.42188 330.8781 294.5625 330.65936Q293.40625 330.3625 292.95312 330.15936Q292.51562 329.9406 292.28125 329.5656Q292.04688 329.1906 292.04688 328.72186Q292.04688 328.3156 292.23438 327.95624Q292.42188 327.59686 292.75 327.3625Q293.0 327.1906 293.42188 327.0656Q293.84375 326.9406 294.34375 326.9406Q295.0625 326.9406 295.60938 327.15936Q296.17188 327.3625 296.4375 327.72186Q296.70312 328.08124 296.79688 328.675L295.76562 328.8156Q295.70312 328.34686 295.35938 328.08124Q295.03125 327.8 294.40625 327.8Q293.6875 327.8 293.375 328.05Q293.0625 328.28436 293.0625 328.6125Q293.0625 328.8156 293.1875 328.97186Q293.32812 329.14374 293.59375 329.2531Q293.75 329.3156 294.53125 329.51874Q295.65625 329.83124 296.09375 330.01874Q296.53125 330.20624 296.78125 330.5656Q297.03125 330.925 297.03125 331.47186Q297.03125 332.0031 296.71875 332.47186Q296.42188 332.925 295.84375 333.1906Q295.26562 333.4406 294.53125 333.4406Q293.3125 333.4406 292.67188 332.9406Q292.04688 332.425 291.875 331.4406ZM303.32812 333.3L303.32812 332.51874Q302.73438 333.4406 301.59375 333.4406Q300.84375 333.4406 300.21875 333.03436Q299.59375 332.6125 299.25 331.8781Q298.90625 331.14374 298.90625 330.1906Q298.90625 329.26874 299.21875 328.5031Q299.53125 327.7375 300.15625 327.34686Q300.78125 326.9406 301.54688 326.9406Q302.10938 326.9406 302.54688 327.175Q302.98438 327.40936 303.26562 327.78436L303.26562 324.70624L304.3125 324.70624L304.3125 333.3L303.32812 333.3ZM300.0 330.1906Q300.0 331.39374 300.5 331.9875Q301.0 332.5656 301.6875 332.5656Q302.375 332.5656 302.85938 332.0031Q303.34375 331.4406 303.34375 330.28436Q303.34375 329.0031 302.84375 328.40936Q302.35938 327.8156 301.64062 327.8156Q300.9375 327.8156 300.46875 328.39374Q300.0 328.95624 300.0 330.1906ZM310.35938 332.53436Q309.76562 333.03436 309.21875 333.2375Q308.6875 333.4406 308.0625 333.4406Q307.03125 333.4406 306.48438 332.9406Q305.9375 332.4406 305.9375 331.65936Q305.9375 331.20624 306.14062 330.83124Q306.34375 330.4406 306.6875 330.22186Q307.03125 329.9875 307.45312 329.8781Q307.75 329.78436 308.39062 329.70624Q309.65625 329.5656 310.26562 329.34686Q310.26562 329.1281 310.26562 329.08124Q310.26562 328.425 309.96875 328.15936Q309.5625 327.8156 308.76562 327.8156Q308.03125 327.8156 307.67188 328.08124Q307.3125 328.33124 307.14062 328.9875L306.10938 328.84686Q306.25 328.1906 306.57812 327.78436Q306.90625 327.3781 307.51562 327.15936Q308.125 326.9406 308.92188 326.9406Q309.71875 326.9406 310.21875 327.1281Q310.71875 327.3156 310.95312 327.59686Q311.1875 327.8781 311.28125 328.3156Q311.32812 328.58124 311.32812 329.28436L311.32812 330.6906Q311.32812 332.15936 311.39062 332.55Q311.46875 332.9406 311.67188 333.3L310.5625 333.3Q310.40625 332.97186 310.35938 332.53436ZM310.26562 330.175Q309.6875 330.40936 308.54688 330.58124Q307.89062 330.675 307.625 330.8Q307.35938 330.90936 307.20312 331.1281Q307.0625 331.34686 307.0625 331.6281Q307.0625 332.05 307.375 332.33124Q307.70312 332.6125 308.3125 332.6125Q308.92188 332.6125 309.39062 332.34686Q309.875 332.08124 310.09375 331.6125Q310.26562 331.2531 310.26562 330.5656L310.26562 330.175ZM313.25 335.6906L313.125 334.70624Q313.46875 334.8 313.73438 334.8Q314.07812 334.8 314.28125 334.675Q314.5 334.5656 314.64062 334.3625Q314.73438 334.1906 314.96875 333.5656Q314.98438 333.4875 315.0625 333.3156L312.6875 327.08124L313.82812 327.08124L315.125 330.675Q315.375 331.3625 315.57812 332.1281Q315.76562 331.39374 316.01562 330.70624L317.34375 327.08124L318.39062 327.08124L316.03125 333.40936Q315.64062 334.425 315.4375 334.8156Q315.15625 335.34686 314.78125 335.58124Q314.42188 335.83124 313.92188 335.83124Q313.625 335.83124 313.25 335.6906Z" fill-rule="nonzero"/><path fill="#000000" d="M326.9087 333.3L326.9087 325.72186L324.08057 325.72186L324.08057 324.70624L330.89307 324.70624L330.89307 325.72186L328.04932 325.72186L328.04932 333.3L326.9087 333.3ZM331.5962 333.3L331.5962 324.70624L332.64307 324.70624L332.64307 327.78436Q333.37744 326.9406 334.50244 326.9406Q335.20557 326.9406 335.70557 327.22186Q336.2212 327.4875 336.43994 327.97186Q336.6587 328.4406 336.6587 329.3625L336.6587 333.3L335.61182 333.3L335.61182 329.3625Q335.61182 328.5656 335.26807 328.20624Q334.92432 327.84686 334.29932 327.84686Q333.83057 327.84686 333.4087 328.09686Q333.00244 328.33124 332.81494 328.7531Q332.64307 329.15936 332.64307 329.89374L332.64307 333.3L331.5962 333.3ZM342.67432 333.3L342.67432 332.3781Q341.93994 333.4406 340.68994 333.4406Q340.14307 333.4406 339.6587 333.2375Q339.18994 333.01874 338.95557 332.70624Q338.7212 332.3781 338.62744 331.90936Q338.56494 331.6125 338.56494 330.925L338.56494 327.08124L339.62744 327.08124L339.62744 330.53436Q339.62744 331.34686 339.68994 331.64374Q339.7837 332.05 340.0962 332.3Q340.42432 332.53436 340.9087 332.53436Q341.37744 332.53436 341.7837 332.3Q342.20557 332.05 342.37744 331.6281Q342.56494 331.20624 342.56494 330.40936L342.56494 327.08124L343.61182 327.08124L343.61182 333.3L342.67432 333.3ZM345.58057 333.3L345.58057 327.08124L346.5337 327.08124L346.5337 328.01874Q346.89307 327.3625 347.18994 327.15936Q347.50244 326.9406 347.87744 326.9406Q348.4087 326.9406 348.95557 327.26874L348.5962 328.2531Q348.20557 328.01874 347.83057 328.01874Q347.4712 328.01874 347.18994 328.2375Q346.92432 328.4406 346.81494 328.8156Q346.62744 329.3781 346.62744 330.03436L346.62744 333.3L345.58057 333.3ZM349.17432 331.4406L350.20557 331.28436Q350.29932 331.90936 350.68994 332.2375Q351.0962 332.5656 351.83057 332.5656Q352.54932 332.5656 352.89307 332.28436Q353.25244 331.9875 353.25244 331.58124Q353.25244 331.22186 352.93994 331.01874Q352.7212 330.8781 351.86182 330.65936Q350.70557 330.3625 350.25244 330.15936Q349.81494 329.9406 349.58057 329.5656Q349.3462 329.1906 349.3462 328.72186Q349.3462 328.3156 349.5337 327.95624Q349.7212 327.59686 350.04932 327.3625Q350.29932 327.1906 350.7212 327.0656Q351.14307 326.9406 351.64307 326.9406Q352.36182 326.9406 352.9087 327.15936Q353.4712 327.3625 353.73682 327.72186Q354.00244 328.08124 354.0962 328.675L353.06494 328.8156Q353.00244 328.34686 352.6587 328.08124Q352.33057 327.8 351.70557 327.8Q350.98682 327.8 350.67432 328.05Q350.36182 328.28436 350.36182 328.6125Q350.36182 328.8156 350.48682 328.97186Q350.62744 329.14374 350.89307 329.2531Q351.04932 329.3156 351.83057 329.51874Q352.95557 329.83124 353.39307 330.01874Q353.83057 330.20624 354.08057 330.5656Q354.33057 330.925 354.33057 331.47186Q354.33057 332.0031 354.01807 332.47186Q353.7212 332.925 353.14307 333.1906Q352.56494 333.4406 351.83057 333.4406Q350.61182 333.4406 349.9712 332.9406Q349.3462 332.425 349.17432 331.4406ZM360.62744 333.3L360.62744 332.51874Q360.0337 333.4406 358.89307 333.4406Q358.14307 333.4406 357.51807 333.03436Q356.89307 332.6125 356.54932 331.8781Q356.20557 331.14374 356.20557 330.1906Q356.20557 329.26874 356.51807 328.5031Q356.83057 327.7375 357.45557 327.34686Q358.08057 326.9406 358.8462 326.9406Q359.4087 326.9406 359.8462 327.175Q360.2837 327.40936 360.56494 327.78436L360.56494 324.70624L361.61182 324.70624L361.61182 333.3L360.62744 333.3ZM357.29932 330.1906Q357.29932 331.39374 357.79932 331.9875Q358.29932 332.5656 358.98682 332.5656Q359.67432 332.5656 360.1587 332.0031Q360.64307 331.4406 360.64307 330.28436Q360.64307 329.0031 360.14307 328.40936Q359.6587 327.8156 358.93994 327.8156Q358.23682 327.8156 357.76807 328.39374Q357.29932 328.95624 357.29932 330.1906ZM367.6587 332.53436Q367.06494 333.03436 366.51807 333.2375Q365.98682 333.4406 365.36182 333.4406Q364.33057 333.4406 363.7837 332.9406Q363.23682 332.4406 363.23682 331.65936Q363.23682 331.20624 363.43994 330.83124Q363.64307 330.4406 363.98682 330.22186Q364.33057 329.9875 364.75244 329.8781Q365.04932 329.78436 365.68994 329.70624Q366.95557 329.5656 367.56494 329.34686Q367.56494 329.1281 367.56494 329.08124Q367.56494 328.425 367.26807 328.15936Q366.86182 327.8156 366.06494 327.8156Q365.33057 327.8156 364.9712 328.08124Q364.61182 328.33124 364.43994 328.9875L363.4087 328.84686Q363.54932 328.1906 363.87744 327.78436Q364.20557 327.3781 364.81494 327.15936Q365.42432 326.9406 366.2212 326.9406Q367.01807 326.9406 367.51807 327.1281Q368.01807 327.3156 368.25244 327.59686Q368.48682 327.8781 368.58057 328.3156Q368.62744 328.58124 368.62744 329.28436L368.62744 330.6906Q368.62744 332.15936 368.68994 332.55Q368.76807 332.9406 368.9712 333.3L367.86182 333.3Q367.70557 332.97186 367.6587 332.53436ZM367.56494 330.175Q366.98682 330.40936 365.8462 330.58124Q365.18994 330.675 364.92432 330.8Q364.6587 330.90936 364.50244 331.1281Q364.36182 331.34686 364.36182 331.6281Q364.36182 332.05 364.67432 332.33124Q365.00244 332.6125 365.61182 332.6125Q366.2212 332.6125 366.68994 332.34686Q367.17432 332.08124 367.39307 331.6125Q367.56494 331.2531 367.56494 330.5656L367.56494 330.175ZM370.54932 335.6906L370.42432 334.70624Q370.76807 334.8 371.0337 334.8Q371.37744 334.8 371.58057 334.675Q371.79932 334.5656 371.93994 334.3625Q372.0337 334.1906 372.26807 333.5656Q372.2837 333.4875 372.36182 333.3156L369.98682 327.08124L371.12744 327.08124L372.42432 330.675Q372.67432 331.3625 372.87744 332.1281Q373.06494 331.39374 373.31494 330.70624L374.64307 327.08124L375.68994 327.08124L373.33057 333.40936Q372.93994 334.425 372.73682 334.8156Q372.45557 335.34686 372.08057 335.58124Q371.7212 335.83124 371.2212 335.83124Q370.92432 335.83124 370.54932 335.6906Z" fill-rule="nonzero"/><path fill="#000000" d="M398.083 333.3L398.083 324.70624L403.87988 324.70624L403.87988 325.72186L399.22363 325.72186L399.22363 328.3781L403.25488 328.3781L403.25488 329.39374L399.22363 329.39374L399.22363 333.3L398.083 333.3ZM404.87988 333.3L404.87988 327.08124L405.833 327.08124L405.833 328.01874Q406.19238 327.3625 406.48926 327.15936Q406.80176 326.9406 407.17676 326.9406Q407.708 326.9406 408.25488 327.26874L407.8955 328.2531Q407.50488 328.01874 407.12988 328.01874Q406.7705 328.01874 406.48926 328.2375Q406.22363 328.4406 406.11426 328.8156Q405.92676 329.3781 405.92676 330.03436L405.92676 333.3L404.87988 333.3ZM408.8955 325.925L408.8955 324.70624L409.958 324.70624L409.958 325.925L408.8955 325.925ZM408.8955 333.3L408.8955 327.08124L409.958 327.08124L409.958 333.3L408.8955 333.3ZM415.92676 333.3L415.92676 332.51874Q415.333 333.4406 414.19238 333.4406Q413.44238 333.4406 412.81738 333.03436Q412.19238 332.6125 411.84863 331.8781Q411.50488 331.14374 411.50488 330.1906Q411.50488 329.26874 411.81738 328.5031Q412.12988 327.7375 412.75488 327.34686Q413.37988 326.9406 414.1455 326.9406Q414.708 326.9406 415.1455 327.175Q415.583 327.40936 415.86426 327.78436L415.86426 324.70624L416.91113 324.70624L416.91113 333.3L415.92676 333.3ZM412.59863 330.1906Q412.59863 331.39374 413.09863 331.9875Q413.59863 332.5656 414.28613 332.5656Q414.97363 332.5656 415.458 332.0031Q415.94238 331.4406 415.94238 330.28436Q415.94238 329.0031 415.44238 328.40936Q414.958 327.8156 414.23926 327.8156Q413.53613 327.8156 413.06738 328.39374Q412.59863 328.95624 412.59863 330.1906ZM422.958 332.53436Q422.36426 333.03436 421.81738 333.2375Q421.28613 333.4406 420.66113 333.4406Q419.62988 333.4406 419.083 332.9406Q418.53613 332.4406 418.53613 331.65936Q418.53613 331.20624 418.73926 330.83124Q418.94238 330.4406 419.28613 330.22186Q419.62988 329.9875 420.05176 329.8781Q420.34863 329.78436 420.98926 329.70624Q422.25488 329.5656 422.86426 329.34686Q422.86426 329.1281 422.86426 329.08124Q422.86426 328.425 422.56738 328.15936Q422.16113 327.8156 421.36426 327.8156Q420.62988 327.8156 420.2705 328.08124Q419.91113 328.33124 419.73926 328.9875L418.708 328.84686Q418.84863 328.1906 419.17676 327.78436Q419.50488 327.3781 420.11426 327.15936Q420.72363 326.9406 421.5205 326.9406Q422.31738 326.9406 422.81738 327.1281Q423.31738 327.3156 423.55176 327.59686Q423.78613 327.8781 423.87988 328.3156Q423.92676 328.58124 423.92676 329.28436L423.92676 330.6906Q423.92676 332.15936 423.98926 332.55Q424.06738 332.9406 424.2705 333.3L423.16113 333.3Q423.00488 332.97186 422.958 332.53436ZM422.86426 330.175Q422.28613 330.40936 421.1455 330.58124Q420.48926 330.675 420.22363 330.8Q419.958 330.90936 419.80176 331.1281Q419.66113 331.34686 419.66113 331.6281Q419.66113 332.05 419.97363 332.33124Q420.30176 332.6125 420.91113 332.6125Q421.5205 332.6125 421.98926 332.34686Q422.47363 332.08124 422.69238 331.6125Q422.86426 331.2531 422.86426 330.5656L422.86426 330.175ZM425.84863 335.6906L425.72363 334.70624Q426.06738 334.8 426.333 334.8Q426.67676 334.8 426.87988 334.675Q427.09863 334.5656 427.23926 334.3625Q427.333 334.1906 427.56738 333.5656Q427.583 333.4875 427.66113 333.3156L425.28613 327.08124L426.42676 327.08124L427.72363 330.675Q427.97363 331.3625 428.17676 332.1281Q428.36426 331.39374 428.61426 330.70624L429.94238 327.08124L430.98926 327.08124L428.62988 333.40936Q428.23926 334.425 428.03613 334.8156Q427.75488 335.34686 427.37988 335.58124Q427.0205 335.83124 426.5205 335.83124Q426.22363 335.83124 425.84863 335.6906Z" fill-rule="nonzero"/><path fill="#000000" d="M454.44482 330.53436L455.50732 330.4406Q455.58545 331.09686 455.8667 331.5031Q456.14795 331.90936 456.72607 332.175Q457.31982 332.425 458.0542 332.425Q458.69482 332.425 459.19482 332.2375Q459.69482 332.03436 459.9292 331.70624Q460.1792 331.3625 460.1792 330.97186Q460.1792 330.5656 459.94482 330.26874Q459.71045 329.95624 459.1792 329.7531Q458.81982 329.6125 457.63232 329.33124Q456.46045 329.05 455.9917 328.8Q455.3667 328.47186 455.06982 328.0031Q454.77295 327.51874 454.77295 326.925Q454.77295 326.28436 455.13232 325.72186Q455.50732 325.14374 456.21045 324.8625Q456.9292 324.5656 457.78857 324.5656Q458.7417 324.5656 459.47607 324.8781Q460.21045 325.175 460.60107 325.78436Q460.9917 326.3781 461.02295 327.1281L459.9292 327.20624Q459.83545 326.39374 459.31982 325.9875Q458.81982 325.5656 457.83545 325.5656Q456.8042 325.5656 456.33545 325.9406Q455.8667 326.3156 455.8667 326.84686Q455.8667 327.3156 456.19482 327.6125Q456.52295 327.90936 457.89795 328.22186Q459.28857 328.53436 459.8042 328.76874Q460.5542 329.1281 460.91357 329.65936Q461.27295 330.175 461.27295 330.8781Q461.27295 331.5656 460.88232 332.175Q460.4917 332.76874 459.75732 333.1125Q459.02295 333.4406 458.10107 333.4406Q456.9292 333.4406 456.13232 333.1125Q455.35107 332.76874 454.89795 332.08124Q454.46045 331.39374 454.44482 330.53436ZM466.75732 332.53436Q466.16357 333.03436 465.6167 333.2375Q465.08545 333.4406 464.46045 333.4406Q463.4292 333.4406 462.88232 332.9406Q462.33545 332.4406 462.33545 331.65936Q462.33545 331.20624 462.53857 330.83124Q462.7417 330.4406 463.08545 330.22186Q463.4292 329.9875 463.85107 329.8781Q464.14795 329.78436 464.78857 329.70624Q466.0542 329.5656 466.66357 329.34686Q466.66357 329.1281 466.66357 329.08124Q466.66357 328.425 466.3667 328.15936Q465.96045 327.8156 465.16357 327.8156Q464.4292 327.8156 464.06982 328.08124Q463.71045 328.33124 463.53857 328.9875L462.50732 328.84686Q462.64795 328.1906 462.97607 327.78436Q463.3042 327.3781 463.91357 327.15936Q464.52295 326.9406 465.31982 326.9406Q466.1167 326.9406 466.6167 327.1281Q467.1167 327.3156 467.35107 327.59686Q467.58545 327.8781 467.6792 328.3156Q467.72607 328.58124 467.72607 329.28436L467.72607 330.6906Q467.72607 332.15936 467.78857 332.55Q467.8667 332.9406 468.06982 333.3L466.96045 333.3Q466.8042 332.97186 466.75732 332.53436ZM466.66357 330.175Q466.08545 330.40936 464.94482 330.58124Q464.28857 330.675 464.02295 330.8Q463.75732 330.90936 463.60107 331.1281Q463.46045 331.34686 463.46045 331.6281Q463.46045 332.05 463.77295 332.33124Q464.10107 332.6125 464.71045 332.6125Q465.31982 332.6125 465.78857 332.34686Q466.27295 332.08124 466.4917 331.6125Q466.66357 331.2531 466.66357 330.5656L466.66357 330.175ZM471.9917 332.3625L472.14795 333.28436Q471.69482 333.3781 471.35107 333.3781Q470.77295 333.3781 470.46045 333.20624Q470.14795 333.01874 470.00732 332.72186Q469.88232 332.425 469.88232 331.47186L469.88232 327.89374L469.1167 327.89374L469.1167 327.08124L469.88232 327.08124L469.88232 325.53436L470.9292 324.90936L470.9292 327.08124L471.9917 327.08124L471.9917 327.89374L470.9292 327.89374L470.9292 331.53436Q470.9292 331.9875 470.97607 332.1125Q471.03857 332.2375 471.16357 332.3156Q471.28857 332.39374 471.52295 332.39374Q471.71045 332.39374 471.9917 332.3625ZM476.77295 333.3L476.77295 332.3781Q476.03857 333.4406 474.78857 333.4406Q474.2417 333.4406 473.75732 333.2375Q473.28857 333.01874 473.0542 332.70624Q472.81982 332.3781 472.72607 331.90936Q472.66357 331.6125 472.66357 330.925L472.66357 327.08124L473.72607 327.08124L473.72607 330.53436Q473.72607 331.34686 473.78857 331.64374Q473.88232 332.05 474.19482 332.3Q474.52295 332.53436 475.00732 332.53436Q475.47607 332.53436 475.88232 332.3Q476.3042 332.05 476.47607 331.6281Q476.66357 331.20624 476.66357 330.40936L476.66357 327.08124L477.71045 327.08124L477.71045 333.3L476.77295 333.3ZM479.6792 333.3L479.6792 327.08124L480.63232 327.08124L480.63232 328.01874Q480.9917 327.3625 481.28857 327.15936Q481.60107 326.9406 481.97607 326.9406Q482.50732 326.9406 483.0542 327.26874L482.69482 328.2531Q482.3042 328.01874 481.9292 328.01874Q481.56982 328.01874 481.28857 328.2375Q481.02295 328.4406 480.91357 328.8156Q480.72607 329.3781 480.72607 330.03436L480.72607 333.3L479.6792 333.3ZM487.72607 333.3L487.72607 332.51874Q487.13232 333.4406 485.9917 333.4406Q485.2417 333.4406 484.6167 333.03436Q483.9917 332.6125 483.64795 331.8781Q483.3042 331.14374 483.3042 330.1906Q483.3042 329.26874 483.6167 328.5031Q483.9292 327.7375 484.5542 327.34686Q485.1792 326.9406 485.94482 326.9406Q486.50732 326.9406 486.94482 327.175Q487.38232 327.40936 487.66357 327.78436L487.66357 324.70624L488.71045 324.70624L488.71045 333.3L487.72607 333.3ZM484.39795 330.1906Q484.39795 331.39374 484.89795 331.9875Q485.39795 332.5656 486.08545 332.5656Q486.77295 332.5656 487.25732 332.0031Q487.7417 331.4406 487.7417 330.28436Q487.7417 329.0031 487.2417 328.40936Q486.75732 327.8156 486.03857 327.8156Q485.33545 327.8156 484.8667 328.39374Q484.39795 328.95624 484.39795 330.1906ZM494.75732 332.53436Q494.16357 333.03436 493.6167 333.2375Q493.08545 333.4406 492.46045 333.4406Q491.4292 333.4406 490.88232 332.9406Q490.33545 332.4406 490.33545 331.65936Q490.33545 331.20624 490.53857 330.83124Q490.7417 330.4406 491.08545 330.22186Q491.4292 329.9875 491.85107 329.8781Q492.14795 329.78436 492.78857 329.70624Q494.0542 329.5656 494.66357 329.34686Q494.66357 329.1281 494.66357 329.08124Q494.66357 328.425 494.3667 328.15936Q493.96045 327.8156 493.16357 327.8156Q492.4292 327.8156 492.06982 328.08124Q491.71045 328.33124 491.53857 328.9875L490.50732 328.84686Q490.64795 328.1906 490.97607 327.78436Q491.3042 327.3781 491.91357 327.15936Q492.52295 326.9406 493.31982 326.9406Q494.1167 326.9406 494.6167 327.1281Q495.1167 327.3156 495.35107 327.59686Q495.58545 327.8781 495.6792 328.3156Q495.72607 328.58124 495.72607 329.28436L495.72607 330.6906Q495.72607 332.15936 495.78857 332.55Q495.8667 332.9406 496.06982 333.3L494.96045 333.3Q494.8042 332.97186 494.75732 332.53436ZM494.66357 330.175Q494.08545 330.40936 492.94482 330.58124Q492.28857 330.675 492.02295 330.8Q491.75732 330.90936 491.60107 331.1281Q491.46045 331.34686 491.46045 331.6281Q491.46045 332.05 491.77295 332.33124Q492.10107 332.6125 492.71045 332.6125Q493.31982 332.6125 493.78857 332.34686Q494.27295 332.08124 494.4917 331.6125Q494.66357 331.2531 494.66357 330.5656L494.66357 330.175ZM497.64795 335.6906L497.52295 334.70624Q497.8667 334.8 498.13232 334.8Q498.47607 334.8 498.6792 334.675Q498.89795 334.5656 499.03857 334.3625Q499.13232 334.1906 499.3667 333.5656Q499.38232 333.4875 499.46045 333.3156L497.08545 327.08124L498.22607 327.08124L499.52295 330.675Q499.77295 331.3625 499.97607 332.1281Q500.16357 331.39374 500.41357 330.70624L501.7417 327.08124L502.78857 327.08124L500.4292 333.40936Q500.03857 334.425 499.83545 334.8156Q499.5542 335.34686 499.1792 335.58124Q498.81982 335.83124 498.31982 335.83124Q498.02295 335.83124 497.64795 335.6906Z" fill-rule="nonzero"/></svg>