<svg version="1.1" viewBox="0.0 0.0 539.0 334.0" fill="none" stroke="none" stroke-linecap="square" stroke-miterlimit="10" width="539" height="334" xmlns:xlink="http://www.w3.org/1999/xlink" xmlns="http://www.w3.org/2000/svg"><path fill="#ffffff" d="M0 0L539.0 0L539.0 334.0L0 334.0L0 0Z" fill-rule="nonzero"/><path stroke="#333333" stroke-width="1.0" stroke-linecap="butt" d="M43.5 297.5L522.5 297.5" fill-rule="nonzero"/><path stroke="#cccccc" stroke-width="1.0" stroke-linecap="butt" d="M43.5 206.5L522.5 206.5" fill-rule="nonzero"/><path stroke="#cccccc" stroke-width="1.0" stroke-linecap="butt" d="M43.5 114.5L522.5 114.5" fill-rule="nonzero"/><path stroke="#cccccc" stroke-width="1.0" stroke-linecap="butt" d="M43.5 23.5L522.5 23.5" fill-rule="nonzero"/><clipPath id="id_0"><path d="M43.7 23.7L522.3 23.7L522.3 297.3L43.7 297.3L43.7 23.7Z" clip-rule="nonzero"/></clipPath><path stroke="#000000" stroke-width="2.0" stroke-linecap="butt" clip-path="url(#id_0)" d="M109.0 297.0L67.0 297.0L67.0 188.0C67.0 186.89543 67.89543 186.0 69.0 186.0L107.0 186.0C108.10457 186.0 109.0 186.89543 109.0 188.0Z" fill-rule="nonzero"/><path fill="#fbbc04" clip-path="url(#id_0)" d="M109.0 297.0L67.0 297.0L67.0 188.0C67.0 186.89543 67.89543 186.0 69.0 186.0L107.0 186.0C108.10457 186.0 109.0 186.89543 109.0 188.0Z" fill-rule="nonzero"/><path stroke="#000000" stroke-width="2.0" stroke-linecap="butt" clip-path="url(#id_0)" d="M174.0 297.0L132.0 297.0L132.0 52.0C132.0 50.89543 132.89543 50.0 134.0 50.0L172.0 50.0C173.10457 50.0 174.0 50.89543 174.0 52.0Z" fill-rule="nonzero"/><path fill="#fbbc04" clip-path="url(#id_0)" d="M174.0 297.0L132.0 297.0L132.0 52.0C132.0 50.89543 132.89543 50.0 134.0 50.0L172.0 50.0C173.10457 50.0 174.0 50.89543 174.0 52.0Z" fill-rule="nonzero"/><path stroke="#000000" stroke-width="2.0" stroke-linecap="butt" clip-path="url(#id_0)" d="M239.0 297.0L197.0 297.0L197.0 60.0C197.0 58.89543 197.89543 58.0 199.0 58.0L237.0 58.0C238.10457 58.0 239.0 58.89543 239.0 60.0Z" fill-rule="nonzero"/><path fill="#fbbc04" clip-path="url(#id_0)" d="M239.0 297.0L197.0 297.0L197.0 60.0C197.0 58.89543 197.89543 58.0 199.0 58.0L237.0 58.0C238.10457 58.0 239.0 58.89543 239.0 60.0Z" fill-rule="nonzero"/><path stroke="#000000" stroke-width="2.0" stroke-linecap="butt" clip-path="url(#id_0)" d="M304.0 297.0L262.0 297.0L262.0 163.0C262.0 161.89543 262.89542 161.0 264.0 161.0L302.0 161.0C303.10458 161.0 304.0 161.89543 304.0 163.0Z" fill-rule="nonzero"/><path fill="#fbbc04" clip-path="url(#id_0)" d="M304.0 297.0L262.0 297.0L262.0 163.0C262.0 161.89543 262.89542 161.0 264.0 161.0L302.0 161.0C303.10458 161.0 304.0 161.89543 304.0 163.0Z" fill-rule="nonzero"/><path stroke="#000000" stroke-width="2.0" stroke-linecap="butt" clip-path="url(#id_0)" d="M369.0 297.0L327.0 297.0L327.0 212.0C327.0 210.89543 327.89542 210.0 329.0 210.0L367.0 210.0C368.10458 210.0 369.0 210.89543 369.0 212.0Z" fill-rule="nonzero"/><path fill="#fbbc04" clip-path="url(#id_0)" d="M369.0 297.0L327.0 297.0L327.0 212.0C327.0 210.89543 327.89542 210.0 329.0 210.0L367.0 210.0C368.10458 210.0 369.0 210.89543 369.0 212.0Z" fill-rule="nonzero"/><path stroke="#000000" stroke-width="2.0" stroke-linecap="butt" clip-path="url(#id_0)" d="M434.0 297.0L392.0 297.0L392.0 209.0C392.0 207.89543 392.89542 207.0 394.0 207.0L432.0 207.0C433.10458 207.0 434.0 207.89543 434.0 209.0Z" fill-rule="nonzero"/><path fill="#fbbc04" clip-path="url(#id_0)" d="M434.0 297.0L392.0 297.0L392.0 209.0C392.0 207.89543 392.89542 207.0 394.0 207.0L432.0 207.0C433.10458 207.0 434.0 207.89543 434.0 209.0Z" fill-rule="nonzero"/><path stroke="#000000" stroke-width="2.0" stroke-linecap="butt" clip-path="url(#id_0)" d="M499.0 297.0L457.0 297.0L457.0 236.0C457.0 234.89543 457.89542 234.0 459.0 234.0L497.0 234.0C498.10458 234.0 499.0 234.89543 499.0 236.0Z" fill-rule="nonzero"/><path fill="#fbbc04" clip-path="url(#id_0)" d="M499.0 297.0L457.0 297.0L457.0 236.0C457.0 234.89543 457.89542 234.0 459.0 234.0L497.0 234.0C498.10458 234.0 499.0 234.89543 499.0 236.0Z" fill-rule="nonzero"/><path fill="#000000" d="M31.2 297.0656Q31.2 295.53436 31.5125 294.6125Q31.825 293.675 32.434376 293.175Q33.059376 292.675 33.996876 292.675Q34.684376 292.675 35.2 292.95624Q35.73125 293.2375 36.075 293.76874Q36.41875 294.28436 36.60625 295.03436Q36.79375 295.78436 36.79375 297.0656Q36.79375 298.58124 36.48125 299.5031Q36.184376 300.425 35.559376 300.9406Q34.95 301.4406 33.996876 301.4406Q32.7625 301.4406 32.04375 300.55Q31.2 299.4875 31.2 297.0656ZM32.278126 297.0656Q32.278126 299.175 32.778126 299.8781Q33.278126 300.58124 33.996876 300.58124Q34.73125 300.58124 35.215626 299.8781Q35.715626 299.175 35.715626 297.0656Q35.715626 294.9406 35.215626 294.2531Q34.73125 293.55 33.98125 293.55Q33.2625 293.55 32.825 294.15936Q32.278126 294.9406 32.278126 297.0656Z" fill-rule="nonzero"/><path fill="#000000" d="M22.746876 209.08438L22.746876 210.1L17.059376 210.1Q17.059376 209.725 17.184376 209.36563Q17.403126 208.7875 17.871876 208.225Q18.35625 207.6625 19.2625 206.92813Q20.66875 205.77188 21.153126 205.1Q21.653126 204.42813 21.653126 203.83438Q21.653126 203.20938 21.2 202.7875Q20.746876 202.35 20.028126 202.35Q19.2625 202.35 18.809376 202.80313Q18.35625 203.25626 18.340626 204.06876L17.2625 203.95938Q17.371876 202.74063 18.090626 202.11563Q18.825 201.475 20.059376 201.475Q21.29375 201.475 22.0125 202.1625Q22.73125 202.85 22.73125 203.86563Q22.73125 204.38126 22.5125 204.88126Q22.309376 205.36563 21.809376 205.92813Q21.325 206.475 20.2 207.42813Q19.246876 208.225 18.965626 208.52188Q18.7 208.80313 18.528126 209.08438L22.746876 209.08438ZM24.2 205.86563Q24.2 204.33438 24.5125 203.4125Q24.825 202.475 25.434376 201.975Q26.059376 201.475 26.996876 201.475Q27.684376 201.475 28.2 201.75626Q28.73125 202.0375 29.075 202.56876Q29.41875 203.08438 29.60625 203.83438Q29.79375 204.58438 29.79375 205.86563Q29.79375 207.38126 29.48125 208.30313Q29.184376 209.225 28.559376 209.74063Q27.95 210.24063 26.996876 210.24063Q25.7625 210.24063 25.04375 209.35Q24.2 208.2875 24.2 205.86563ZM25.278126 205.86563Q25.278126 207.975 25.778126 208.67813Q26.278126 209.38126 26.996876 209.38126Q27.73125 209.38126 28.215626 208.67813Q28.715626 207.975 28.715626 205.86563Q28.715626 203.74063 28.215626 203.05313Q27.73125 202.35 26.98125 202.35Q26.2625 202.35 25.825 202.95938Q25.278126 203.74063 25.278126 205.86563ZM31.2 205.86563Q31.2 204.33438 31.5125 203.4125Q31.825 202.475 32.434376 201.975Q33.059376 201.475 33.996876 201.475Q34.684376 201.475 35.2 201.75626Q35.73125 202.0375 36.075 202.56876Q36.41875 203.08438 36.60625 203.83438Q36.79375 204.58438 36.79375 205.86563Q36.79375 207.38126 36.48125 208.30313Q36.184376 209.225 35.559376 209.74063Q34.95 210.24063 33.996876 210.24063Q32.7625 210.24063 32.04375 209.35Q31.2 208.2875 31.2 205.86563ZM32.278126 205.86563Q32.278126 207.975 32.778126 208.67813Q33.278126 209.38126 33.996876 209.38126Q34.73125 209.38126 35.215626 208.67813Q35.715626 207.975 35.715626 205.86563Q35.715626 203.74063 35.215626 203.05313Q34.73125 202.35 33.98125 202.35Q33.2625 202.35 32.825 202.95938Q32.278126 203.74063 32.278126 205.86563Z" fill-rule="nonzero"/><path fill="#000000" d="M20.575 118.9L20.575 116.8375L16.85625 116.8375L16.85625 115.86875L20.778126 110.30625L21.6375 110.30625L21.6375 115.86875L22.79375 115.86875L22.79375 116.8375L21.6375 116.8375L21.6375 118.9L20.575 118.9ZM20.575 115.86875L20.575 112.00938L17.8875 115.86875L20.575 115.86875ZM24.2 114.66563Q24.2 113.13438 24.5125 112.2125Q24.825 111.275 25.434376 110.775Q26.059376 110.275 26.996876 110.275Q27.684376 110.275 28.2 110.55625Q28.73125 110.8375 29.075 111.36875Q29.41875 111.88438 29.60625 112.63438Q29.79375 113.38438 29.79375 114.66563Q29.79375 116.18125 29.48125 117.10313Q29.184376 118.025 28.559376 118.54063Q27.95 119.04063 26.996876 119.04063Q25.7625 119.04063 25.04375 118.15Q24.2 117.0875 24.2 114.66563ZM25.278126 114.66563Q25.278126 116.775 25.778126 117.47813Q26.278126 118.18125 26.996876 118.18125Q27.73125 118.18125 28.215626 117.47813Q28.715626 116.775 28.715626 114.66563Q28.715626 112.54063 28.215626 111.85313Q27.73125 111.15 26.98125 111.15Q26.2625 111.15 25.825 111.75938Q25.278126 112.54063 25.278126 114.66563ZM31.2 114.66563Q31.2 113.13438 31.5125 112.2125Q31.825 111.275 32.434376 110.775Q33.059376 110.275 33.996876 110.275Q34.684376 110.275 35.2 110.55625Q35.73125 110.8375 36.075 111.36875Q36.41875 111.88438 36.60625 112.63438Q36.79375 113.38438 36.79375 114.66563Q36.79375 116.18125 36.48125 117.10313Q36.184376 118.025 35.559376 118.54063Q34.95 119.04063 33.996876 119.04063Q32.7625 119.04063 32.04375 118.15Q31.2 117.0875 31.2 114.66563ZM32.278126 114.66563Q32.278126 116.775 32.778126 117.47813Q33.278126 118.18125 33.996876 118.18125Q34.73125 118.18125 35.215626 117.47813Q35.715626 116.775 35.715626 114.66563Q35.715626 112.54063 35.215626 111.85313Q34.73125 111.15 33.98125 111.15Q33.2625 111.15 32.825 111.75938Q32.278126 112.54063 32.278126 114.66563Z" fill-rule="nonzero"/><path fill="#000000" d="M22.66875 21.215626L21.621876 21.29375Q21.48125 20.66875 21.23125 20.3875Q20.79375 19.934376 20.16875 19.934376Q19.66875 19.934376 19.278126 20.215626Q18.79375 20.590626 18.496876 21.29375Q18.215626 21.98125 18.2 23.2625Q18.575 22.684376 19.121876 22.403126Q19.684376 22.121876 20.29375 22.121876Q21.340626 22.121876 22.075 22.903126Q22.825 23.684376 22.825 24.903126Q22.825 25.715626 22.465626 26.41875Q22.121876 27.10625 21.5125 27.48125Q20.903126 27.840626 20.1375 27.840626Q18.809376 27.840626 17.98125 26.871876Q17.153126 25.903126 17.153126 23.684376Q17.153126 21.184376 18.075 20.059376Q18.871876 19.075 20.23125 19.075Q21.246876 19.075 21.8875 19.653126Q22.54375 20.215626 22.66875 21.215626ZM18.371876 24.91875Q18.371876 25.465626 18.590626 25.965626Q18.825 26.45 19.23125 26.715626Q19.653126 26.98125 20.121876 26.98125Q20.778126 26.98125 21.2625 26.45Q21.746876 25.903126 21.746876 24.98125Q21.746876 24.090626 21.2625 23.575Q20.79375 23.059376 20.075 23.059376Q19.35625 23.059376 18.85625 23.575Q18.371876 24.090626 18.371876 24.91875ZM24.2 23.465626Q24.2 21.934376 24.5125 21.0125Q24.825 20.075 25.434376 19.575Q26.059376 19.075 26.996876 19.075Q27.684376 19.075 28.2 19.35625Q28.73125 19.6375 29.075 20.16875Q29.41875 20.684376 29.60625 21.434376Q29.79375 22.184376 29.79375 23.465626Q29.79375 24.98125 29.48125 25.903126Q29.184376 26.825 28.559376 27.340626Q27.95 27.840626 26.996876 27.840626Q25.7625 27.840626 25.04375 26.95Q24.2 25.8875 24.2 23.465626ZM25.278126 23.465626Q25.278126 25.575 25.778126 26.278126Q26.278126 26.98125 26.996876 26.98125Q27.73125 26.98125 28.215626 26.278126Q28.715626 25.575 28.715626 23.465626Q28.715626 21.340626 28.215626 20.653126Q27.73125 19.95 26.98125 19.95Q26.2625 19.95 25.825 20.559376Q25.278126 21.340626 25.278126 23.465626ZM31.2 23.465626Q31.2 21.934376 31.5125 21.0125Q31.825 20.075 32.434376 19.575Q33.059376 19.075 33.996876 19.075Q34.684376 19.075 35.2 19.35625Q35.73125 19.6375 36.075 20.16875Q36.41875 20.684376 36.60625 21.434376Q36.79375 22.184376 36.79375 23.465626Q36.79375 24.98125 36.48125 25.903126Q36.184376 26.825 35.559376 27.340626Q34.95 27.840626 33.996876 27.840626Q32.7625 27.840626 32.04375 26.95Q31.2 25.8875 31.2 23.465626ZM32.278126 23.465626Q32.278126 25.575 32.778126 26.278126Q33.278126 26.98125 33.996876 26.98125Q34.73125 26.98125 35.215626 26.278126Q35.715626 25.575 35.715626 23.465626Q35.715626 21.340626 35.215626 20.653126Q34.73125 19.95 33.98125 19.95Q33.2625 19.95 32.825 20.559376Q32.278126 21.340626 32.278126 23.465626Z" fill-rule="nonzero"/><path fill="#000000" d="M67.699936 311.53436L68.762436 311.4406Q68.84056 312.09686 69.12181 312.5031Q69.40306 312.90936 69.981186 313.175Q70.574936 313.425 71.30931 313.425Q71.949936 313.425 72.449936 313.2375Q72.949936 313.03436 73.18431 312.70624Q73.43431 312.3625 73.43431 311.97186Q73.43431 311.5656 73.199936 311.26874Q72.96556 310.95624 72.43431 310.7531Q72.074936 310.6125 70.887436 310.33124Q69.71556 310.05 69.24681 309.8Q68.62181 309.47186 68.324936 309.0031Q68.02806 308.51874 68.02806 307.925Q68.02806 307.28436 68.387436 306.72186Q68.762436 306.14374 69.46556 305.8625Q70.18431 305.5656 71.043686 305.5656Q71.99681 305.5656 72.731186 305.8781Q73.46556 306.175 73.856186 306.78436Q74.24681 307.3781 74.27806 308.1281L73.18431 308.20624Q73.09056 307.39374 72.574936 306.9875Q72.074936 306.5656 71.09056 306.5656Q70.05931 306.5656 69.59056 306.9406Q69.12181 307.3156 69.12181 307.84686Q69.12181 308.3156 69.449936 308.6125Q69.77806 308.90936 71.15306 309.22186Q72.543686 309.53436 73.05931 309.76874Q73.80931 310.1281 74.168686 310.65936Q74.52806 311.175 74.52806 311.8781Q74.52806 312.5656 74.137436 313.175Q73.74681 313.76874 73.012436 314.1125Q72.27806 314.4406 71.356186 314.4406Q70.18431 314.4406 69.387436 314.1125Q68.606186 313.76874 68.15306 313.08124Q67.71556 312.39374 67.699936 311.53436ZM80.02806 314.3L80.02806 313.3781Q79.293686 314.4406 78.043686 314.4406Q77.49681 314.4406 77.012436 314.2375Q76.543686 314.01874 76.30931 313.70624Q76.074936 313.3781 75.981186 312.90936Q75.918686 312.6125 75.918686 311.925L75.918686 308.08124L76.981186 308.08124L76.981186 311.53436Q76.981186 312.34686 77.043686 312.64374Q77.137436 313.05 77.449936 313.3Q77.77806 313.53436 78.262436 313.53436Q78.731186 313.53436 79.137436 313.3Q79.55931 313.05 79.731186 312.6281Q79.918686 312.20624 79.918686 311.40936L79.918686 308.08124L80.96556 308.08124L80.96556 314.3L80.02806 314.3ZM82.949936 314.3L82.949936 308.08124L83.887436 308.08124L83.887436 308.95624Q84.574936 307.9406 85.87181 307.9406Q86.43431 307.9406 86.90306 308.14374Q87.387436 308.34686 87.62181 308.675Q87.856186 309.0031 87.949936 309.4406Q87.99681 309.7375 87.99681 310.47186L87.99681 314.3L86.949936 314.3L86.949936 310.51874Q86.949936 309.8625 86.824936 309.55Q86.699936 309.2375 86.387436 309.05Q86.074936 308.84686 85.65306 308.84686Q84.981186 308.84686 84.481186 309.28436Q83.99681 309.70624 83.99681 310.89374L83.99681 314.3L82.949936 314.3ZM93.981186 314.3L93.981186 313.51874Q93.387436 314.4406 92.24681 314.4406Q91.49681 314.4406 90.87181 314.03436Q90.24681 313.6125 89.90306 312.8781Q89.55931 312.14374 89.55931 311.1906Q89.55931 310.26874 89.87181 309.5031Q90.18431 308.7375 90.80931 308.34686Q91.43431 307.9406 92.199936 307.9406Q92.762436 307.9406 93.199936 308.175Q93.637436 308.40936 93.918686 308.78436L93.918686 305.70624L94.96556 305.70624L94.96556 314.3L93.981186 314.3ZM90.65306 311.1906Q90.65306 312.39374 91.15306 312.9875Q91.65306 313.5656 92.34056 313.5656Q93.02806 313.5656 93.512436 313.0031Q93.99681 312.4406 93.99681 311.28436Q93.99681 310.0031 93.49681 309.40936Q93.012436 308.8156 92.293686 308.8156Q91.59056 308.8156 91.12181 309.39374Q90.65306 309.95624 90.65306 311.1906ZM101.012436 313.53436Q100.418686 314.03436 99.87181 314.2375Q99.34056 314.4406 98.71556 314.4406Q97.68431 314.4406 97.137436 313.9406Q96.59056 313.4406 96.59056 312.65936Q96.59056 312.20624 96.793686 311.83124Q96.99681 311.4406 97.34056 311.22186Q97.68431 310.9875 98.106186 310.8781Q98.40306 310.78436 99.043686 310.70624Q100.30931 310.5656 100.918686 310.34686Q100.918686 310.1281 100.918686 310.08124Q100.918686 309.425 100.62181 309.15936Q100.21556 308.8156 99.418686 308.8156Q98.68431 308.8156 98.324936 309.08124Q97.96556 309.33124 97.793686 309.9875L96.762436 309.84686Q96.90306 309.1906 97.231186 308.78436Q97.55931 308.3781 98.168686 308.15936Q98.77806 307.9406 99.574936 307.9406Q100.37181 307.9406 100.87181 308.1281Q101.37181 308.3156 101.606186 308.59686Q101.84056 308.8781 101.93431 309.3156Q101.981186 309.58124 101.981186 310.28436L101.981186 311.6906Q101.981186 313.15936 102.043686 313.55Q102.12181 313.9406 102.324936 314.3L101.21556 314.3Q101.05931 313.97186 101.012436 313.53436ZM100.918686 311.175Q100.34056 311.40936 99.199936 311.58124Q98.543686 311.675 98.27806 311.8Q98.012436 311.90936 97.856186 312.1281Q97.71556 312.34686 97.71556 312.6281Q97.71556 313.05 98.02806 313.33124Q98.356186 313.6125 98.96556 313.6125Q99.574936 313.6125 100.043686 313.34686Q100.52806 313.08124 100.74681 312.6125Q100.918686 312.2531 100.918686 311.5656L100.918686 311.175ZM103.90306 316.6906L103.77806 315.70624Q104.12181 315.8 104.387436 315.8Q104.731186 315.8 104.93431 315.675Q105.15306 315.5656 105.293686 315.3625Q105.387436 315.1906 105.62181 314.5656Q105.637436 314.4875 105.71556 314.3156L103.34056 308.08124L104.481186 308.08124L105.77806 311.675Q106.02806 312.3625 106.231186 313.1281Q106.418686 312.39374 106.668686 311.70624L107.99681 308.08124L109.043686 308.08124L106.68431 314.40936Q106.293686 315.425 106.09056 315.8156Q105.80931 316.34686 105.43431 316.58124Q105.074936 316.83124 104.574936 316.83124Q104.27806 316.83124 103.90306 316.6906Z" fill-rule="nonzero"/><path fill="#000000" d="M132.65933 314.3L132.65933 305.70624L134.37808 305.70624L136.40933 311.78436Q136.69058 312.64374 136.81558 313.0656Q136.9562 312.59686 137.2687 311.6906L139.3312 305.70624L140.86246 305.70624L140.86246 314.3L139.7687 314.3L139.7687 307.1125L137.2687 314.3L136.23746 314.3L133.75308 306.9875L133.75308 314.3L132.65933 314.3ZM141.17496 311.1906Q141.17496 309.45624 142.12808 308.6281Q142.92496 307.9406 144.0812 307.9406Q145.36246 307.9406 146.17496 308.78436Q147.00308 309.6125 147.00308 311.09686Q147.00308 312.3 146.6437 312.9875Q146.28433 313.675 145.5812 314.0656Q144.8937 314.4406 144.0812 314.4406Q142.78433 314.4406 141.97183 313.6125Q141.17496 312.76874 141.17496 311.1906ZM142.25308 311.1906Q142.25308 312.3781 142.7687 312.97186Q143.29996 313.5656 144.0812 313.5656Q144.87808 313.5656 145.3937 312.97186Q145.90933 312.3781 145.90933 311.15936Q145.90933 310.0031 145.37808 309.40936Q144.86246 308.8156 144.0812 308.8156Q143.29996 308.8156 142.7687 309.40936Q142.25308 309.9875 142.25308 311.1906ZM148.56558 314.3L148.56558 308.08124L149.50308 308.08124L149.50308 308.95624Q150.19058 307.9406 151.48746 307.9406Q152.04996 307.9406 152.5187 308.14374Q153.00308 308.34686 153.23746 308.675Q153.47183 309.0031 153.56558 309.4406Q153.61246 309.7375 153.61246 310.47186L153.61246 314.3L152.56558 314.3L152.56558 310.51874Q152.56558 309.8625 152.44058 309.55Q152.31558 309.2375 152.00308 309.05Q151.69058 308.84686 151.2687 308.84686Q150.59683 308.84686 150.09683 309.28436Q149.61246 309.70624 149.61246 310.89374L149.61246 314.3L148.56558 314.3ZM159.59683 314.3L159.59683 313.51874Q159.00308 314.4406 157.86246 314.4406Q157.11246 314.4406 156.48746 314.03436Q155.86246 313.6125 155.5187 312.8781Q155.17496 312.14374 155.17496 311.1906Q155.17496 310.26874 155.48746 309.5031Q155.79996 308.7375 156.42496 308.34686Q157.04996 307.9406 157.81558 307.9406Q158.37808 307.9406 158.81558 308.175Q159.25308 308.40936 159.53433 308.78436L159.53433 305.70624L160.5812 305.70624L160.5812 314.3L159.59683 314.3ZM156.2687 311.1906Q156.2687 312.39374 156.7687 312.9875Q157.2687 313.5656 157.9562 313.5656Q158.6437 313.5656 159.12808 313.0031Q159.61246 312.4406 159.61246 311.28436Q159.61246 310.0031 159.11246 309.40936Q158.62808 308.8156 157.90933 308.8156Q157.2062 308.8156 156.73746 309.39374Q156.2687 309.95624 156.2687 311.1906ZM166.62808 313.53436Q166.03433 314.03436 165.48746 314.2375Q164.9562 314.4406 164.3312 314.4406Q163.29996 314.4406 162.75308 313.9406Q162.2062 313.4406 162.2062 312.65936Q162.2062 312.20624 162.40933 311.83124Q162.61246 311.4406 162.9562 311.22186Q163.29996 310.9875 163.72183 310.8781Q164.0187 310.78436 164.65933 310.70624Q165.92496 310.5656 166.53433 310.34686Q166.53433 310.1281 166.53433 310.08124Q166.53433 309.425 166.23746 309.15936Q165.8312 308.8156 165.03433 308.8156Q164.29996 308.8156 163.94058 309.08124Q163.5812 309.33124 163.40933 309.9875L162.37808 309.84686Q162.5187 309.1906 162.84683 308.78436Q163.17496 308.3781 163.78433 308.15936Q164.3937 307.9406 165.19058 307.9406Q165.98746 307.9406 166.48746 308.1281Q166.98746 308.3156 167.22183 308.59686Q167.4562 308.8781 167.54996 309.3156Q167.59683 309.58124 167.59683 310.28436L167.59683 311.6906Q167.59683 313.15936 167.65933 313.55Q167.73746 313.9406 167.94058 314.3L166.8312 314.3Q166.67496 313.97186 166.62808 313.53436ZM166.53433 311.175Q165.9562 311.40936 164.81558 311.58124Q164.15933 311.675 163.8937 311.8Q163.62808 311.90936 163.47183 312.1281Q163.3312 312.34686 163.3312 312.6281Q163.3312 313.05 163.6437 313.33124Q163.97183 313.6125 164.5812 313.6125Q165.19058 313.6125 165.65933 313.34686Q166.1437 313.08124 166.36246 312.6125Q166.53433 312.2531 166.53433 311.5656L166.53433 311.175ZM169.5187 316.6906L169.3937 315.70624Q169.73746 315.8 170.00308 315.8Q170.34683 315.8 170.54996 315.675Q170.7687 315.5656 170.90933 315.3625Q171.00308 315.1906 171.23746 314.5656Q171.25308 314.4875 171.3312 314.3156L168.9562 308.08124L170.09683 308.08124L171.3937 311.675Q171.6437 312.3625 171.84683 313.1281Q172.03433 312.39374 172.28433 311.70624L173.61246 308.08124L174.65933 308.08124L172.29996 314.40936Q171.90933 315.425 171.7062 315.8156Q171.42496 316.34686 171.04996 316.58124Q170.69058 316.83124 170.19058 316.83124Q169.8937 316.83124 169.5187 316.6906Z" fill-rule="nonzero"/><path fill="#000000" d="M197.49373 314.3L197.49373 306.72186L194.6656 306.72186L194.6656 305.70624L201.4781 305.70624L201.4781 306.72186L198.63435 306.72186L198.63435 314.3L197.49373 314.3ZM206.25935 314.3L206.25935 313.3781Q205.52498 314.4406 204.27498 314.4406Q203.7281 314.4406 203.24373 314.2375Q202.77498 314.01874 202.5406 313.70624Q202.30623 313.3781 202.21248 312.90936Q202.14998 312.6125 202.14998 311.925L202.14998 308.08124L203.21248 308.08124L203.21248 311.53436Q203.21248 312.34686 203.27498 312.64374Q203.36873 313.05 203.68123 313.3Q204.00935 313.53436 204.49373 313.53436Q204.96248 313.53436 205.36873 313.3Q205.7906 313.05 205.96248 312.6281Q206.14998 312.20624 206.14998 311.40936L206.14998 308.08124L207.19685 308.08124L207.19685 314.3L206.25935 314.3ZM213.43123 312.3L214.52498 312.425Q214.27498 313.3781 213.57185 313.90936Q212.86873 314.4406 211.7906 314.4406Q210.43123 314.4406 209.61873 313.59686Q208.82185 312.7531 208.82185 311.2375Q208.82185 309.675 209.63435 308.8156Q210.44685 307.9406 211.7281 307.9406Q212.9781 307.9406 213.75935 308.78436Q214.55623 309.6281 214.55623 311.175Q214.55623 311.26874 214.55623 311.45624L209.9156 311.45624Q209.9781 312.4875 210.49373 313.03436Q211.00935 313.5656 211.7906 313.5656Q212.36873 313.5656 212.77498 313.26874Q213.19685 312.95624 213.43123 312.3ZM209.9781 310.59686L213.44685 310.59686Q213.38435 309.8 213.05623 309.40936Q212.5406 308.8 211.74373 308.8Q211.00935 308.8 210.50935 309.28436Q210.02498 309.76874 209.9781 310.59686ZM215.75935 312.4406L216.7906 312.28436Q216.88435 312.90936 217.27498 313.2375Q217.68123 313.5656 218.4156 313.5656Q219.13435 313.5656 219.4781 313.28436Q219.83748 312.9875 219.83748 312.58124Q219.83748 312.22186 219.52498 312.01874Q219.30623 311.8781 218.44685 311.65936Q217.2906 311.3625 216.83748 311.15936Q216.39998 310.9406 216.1656 310.5656Q215.93123 310.1906 215.93123 309.72186Q215.93123 309.3156 216.11873 308.95624Q216.30623 308.59686 216.63435 308.3625Q216.88435 308.1906 217.30623 308.0656Q217.7281 307.9406 218.2281 307.9406Q218.94685 307.9406 219.49373 308.15936Q220.05623 308.3625 220.32185 308.72186Q220.58748 309.08124 220.68123 309.675L219.64998 309.8156Q219.58748 309.34686 219.24373 309.08124Q218.9156 308.8 218.2906 308.8Q217.57185 308.8 217.25935 309.05Q216.94685 309.28436 216.94685 309.6125Q216.94685 309.8156 217.07185 309.97186Q217.21248 310.14374 217.4781 310.2531Q217.63435 310.3156 218.4156 310.51874Q219.5406 310.83124 219.9781 311.01874Q220.4156 311.20624 220.6656 311.5656Q220.9156 311.925 220.9156 312.47186Q220.9156 313.0031 220.6031 313.47186Q220.30623 313.925 219.7281 314.1906Q219.14998 314.4406 218.4156 314.4406Q217.19685 314.4406 216.55623 313.9406Q215.93123 313.425 215.75935 312.4406ZM227.21248 314.3L227.21248 313.51874Q226.61873 314.4406 225.4781 314.4406Q224.7281 314.4406 224.1031 314.03436Q223.4781 313.6125 223.13435 312.8781Q222.7906 312.14374 222.7906 311.1906Q222.7906 310.26874 223.1031 309.5031Q223.4156 308.7375 224.0406 308.34686Q224.6656 307.9406 225.43123 307.9406Q225.99373 307.9406 226.43123 308.175Q226.86873 308.40936 227.14998 308.78436L227.14998 305.70624L228.19685 305.70624L228.19685 314.3L227.21248 314.3ZM223.88435 311.1906Q223.88435 312.39374 224.38435 312.9875Q224.88435 313.5656 225.57185 313.5656Q226.25935 313.5656 226.74373 313.0031Q227.2281 312.4406 227.2281 311.28436Q227.2281 310.0031 226.7281 309.40936Q226.24373 308.8156 225.52498 308.8156Q224.82185 308.8156 224.3531 309.39374Q223.88435 309.95624 223.88435 311.1906ZM234.24373 313.53436Q233.64998 314.03436 233.1031 314.2375Q232.57185 314.4406 231.94685 314.4406Q230.9156 314.4406 230.36873 313.9406Q229.82185 313.4406 229.82185 312.65936Q229.82185 312.20624 230.02498 311.83124Q230.2281 311.4406 230.57185 311.22186Q230.9156 310.9875 231.33748 310.8781Q231.63435 310.78436 232.27498 310.70624Q233.5406 310.5656 234.14998 310.34686Q234.14998 310.1281 234.14998 310.08124Q234.14998 309.425 233.8531 309.15936Q233.44685 308.8156 232.64998 308.8156Q231.9156 308.8156 231.55623 309.08124Q231.19685 309.33124 231.02498 309.9875L229.99373 309.84686Q230.13435 309.1906 230.46248 308.78436Q230.7906 308.3781 231.39998 308.15936Q232.00935 307.9406 232.80623 307.9406Q233.6031 307.9406 234.1031 308.1281Q234.6031 308.3156 234.83748 308.59686Q235.07185 308.8781 235.1656 309.3156Q235.21248 309.58124 235.21248 310.28436L235.21248 311.6906Q235.21248 313.15936 235.27498 313.55Q235.3531 313.9406 235.55623 314.3L234.44685 314.3Q234.2906 313.97186 234.24373 313.53436ZM234.14998 311.175Q233.57185 311.40936 232.43123 311.58124Q231.77498 311.675 231.50935 311.8Q231.24373 311.90936 231.08748 312.1281Q230.94685 312.34686 230.94685 312.6281Q230.94685 313.05 231.25935 313.33124Q231.58748 313.6125 232.19685 313.6125Q232.80623 313.6125 233.27498 313.34686Q233.75935 313.08124 233.9781 312.6125Q234.14998 312.2531 234.14998 311.5656L234.14998 311.175ZM237.13435 316.6906L237.00935 315.70624Q237.3531 315.8 237.61873 315.8Q237.96248 315.8 238.1656 315.675Q238.38435 315.5656 238.52498 315.3625Q238.61873 315.1906 238.8531 314.5656Q238.86873 314.4875 238.94685 314.3156L236.57185 308.08124L237.71248 308.08124L239.00935 311.675Q239.25935 312.3625 239.46248 313.1281Q239.64998 312.39374 239.89998 311.70624L241.2281 308.08124L242.27498 308.08124L239.9156 314.40936Q239.52498 315.425 239.32185 315.8156Q239.0406 316.34686 238.6656 316.58124Q238.30623 316.83124 237.80623 316.83124Q237.50935 316.83124 237.13435 316.6906Z" fill-rule="nonzero"/><path fill="#000000" d="M252.92188 314.3L250.64062 305.70624L251.8125 305.70624L253.125 311.34686Q253.32812 312.22186 253.48438 313.09686Q253.8125 311.72186 253.875 311.5031L255.5 305.70624L256.875 305.70624L258.10938 310.05Q258.5625 311.675 258.78125 313.09686Q258.9375 312.28436 259.20312 311.22186L260.54688 305.70624L261.6875 305.70624L259.34375 314.3L258.23438 314.3L256.4375 307.7531Q256.20312 306.9406 256.15625 306.7531Q256.03125 307.33124 255.90625 307.7531L254.09375 314.3L252.92188 314.3ZM266.54688 312.3L267.64062 312.425Q267.39062 313.3781 266.6875 313.90936Q265.98438 314.4406 264.90625 314.4406Q263.54688 314.4406 262.73438 313.59686Q261.9375 312.7531 261.9375 311.2375Q261.9375 309.675 262.75 308.8156Q263.5625 307.9406 264.84375 307.9406Q266.09375 307.9406 266.875 308.78436Q267.67188 309.6281 267.67188 311.175Q267.67188 311.26874 267.67188 311.45624L263.03125 311.45624Q263.09375 312.4875 263.60938 313.03436Q264.125 313.5656 264.90625 313.5656Q265.48438 313.5656 265.89062 313.26874Q266.3125 312.95624 266.54688 312.3ZM263.09375 310.59686L266.5625 310.59686Q266.5 309.8 266.17188 309.40936Q265.65625 308.8 264.85938 308.8Q264.125 308.8 263.625 309.28436Q263.14062 309.76874 263.09375 310.59686ZM273.32812 314.3L273.32812 313.51874Q272.73438 314.4406 271.59375 314.4406Q270.84375 314.4406 270.21875 314.03436Q269.59375 313.6125 269.25 312.8781Q268.90625 312.14374 268.90625 311.1906Q268.90625 310.26874 269.21875 309.5031Q269.53125 308.7375 270.15625 308.34686Q270.78125 307.9406 271.54688 307.9406Q272.10938 307.9406 272.54688 308.175Q272.98438 308.40936 273.26562 308.78436L273.26562 305.70624L274.3125 305.70624L274.3125 314.3L273.32812 314.3ZM270.0 311.1906Q270.0 312.39374 270.5 312.9875Q271.0 313.5656 271.6875 313.5656Q272.375 313.5656 272.85938 313.0031Q273.34375 312.4406 273.34375 311.28436Q273.34375 310.0031 272.84375 309.40936Q272.35938 308.8156 271.64062 308.8156Q270.9375 308.8156 270.46875 309.39374Q270.0 309.95624 270.0 311.1906ZM276.29688 314.3L276.29688 308.08124L277.23438 308.08124L277.23438 308.95624Q277.92188 307.9406 279.21875 307.9406Q279.78125 307.9406 280.25 308.14374Q280.73438 308.34686 280.96875 308.675Q281.20312 309.0031 281.29688 309.4406Q281.34375 309.7375 281.34375 310.47186L281.34375 314.3L280.29688 314.3L280.29688 310.51874Q280.29688 309.8625 280.17188 309.55Q280.04688 309.2375 279.73438 309.05Q279.42188 308.84686 279.0 308.84686Q278.32812 308.84686 277.82812 309.28436Q277.34375 309.70624 277.34375 310.89374L277.34375 314.3L276.29688 314.3ZM287.54688 312.3L288.64062 312.425Q288.39062 313.3781 287.6875 313.90936Q286.98438 314.4406 285.90625 314.4406Q284.54688 314.4406 283.73438 313.59686Q282.9375 312.7531 282.9375 311.2375Q282.9375 309.675 283.75 308.8156Q284.5625 307.9406 285.84375 307.9406Q287.09375 307.9406 287.875 308.78436Q288.67188 309.6281 288.67188 311.175Q288.67188 311.26874 288.67188 311.45624L284.03125 311.45624Q284.09375 312.4875 284.60938 313.03436Q285.125 313.5656 285.90625 313.5656Q286.48438 313.5656 286.89062 313.26874Q287.3125 312.95624 287.54688 312.3ZM284.09375 310.59686L287.5625 310.59686Q287.5 309.8 287.17188 309.40936Q286.65625 308.8 285.85938 308.8Q285.125 308.8 284.625 309.28436Q284.14062 309.76874 284.09375 310.59686ZM289.875 312.4406L290.90625 312.28436Q291.0 312.90936 291.39062 313.2375Q291.79688 313.5656 292.53125 313.5656Q293.25 313.5656 293.59375 313.28436Q293.95312 312.9875 293.95312 312.58124Q293.95312 312.22186 293.64062 312.01874Q293.42188 311.8781 292.5625 311.65936Q291.40625 311.3625 290.95312 311.15936Q290.51562 310.9406 290.28125 310.5656Q290.04688 310.1906 290.04688 309.72186Q290.04688 309.3156 290.23438 308.95624Q290.42188 308.59686 290.75 308.3625Q291.0 308.1906 291.42188 308.0656Q291.84375 307.9406 292.34375 307.9406Q293.0625 307.9406 293.60938 308.15936Q294.17188 308.3625 294.4375 308.72186Q294.70312 309.08124 294.79688 309.675L293.76562 309.8156Q293.70312 309.34686 293.35938 309.08124Q293.03125 308.8 292.40625 308.8Q291.6875 308.8 291.375 309.05Q291.0625 309.28436 291.0625 309.6125Q291.0625 309.8156 291.1875 309.97186Q291.32812 310.14374 291.59375 310.2531Q291.75 310.3156 292.53125 310.51874Q293.65625 310.83124 294.09375 311.01874Q294.53125 311.20624 294.78125 311.5656Q295.03125 311.925 295.03125 312.47186Q295.03125 313.0031 294.71875 313.47186Q294.42188 313.925 293.84375 314.1906Q293.26562 314.4406 292.53125 314.4406Q291.3125 314.4406 290.67188 313.9406Q290.04688 313.425 289.875 312.4406ZM301.32812 314.3L301.32812 313.51874Q300.73438 314.4406 299.59375 314.4406Q298.84375 314.4406 298.21875 314.03436Q297.59375 313.6125 297.25 312.8781Q296.90625 312.14374 296.90625 311.1906Q296.90625 310.26874 297.21875 309.5031Q297.53125 308.7375 298.15625 308.34686Q298.78125 307.9406 299.54688 307.9406Q300.10938 307.9406 300.54688 308.175Q300.98438 308.40936 301.26562 308.78436L301.26562 305.70624L302.3125 305.70624L302.3125 314.3L301.32812 314.3ZM298.0 311.1906Q298.0 312.39374 298.5 312.9875Q299.0 313.5656 299.6875 313.5656Q300.375 313.5656 300.85938 313.0031Q301.34375 312.4406 301.34375 311.28436Q301.34375 310.0031 300.84375 309.40936Q300.35938 308.8156 299.64062 308.8156Q298.9375 308.8156 298.46875 309.39374Q298.0 309.95624 298.0 311.1906ZM308.35938 313.53436Q307.76562 314.03436 307.21875 314.2375Q306.6875 314.4406 306.0625 314.4406Q305.03125 314.4406 304.48438 313.9406Q303.9375 313.4406 303.9375 312.65936Q303.9375 312.20624 304.14062 311.83124Q304.34375 311.4406 304.6875 311.22186Q305.03125 310.9875 305.45312 310.8781Q305.75 310.78436 306.39062 310.70624Q307.65625 310.5656 308.26562 310.34686Q308.26562 310.1281 308.26562 310.08124Q308.26562 309.425 307.96875 309.15936Q307.5625 308.8156 306.76562 308.8156Q306.03125 308.8156 305.67188 309.08124Q305.3125 309.33124 305.14062 309.9875L304.10938 309.84686Q304.25 309.1906 304.57812 308.78436Q304.90625 308.3781 305.51562 308.15936Q306.125 307.9406 306.92188 307.9406Q307.71875 307.9406 308.21875 308.1281Q308.71875 308.3156 308.95312 308.59686Q309.1875 308.8781 309.28125 309.3156Q309.32812 309.58124 309.32812 310.28436L309.32812 311.6906Q309.32812 313.15936 309.39062 313.55Q309.46875 313.9406 309.67188 314.3L308.5625 314.3Q308.40625 313.97186 308.35938 313.53436ZM308.26562 311.175Q307.6875 311.40936 306.54688 311.58124Q305.89062 311.675 305.625 311.8Q305.35938 311.90936 305.20312 312.1281Q305.0625 312.34686 305.0625 312.6281Q305.0625 313.05 305.375 313.33124Q305.70312 313.6125 306.3125 313.6125Q306.92188 313.6125 307.39062 313.34686Q307.875 313.08124 308.09375 312.6125Q308.26562 312.2531 308.26562 311.5656L308.26562 311.175ZM311.25 316.6906L311.125 315.70624Q311.46875 315.8 311.73438 315.8Q312.07812 315.8 312.28125 315.675Q312.5 315.5656 312.64062 315.3625Q312.73438 315.1906 312.96875 314.5656Q312.98438 314.4875 313.0625 314.3156L310.6875 308.08124L311.82812 308.08124L313.125 311.675Q313.375 312.3625 313.57812 313.1281Q313.76562 312.39374 314.01562 311.70624L315.34375 308.08124L316.39062 308.08124L314.03125 314.40936Q313.64062 315.425 313.4375 315.8156Q313.15625 316.34686 312.78125 316.58124Q312.42188 316.83124 311.92188 316.83124Q311.625 316.83124 311.25 316.6906Z" fill-rule="nonzero"/><path fill="#000000" d="M325.725 314.3L325.725 306.72186L322.89688 306.72186L322.89688 305.70624L329.70938 305.70624L329.70938 306.72186L326.86563 306.72186L326.86563 314.3L325.725 314.3ZM330.4125 314.3L330.4125 305.70624L331.45938 305.70624L331.45938 308.78436Q332.19376 307.9406 333.31876 307.9406Q334.02188 307.9406 334.52188 308.22186Q335.0375 308.4875 335.25626 308.97186Q335.475 309.4406 335.475 310.3625L335.475 314.3L334.42813 314.3L334.42813 310.3625Q334.42813 309.5656 334.08438 309.20624Q333.74063 308.84686 333.11563 308.84686Q332.64688 308.84686 332.225 309.09686Q331.81876 309.33124 331.63126 309.7531Q331.45938 310.15936 331.45938 310.89374L331.45938 314.3L330.4125 314.3ZM341.49063 314.3L341.49063 313.3781Q340.75626 314.4406 339.50626 314.4406Q338.95938 314.4406 338.475 314.2375Q338.00626 314.01874 337.77188 313.70624Q337.5375 313.3781 337.44376 312.90936Q337.38126 312.6125 337.38126 311.925L337.38126 308.08124L338.44376 308.08124L338.44376 311.53436Q338.44376 312.34686 338.50626 312.64374Q338.6 313.05 338.9125 313.3Q339.24063 313.53436 339.725 313.53436Q340.19376 313.53436 340.6 313.3Q341.02188 313.05 341.19376 312.6281Q341.38126 312.20624 341.38126 311.40936L341.38126 308.08124L342.42813 308.08124L342.42813 314.3L341.49063 314.3ZM344.39688 314.3L344.39688 308.08124L345.35 308.08124L345.35 309.01874Q345.70938 308.3625 346.00626 308.15936Q346.31876 307.9406 346.69376 307.9406Q347.225 307.9406 347.77188 308.26874L347.4125 309.2531Q347.02188 309.01874 346.64688 309.01874Q346.2875 309.01874 346.00626 309.2375Q345.74063 309.4406 345.63126 309.8156Q345.44376 310.3781 345.44376 311.03436L345.44376 314.3L344.39688 314.3ZM347.99063 312.4406L349.02188 312.28436Q349.11563 312.90936 349.50626 313.2375Q349.9125 313.5656 350.64688 313.5656Q351.36563 313.5656 351.70938 313.28436Q352.06876 312.9875 352.06876 312.58124Q352.06876 312.22186 351.75626 312.01874Q351.5375 311.8781 350.67813 311.65936Q349.52188 311.3625 349.06876 311.15936Q348.63126 310.9406 348.39688 310.5656Q348.1625 310.1906 348.1625 309.72186Q348.1625 309.3156 348.35 308.95624Q348.5375 308.59686 348.86563 308.3625Q349.11563 308.1906 349.5375 308.0656Q349.95938 307.9406 350.45938 307.9406Q351.17813 307.9406 351.725 308.15936Q352.2875 308.3625 352.55313 308.72186Q352.81876 309.08124 352.9125 309.675L351.88126 309.8156Q351.81876 309.34686 351.475 309.08124Q351.14688 308.8 350.52188 308.8Q349.80313 308.8 349.49063 309.05Q349.17813 309.28436 349.17813 309.6125Q349.17813 309.8156 349.30313 309.97186Q349.44376 310.14374 349.70938 310.2531Q349.86563 310.3156 350.64688 310.51874Q351.77188 310.83124 352.20938 311.01874Q352.64688 311.20624 352.89688 311.5656Q353.14688 311.925 353.14688 312.47186Q353.14688 313.0031 352.83438 313.47186Q352.5375 313.925 351.95938 314.1906Q351.38126 314.4406 350.64688 314.4406Q349.42813 314.4406 348.7875 313.9406Q348.1625 313.425 347.99063 312.4406ZM359.44376 314.3L359.44376 313.51874Q358.85 314.4406 357.70938 314.4406Q356.95938 314.4406 356.33438 314.03436Q355.70938 313.6125 355.36563 312.8781Q355.02188 312.14374 355.02188 311.1906Q355.02188 310.26874 355.33438 309.5031Q355.64688 308.7375 356.27188 308.34686Q356.89688 307.9406 357.6625 307.9406Q358.225 307.9406 358.6625 308.175Q359.1 308.40936 359.38126 308.78436L359.38126 305.70624L360.42813 305.70624L360.42813 314.3L359.44376 314.3ZM356.11563 311.1906Q356.11563 312.39374 356.61563 312.9875Q357.11563 313.5656 357.80313 313.5656Q358.49063 313.5656 358.975 313.0031Q359.45938 312.4406 359.45938 311.28436Q359.45938 310.0031 358.95938 309.40936Q358.475 308.8156 357.75626 308.8156Q357.05313 308.8156 356.58438 309.39374Q356.11563 309.95624 356.11563 311.1906ZM366.475 313.53436Q365.88126 314.03436 365.33438 314.2375Q364.80313 314.4406 364.17813 314.4406Q363.14688 314.4406 362.6 313.9406Q362.05313 313.4406 362.05313 312.65936Q362.05313 312.20624 362.25626 311.83124Q362.45938 311.4406 362.80313 311.22186Q363.14688 310.9875 363.56876 310.8781Q363.86563 310.78436 364.50626 310.70624Q365.77188 310.5656 366.38126 310.34686Q366.38126 310.1281 366.38126 310.08124Q366.38126 309.425 366.08438 309.15936Q365.67813 308.8156 364.88126 308.8156Q364.14688 308.8156 363.7875 309.08124Q363.42813 309.33124 363.25626 309.9875L362.225 309.84686Q362.36563 309.1906 362.69376 308.78436Q363.02188 308.3781 363.63126 308.15936Q364.24063 307.9406 365.0375 307.9406Q365.83438 307.9406 366.33438 308.1281Q366.83438 308.3156 367.06876 308.59686Q367.30313 308.8781 367.39688 309.3156Q367.44376 309.58124 367.44376 310.28436L367.44376 311.6906Q367.44376 313.15936 367.50626 313.55Q367.58438 313.9406 367.7875 314.3L366.67813 314.3Q366.52188 313.97186 366.475 313.53436ZM366.38126 311.175Q365.80313 311.40936 364.6625 311.58124Q364.00626 311.675 363.74063 311.8Q363.475 311.90936 363.31876 312.1281Q363.17813 312.34686 363.17813 312.6281Q363.17813 313.05 363.49063 313.33124Q363.81876 313.6125 364.42813 313.6125Q365.0375 313.6125 365.50626 313.34686Q365.99063 313.08124 366.20938 312.6125Q366.38126 312.2531 366.38126 311.5656L366.38126 311.175ZM369.36563 316.6906L369.24063 315.70624Q369.58438 315.8 369.85 315.8Q370.19376 315.8 370.39688 315.675Q370.61563 315.5656 370.75626 315.3625Q370.85 315.1906 371.08438 314.5656Q371.1 314.4875 371.17813 314.3156L368.80313 308.08124L369.94376 308.08124L371.24063 311.675Q371.49063 312.3625 371.69376 313.1281Q371.88126 312.39374 372.13126 311.70624L373.45938 308.08124L374.50626 308.08124L372.14688 314.40936Q371.75626 315.425 371.55313 315.8156Q371.27188 316.34686 370.89688 316.58124Q370.5375 316.83124 370.0375 316.83124Q369.74063 316.83124 369.36563 316.6906Z" fill-rule="nonzero"/><path fill="#000000" d="M397.71567 314.3L397.71567 305.70624L403.51254 305.70624L403.51254 306.72186L398.8563 306.72186L398.8563 309.3781L402.88754 309.3781L402.88754 310.39374L398.8563 310.39374L398.8563 314.3L397.71567 314.3ZM404.51254 314.3L404.51254 308.08124L405.46567 308.08124L405.46567 309.01874Q405.82504 308.3625 406.12192 308.15936Q406.43442 307.9406 406.80942 307.9406Q407.34067 307.9406 407.88754 308.26874L407.52817 309.2531Q407.13754 309.01874 406.76254 309.01874Q406.40317 309.01874 406.12192 309.2375Q405.8563 309.4406 405.74692 309.8156Q405.55942 310.3781 405.55942 311.03436L405.55942 314.3L404.51254 314.3ZM408.52817 306.925L408.52817 305.70624L409.59067 305.70624L409.59067 306.925L408.52817 306.925ZM408.52817 314.3L408.52817 308.08124L409.59067 308.08124L409.59067 314.3L408.52817 314.3ZM415.55942 314.3L415.55942 313.51874Q414.96567 314.4406 413.82504 314.4406Q413.07504 314.4406 412.45004 314.03436Q411.82504 313.6125 411.4813 312.8781Q411.13754 312.14374 411.13754 311.1906Q411.13754 310.26874 411.45004 309.5031Q411.76254 308.7375 412.38754 308.34686Q413.01254 307.9406 413.77817 307.9406Q414.34067 307.9406 414.77817 308.175Q415.21567 308.40936 415.49692 308.78436L415.49692 305.70624L416.5438 305.70624L416.5438 314.3L415.55942 314.3ZM412.2313 311.1906Q412.2313 312.39374 412.7313 312.9875Q413.2313 313.5656 413.9188 313.5656Q414.6063 313.5656 415.09067 313.0031Q415.57504 312.4406 415.57504 311.28436Q415.57504 310.0031 415.07504 309.40936Q414.59067 308.8156 413.87192 308.8156Q413.1688 308.8156 412.70004 309.39374Q412.2313 309.95624 412.2313 311.1906ZM422.59067 313.53436Q421.99692 314.03436 421.45004 314.2375Q420.9188 314.4406 420.2938 314.4406Q419.26254 314.4406 418.71567 313.9406Q418.1688 313.4406 418.1688 312.65936Q418.1688 312.20624 418.37192 311.83124Q418.57504 311.4406 418.9188 311.22186Q419.26254 310.9875 419.68442 310.8781Q419.9813 310.78436 420.62192 310.70624Q421.88754 310.5656 422.49692 310.34686Q422.49692 310.1281 422.49692 310.08124Q422.49692 309.425 422.20004 309.15936Q421.7938 308.8156 420.99692 308.8156Q420.26254 308.8156 419.90317 309.08124Q419.5438 309.33124 419.37192 309.9875L418.34067 309.84686Q418.4813 309.1906 418.80942 308.78436Q419.13754 308.3781 419.74692 308.15936Q420.3563 307.9406 421.15317 307.9406Q421.95004 307.9406 422.45004 308.1281Q422.95004 308.3156 423.18442 308.59686Q423.4188 308.8781 423.51254 309.3156Q423.55942 309.58124 423.55942 310.28436L423.55942 311.6906Q423.55942 313.15936 423.62192 313.55Q423.70004 313.9406 423.90317 314.3L422.7938 314.3Q422.63754 313.97186 422.59067 313.53436ZM422.49692 311.175Q421.9188 311.40936 420.77817 311.58124Q420.12192 311.675 419.8563 311.8Q419.59067 311.90936 419.43442 312.1281Q419.2938 312.34686 419.2938 312.6281Q419.2938 313.05 419.6063 313.33124Q419.93442 313.6125 420.5438 313.6125Q421.15317 313.6125 421.62192 313.34686Q422.1063 313.08124 422.32504 312.6125Q422.49692 312.2531 422.49692 311.5656L422.49692 311.175ZM425.4813 316.6906L425.3563 315.70624Q425.70004 315.8 425.96567 315.8Q426.30942 315.8 426.51254 315.675Q426.7313 315.5656 426.87192 315.3625Q426.96567 315.1906 427.20004 314.5656Q427.21567 314.4875 427.2938 314.3156L424.9188 308.08124L426.05942 308.08124L427.3563 311.675Q427.6063 312.3625 427.80942 313.1281Q427.99692 312.39374 428.24692 311.70624L429.57504 308.08124L430.62192 308.08124L428.26254 314.40936Q427.87192 315.425 427.6688 315.8156Q427.38754 316.34686 427.01254 316.58124Q426.65317 316.83124 426.15317 316.83124Q425.8563 316.83124 425.4813 316.6906Z" fill-rule="nonzero"/><path fill="#000000" d="M454.8938 311.53436L455.9563 311.4406Q456.03442 312.09686 456.31567 312.5031Q456.59692 312.90936 457.17505 313.175Q457.7688 313.425 458.50317 313.425Q459.1438 313.425 459.6438 313.2375Q460.1438 313.03436 460.37817 312.70624Q460.62817 312.3625 460.62817 311.97186Q460.62817 311.5656 460.3938 311.26874Q460.15942 310.95624 459.62817 310.7531Q459.2688 310.6125 458.0813 310.33124Q456.90942 310.05 456.44067 309.8Q455.81567 309.47186 455.5188 309.0031Q455.22192 308.51874 455.22192 307.925Q455.22192 307.28436 455.5813 306.72186Q455.9563 306.14374 456.65942 305.8625Q457.37817 305.5656 458.23755 305.5656Q459.19067 305.5656 459.92505 305.8781Q460.65942 306.175 461.05005 306.78436Q461.44067 307.3781 461.47192 308.1281L460.37817 308.20624Q460.28442 307.39374 459.7688 306.9875Q459.2688 306.5656 458.28442 306.5656Q457.25317 306.5656 456.78442 306.9406Q456.31567 307.3156 456.31567 307.84686Q456.31567 308.3156 456.6438 308.6125Q456.97192 308.90936 458.34692 309.22186Q459.73755 309.53436 460.25317 309.76874Q461.00317 310.1281 461.36255 310.65936Q461.72192 311.175 461.72192 311.8781Q461.72192 312.5656 461.3313 313.175Q460.94067 313.76874 460.2063 314.1125Q459.47192 314.4406 458.55005 314.4406Q457.37817 314.4406 456.5813 314.1125Q455.80005 313.76874 455.34692 313.08124Q454.90942 312.39374 454.8938 311.53436ZM467.2063 313.53436Q466.61255 314.03436 466.06567 314.2375Q465.53442 314.4406 464.90942 314.4406Q463.87817 314.4406 463.3313 313.9406Q462.78442 313.4406 462.78442 312.65936Q462.78442 312.20624 462.98755 311.83124Q463.19067 311.4406 463.53442 311.22186Q463.87817 310.9875 464.30005 310.8781Q464.59692 310.78436 465.23755 310.70624Q466.50317 310.5656 467.11255 310.34686Q467.11255 310.1281 467.11255 310.08124Q467.11255 309.425 466.81567 309.15936Q466.40942 308.8156 465.61255 308.8156Q464.87817 308.8156 464.5188 309.08124Q464.15942 309.33124 463.98755 309.9875L462.9563 309.84686Q463.09692 309.1906 463.42505 308.78436Q463.75317 308.3781 464.36255 308.15936Q464.97192 307.9406 465.7688 307.9406Q466.56567 307.9406 467.06567 308.1281Q467.56567 308.3156 467.80005 308.59686Q468.03442 308.8781 468.12817 309.3156Q468.17505 309.58124 468.17505 310.28436L468.17505 311.6906Q468.17505 313.15936 468.23755 313.55Q468.31567 313.9406 468.5188 314.3L467.40942 314.3Q467.25317 313.97186 467.2063 313.53436ZM467.11255 311.175Q466.53442 311.40936 465.3938 311.58124Q464.73755 311.675 464.47192 311.8Q464.2063 311.90936 464.05005 312.1281Q463.90942 312.34686 463.90942 312.6281Q463.90942 313.05 464.22192 313.33124Q464.55005 313.6125 465.15942 313.6125Q465.7688 313.6125 466.23755 313.34686Q466.72192 313.08124 466.94067 312.6125Q467.11255 312.2531 467.11255 311.5656L467.11255 311.175ZM472.44067 313.3625L472.59692 314.28436Q472.1438 314.3781 471.80005 314.3781Q471.22192 314.3781 470.90942 314.20624Q470.59692 314.01874 470.4563 313.72186Q470.3313 313.425 470.3313 312.47186L470.3313 308.89374L469.56567 308.89374L469.56567 308.08124L470.3313 308.08124L470.3313 306.53436L471.37817 305.90936L471.37817 308.08124L472.44067 308.08124L472.44067 308.89374L471.37817 308.89374L471.37817 312.53436Q471.37817 312.9875 471.42505 313.1125Q471.48755 313.2375 471.61255 313.3156Q471.73755 313.39374 471.97192 313.39374Q472.15942 313.39374 472.44067 313.3625ZM477.22192 314.3L477.22192 313.3781Q476.48755 314.4406 475.23755 314.4406Q474.69067 314.4406 474.2063 314.2375Q473.73755 314.01874 473.50317 313.70624Q473.2688 313.3781 473.17505 312.90936Q473.11255 312.6125 473.11255 311.925L473.11255 308.08124L474.17505 308.08124L474.17505 311.53436Q474.17505 312.34686 474.23755 312.64374Q474.3313 313.05 474.6438 313.3Q474.97192 313.53436 475.4563 313.53436Q475.92505 313.53436 476.3313 313.3Q476.75317 313.05 476.92505 312.6281Q477.11255 312.20624 477.11255 311.40936L477.11255 308.08124L478.15942 308.08124L478.15942 314.3L477.22192 314.3ZM480.12817 314.3L480.12817 308.08124L481.0813 308.08124L481.0813 309.01874Q481.44067 308.3625 481.73755 308.15936Q482.05005 307.9406 482.42505 307.9406Q482.9563 307.9406 483.50317 308.26874L483.1438 309.2531Q482.75317 309.01874 482.37817 309.01874Q482.0188 309.01874 481.73755 309.2375Q481.47192 309.4406 481.36255 309.8156Q481.17505 310.3781 481.17505 311.03436L481.17505 314.3L480.12817 314.3ZM488.17505 314.3L488.17505 313.51874Q487.5813 314.4406 486.44067 314.4406Q485.69067 314.4406 485.06567 314.03436Q484.44067 313.6125 484.09692 312.8781Q483.75317 312.14374 483.75317 311.1906Q483.75317 310.26874 484.06567 309.5031Q484.37817 308.7375 485.00317 308.34686Q485.62817 307.9406 486.3938 307.9406Q486.9563 307.9406 487.3938 308.175Q487.8313 308.40936 488.11255 308.78436L488.11255 305.70624L489.15942 305.70624L489.15942 314.3L488.17505 314.3ZM484.84692 311.1906Q484.84692 312.39374 485.34692 312.9875Q485.84692 313.5656 486.53442 313.5656Q487.22192 313.5656 487.7063 313.0031Q488.19067 312.4406 488.19067 311.28436Q488.19067 310.0031 487.69067 309.40936Q487.2063 308.8156 486.48755 308.8156Q485.78442 308.8156 485.31567 309.39374Q484.84692 309.95624 484.84692 311.1906ZM495.2063 313.53436Q494.61255 314.03436 494.06567 314.2375Q493.53442 314.4406 492.90942 314.4406Q491.87817 314.4406 491.3313 313.9406Q490.78442 313.4406 490.78442 312.65936Q490.78442 312.20624 490.98755 311.83124Q491.19067 311.4406 491.53442 311.22186Q491.87817 310.9875 492.30005 310.8781Q492.59692 310.78436 493.23755 310.70624Q494.50317 310.5656 495.11255 310.34686Q495.11255 310.1281 495.11255 310.08124Q495.11255 309.425 494.81567 309.15936Q494.40942 308.8156 493.61255 308.8156Q492.87817 308.8156 492.5188 309.08124Q492.15942 309.33124 491.98755 309.9875L490.9563 309.84686Q491.09692 309.1906 491.42505 308.78436Q491.75317 308.3781 492.36255 308.15936Q492.97192 307.9406 493.7688 307.9406Q494.56567 307.9406 495.06567 308.1281Q495.56567 308.3156 495.80005 308.59686Q496.03442 308.8781 496.12817 309.3156Q496.17505 309.58124 496.17505 310.28436L496.17505 311.6906Q496.17505 313.15936 496.23755 313.55Q496.31567 313.9406 496.5188 314.3L495.40942 314.3Q495.25317 313.97186 495.2063 313.53436ZM495.11255 311.175Q494.53442 311.40936 493.3938 311.58124Q492.73755 311.675 492.47192 311.8Q492.2063 311.90936 492.05005 312.1281Q491.90942 312.34686 491.90942 312.6281Q491.90942 313.05 492.22192 313.33124Q492.55005 313.6125 493.15942 313.6125Q493.7688 313.6125 494.23755 313.34686Q494.72192 313.08124 494.94067 312.6125Q495.11255 312.2531 495.11255 311.5656L495.11255 311.175ZM498.09692 316.6906L497.97192 315.70624Q498.31567 315.8 498.5813 315.8Q498.92505 315.8 499.12817 315.675Q499.34692 315.5656 499.48755 315.3625Q499.5813 315.1906 499.81567 314.5656Q499.8313 314.4875 499.90942 314.3156L497.53442 308.08124L498.67505 308.08124L499.97192 311.675Q500.22192 312.3625 500.42505 313.1281Q500.61255 312.39374 500.86255 311.70624L502.19067 308.08124L503.23755 308.08124L500.87817 314.40936Q500.48755 315.425 500.28442 315.8156Q500.00317 316.34686 499.62817 316.58124Q499.2688 316.83124 498.7688 316.83124Q498.47192 316.83124 498.09692 316.6906Z" fill-rule="nonzero"/></svg>