<?xml version="1.0" standalone="no"?>
<!DOCTYPE svg PUBLIC "-//W3C//DTD SVG 20010904//EN"
 "http://www.w3.org/TR/2001/REC-SVG-20010904/DTD/svg10.dtd">
<svg version="1.0" xmlns="http://www.w3.org/2000/svg"
 width="914.000000pt" height="915.000000pt" viewBox="0 0 914.000000 915.000000"
 preserveAspectRatio="xMidYMid meet">

<g transform="translate(0.000000,915.000000) scale(0.100000,-0.100000)"
fill="#000000" stroke="none">
<path d="M4079 8677 c-88 -53 -107 -67 -113 -82 -3 -8 16 -42 43 -77 144 -189
212 -303 262 -439 69 -188 94 -397 87 -712 l-6 -219 -35 -36 -36 -35 -168 17
c-465 47 -499 49 -848 50 -359 1 -456 -5 -690 -45 -237 -39 -405 -98 -672
-233 -611 -310 -902 -661 -1160 -1400 -107 -307 -153 -681 -153 -1256 0 -473
12 -595 90 -915 120 -492 298 -847 601 -1201 257 -300 754 -679 1134 -864 387
-189 876 -317 1465 -384 317 -37 918 -44 1265 -16 148 13 443 55 510 74 144
40 168 46 193 46 15 0 68 9 117 20 50 11 133 29 185 39 196 39 575 201 809
346 428 265 1002 909 1251 1404 65 129 155 380 194 541 72 297 90 500 83 940
-6 353 -20 540 -62 796 -132 809 -448 1355 -990 1706 -255 165 -590 285 -927
333 -154 21 -459 38 -578 31 -58 -4 -233 -23 -389 -42 l-284 -35 -29 27 c-21
21 -37 55 -59 129 -123 408 -267 748 -416 980 -68 105 -172 223 -284 322 -109
96 -290 223 -318 223 -9 0 -42 -15 -72 -33z m2488 -2809 c25 -28 114 -203 149
-295 74 -196 88 -273 89 -493 l0 -185 -32 -66 c-47 -95 -180 -222 -255 -243
-212 -61 -702 -44 -1155 39 -109 20 -143 31 -161 49 -15 14 -20 28 -16 40 4 9
68 58 143 108 209 139 353 244 457 332 53 45 105 88 117 96 26 19 418 418 537
548 47 51 90 92 96 92 6 0 20 -10 31 -22z m-3891 -145 c390 -416 581 -585 959
-845 77 -54 158 -115 180 -138 l39 -40 -30 -30 c-29 -29 -38 -31 -259 -64
-334 -50 -453 -59 -692 -53 -314 7 -374 26 -500 152 -101 100 -133 170 -140
303 -10 175 24 366 95 542 87 216 154 330 192 330 5 0 75 -71 156 -157z m1904
-1380 c18 -14 142 -192 278 -395 l245 -369 -30 -31 -31 -30 -108 21 c-286 55
-515 55 -797 -1 l-108 -21 -24 23 c-14 13 -25 29 -25 36 0 7 107 174 238 371
212 318 292 423 322 423 4 0 23 -12 40 -27z m-2566 -912 c217 -130 564 -266
886 -347 152 -38 165 -50 209 -189 46 -145 118 -286 154 -303 36 -18 223 -49
342 -58 l95 -7 0 161 c0 158 0 161 26 191 37 44 70 49 237 40 205 -12 481 -14
612 -5 65 5 127 4 151 -2 39 -9 181 -5 505 14 l126 7 34 -31 34 -30 1 -174 c1
-95 5 -173 10 -173 51 1 242 19 328 30 75 10 115 20 128 32 32 29 72 118 117
258 71 220 63 211 228 255 276 73 618 210 818 329 38 22 77 41 86 41 8 0 26
-11 39 -25 21 -23 22 -28 11 -64 -16 -57 -118 -252 -183 -351 -30 -47 -91
-130 -135 -185 -141 -177 -442 -465 -485 -465 -10 0 -35 -19 -56 -42 -62 -69
-289 -206 -462 -279 -259 -108 -634 -206 -865 -225 -68 -6 -71 -5 -96 22 -18
20 -42 83 -82 209 -70 227 -73 234 -94 242 -10 3 -26 13 -36 21 -16 14 -21 14
-46 -1 -24 -14 -57 -17 -189 -17 -135 0 -163 -3 -177 -16 -15 -15 -15 -18 0
-34 15 -16 13 -27 -19 -131 -19 -63 -40 -143 -47 -179 -13 -69 -31 -105 -59
-120 -42 -23 -518 71 -740 146 -142 48 -400 169 -536 251 -274 166 -600 485
-796 777 -77 116 -167 283 -203 378 -16 44 -16 49 -1 73 9 14 24 25 32 25 9 0
53 -22 98 -49z"/>
</g>
</svg>
